<svg viewBox="0 0 343.82 124.12" xmlns="http://www.w3.org/2000/svg" xmlns:xlink="http://www.w3.org/1999/xlink" id="Layer_1" overflow="hidden"><defs><linearGradient x1="46.6" y1="-30.46" x2="178.22" y2="105.75" gradientUnits="userSpaceOnUse" id="linear-gradient"><stop offset="0" stop-color="#FFFFFF"/><stop offset="0.14" stop-color="#FAD8C0"/><stop offset="0.39" stop-color="#F2934F"/><stop offset="0.51" stop-color="#EF7823"/></linearGradient></defs><rect x="0" y="7.65" rx="54.66" ry="54.66" width="339.09" height="116.47" fill="#231F20" opacity="0.56"/><rect x="3.73" y="1" rx="54.66" ry="54.66" width="339.09" height="116.47" stroke="#9A2B20" stroke-width="2" stroke-miterlimit="10" fill="#EF7823"/><path d="M229.88 4.71C176.23 7.71 82.35 13.35 54.11 42.82 35.98 61.75 32.63 84.1 38.05 109.53 18.29 101.06 12.01 84.58 9.46 77.06 6.49 68.3 1.64 31.48 28.35 14.06 42.84 4.61 53.06 5.24 53.06 5.24 53.06 5.24 185.24 4.71 229.88 4.71Z" fill="url(#linear-gradient)" opacity="0.78"/><g><g><path d="M101.39 47.63 90.5 47.63 90.5 76.11 84.95 76.11 84.95 47.63 74.08 47.63 74.08 43.15 101.38 43.15 101.38 47.63Z" fill="#BA5000"/><path d="M117.21 56.37 116.69 56.28C116.6 56.27 116.51 56.25 116.43 56.23 116.35 56.22 116.26 56.2 116.18 56.2 116.1 56.2 116.02 56.18 115.94 56.18 115.86 56.18 115.79 56.16 115.71 56.15 115.41 56.14 115.07 56.13 114.69 56.13 113.33 56.13 112.24 56.41 111.41 56.97 110.6 57.5 109.98 58.22 109.55 59.14L109.55 76.12 104.46 76.12 104.46 51.63 109.44 51.63 109.44 52.08 109.49 53.57C109.99 53 110.55 52.51 111.19 52.12 112.22 51.49 113.45 51.17 114.9 51.17 115.23 51.17 115.6 51.21 116.01 51.28 116.13 51.3 116.23 51.31 116.32 51.33 116.4 51.35 116.48 51.36 116.56 51.39 116.64 51.42 116.71 51.44 116.78 51.46 116.85 51.48 116.91 51.51 116.97 51.54L117.22 51.68 117.22 56.39Z" fill="#BA5000"/><path d="M136.1 76.11 135.96 75.86C135.87 75.68 135.79 75.49 135.73 75.28 135.67 75.07 135.61 74.85 135.55 74.59 135.53 74.5 135.52 74.4 135.49 74.3 135.47 74.19 135.45 74.1 135.43 74.01 135.17 74.22 134.91 74.42 134.64 74.6 134.08 74.99 133.47 75.34 132.81 75.64 132.15 75.93 131.42 76.15 130.64 76.32 130.25 76.4 129.85 76.46 129.44 76.5 129.03 76.54 128.62 76.57 128.2 76.57 127.84 76.57 127.49 76.56 127.15 76.54 126.81 76.52 126.48 76.48 126.15 76.43 125.83 76.38 125.51 76.31 125.2 76.24 124.89 76.17 124.61 76.08 124.35 75.99 123.26 75.6 122.34 75.07 121.59 74.41 120.82 73.73 120.23 72.94 119.81 72.02 119.39 71.1 119.19 70.13 119.19 69.09 119.19 67.75 119.46 66.55 120 65.51 120.27 65 120.6 64.52 121 64.08 121.39 63.64 121.85 63.25 122.36 62.9 123.36 62.21 124.6 61.69 126.09 61.34 126.6 61.22 127.13 61.12 127.67 61.05 128.21 60.97 128.78 60.92 129.36 60.88 129.94 60.84 130.55 60.82 131.18 60.82L135.21 60.82 135.21 59.46C135.21 58.83 135.1 58.27 134.89 57.78 134.68 57.3 134.36 56.88 133.94 56.54 133.65 56.3 133.32 56.1 132.96 55.94 132.59 55.78 132.16 55.66 131.67 55.58 131.18 55.5 130.65 55.46 130.07 55.46 129.86 55.46 129.66 55.46 129.47 55.48 129.28 55.5 129.09 55.51 128.9 55.54 128.71 55.57 128.53 55.59 128.36 55.63 128.19 55.67 128.02 55.71 127.87 55.75 127.64 55.81 127.43 55.88 127.24 55.97 127.05 56.06 126.86 56.14 126.69 56.23 126.52 56.32 126.35 56.42 126.2 56.52 126.05 56.63 125.91 56.74 125.78 56.86 125.65 56.98 125.54 57.11 125.43 57.23 125.32 57.35 125.23 57.49 125.16 57.63 124.92 58.02 124.8 58.44 124.8 58.87L124.8 59.32 119.68 59.32 119.68 58.87C119.68 57.92 119.93 56.98 120.43 56.06 120.91 55.14 121.6 54.32 122.49 53.59 123.38 52.86 124.48 52.29 125.79 51.85 127.15 51.4 128.66 51.17 130.32 51.17 131.83 51.17 133.22 51.34 134.48 51.69 134.9 51.81 135.31 51.95 135.7 52.1 136.06 52.25 136.4 52.42 136.72 52.62 137.04 52.82 137.34 53.04 137.63 53.28 138.48 53.97 139.14 54.85 139.62 55.91 139.86 56.44 140.04 57 140.16 57.61 140.28 58.21 140.34 58.86 140.34 59.56L140.34 70.54C140.34 71.31 140.41 72.12 140.54 72.98 140.69 73.83 140.89 74.55 141.15 75.15L141.2 75.24 141.2 76.12 136.08 76.12ZM126.82 71.74C127.39 71.92 128.07 72.01 128.86 72.01 129.65 72.01 130.35 71.92 131.03 71.74 131.71 71.54 132.33 71.3 132.89 70.99 133.45 70.69 133.93 70.35 134.34 69.97 134.7 69.62 135 69.26 135.22 68.88L135.22 64.67 131.92 64.67C131.29 64.67 130.69 64.69 130.12 64.74 129.55 64.79 129.03 64.85 128.55 64.93 128.07 65.01 127.63 65.11 127.23 65.24 126.83 65.36 126.46 65.5 126.13 65.67 124.91 66.29 124.3 67.23 124.3 68.5 124.3 69 124.39 69.47 124.57 69.9 124.62 70.01 124.66 70.11 124.72 70.21 124.78 70.31 124.83 70.4 124.9 70.49 124.97 70.58 125.04 70.67 125.13 70.75 125.22 70.83 125.3 70.91 125.39 70.99 125.78 71.29 126.27 71.54 126.84 71.74Z" fill="#BA5000"/><path d="M150.61 51.61 150.63 52.04 150.72 54.01C151.5 53.26 152.43 52.64 153.48 52.15 154.9 51.49 156.5 51.15 158.28 51.15 158.73 51.15 159.17 51.17 159.59 51.21 160.01 51.25 160.43 51.3 160.83 51.38 161.22 51.46 161.58 51.55 161.92 51.67 162.45 51.84 162.93 52.05 163.37 52.32 163.81 52.59 164.21 52.91 164.58 53.28 164.95 53.66 165.27 54.08 165.55 54.55 165.83 55.02 166.06 55.54 166.24 56.11 166.63 57.24 166.83 58.6 166.83 60.18L166.83 76.09 161.74 76.09 161.74 60.25C161.74 59.38 161.64 58.64 161.45 58.05 161.36 57.75 161.24 57.48 161.08 57.26 160.92 57.03 160.74 56.83 160.55 56.65 160.16 56.3 159.66 56.05 159.06 55.88 158.44 55.7 157.72 55.61 156.89 55.61 156.69 55.61 156.5 55.61 156.31 55.63 156.12 55.65 155.93 55.66 155.74 55.69 155.55 55.72 155.37 55.74 155.2 55.78 155.03 55.82 154.85 55.86 154.68 55.92 154.51 55.97 154.34 56.03 154.18 56.1 154.02 56.17 153.86 56.24 153.7 56.31 153.54 56.39 153.39 56.47 153.24 56.56 152.73 56.88 152.27 57.25 151.86 57.67 151.47 58.08 151.14 58.54 150.86 59.05L150.86 76.09 145.77 76.09 145.77 51.6 150.61 51.6Z" fill="#BA5000"/><path d="M187.09 69.87C187.14 69.68 187.16 69.49 187.16 69.29 187.16 68.9 187.1 68.54 186.98 68.2 186.87 67.88 186.64 67.58 186.28 67.29 185.87 66.99 185.29 66.7 184.54 66.43 184.15 66.29 183.69 66.16 183.17 66.02 182.65 65.88 182.06 65.76 181.42 65.64 179.91 65.37 178.55 65.04 177.32 64.67 177.15 64.61 176.98 64.55 176.81 64.49 176.64 64.43 176.48 64.37 176.34 64.31 176.2 64.25 176.05 64.19 175.91 64.12 175.77 64.05 175.63 63.98 175.49 63.92 175.35 63.86 175.22 63.78 175.09 63.72 174.96 63.66 174.84 63.58 174.72 63.5 174.6 63.42 174.49 63.34 174.38 63.25 173.57 62.69 172.93 62.02 172.48 61.24 172.04 60.46 171.82 59.54 171.82 58.5 171.82 57.46 172.05 56.56 172.52 55.67 172.97 54.78 173.61 54 174.44 53.34 175.27 52.68 176.3 52.16 177.52 51.78 177.85 51.67 178.19 51.58 178.53 51.51 178.87 51.43 179.22 51.37 179.57 51.32 179.92 51.27 180.29 51.23 180.66 51.21 181.03 51.19 181.41 51.18 181.8 51.18 183.46 51.18 184.95 51.39 186.26 51.81 186.7 51.95 187.1 52.1 187.46 52.27 187.82 52.44 188.17 52.64 188.49 52.85 188.81 53.06 189.12 53.29 189.41 53.53 190.26 54.27 190.9 55.13 191.36 56.12 191.82 57.11 192.04 58.16 192.04 59.28L192.04 59.73 186.92 59.73 186.92 59.28C186.92 58.84 186.81 58.41 186.6 57.97 186.39 57.52 186.06 57.11 185.63 56.75 185.2 56.39 184.66 56.09 184.02 55.87 183.38 55.65 182.65 55.53 181.8 55.53 181.33 55.53 180.91 55.55 180.53 55.6 180.15 55.65 179.81 55.71 179.49 55.8 178.89 55.98 178.4 56.22 178.02 56.5 177.9 56.59 177.79 56.69 177.68 56.79 177.57 56.9 177.48 57 177.41 57.11 177.33 57.22 177.27 57.33 177.21 57.45 177.04 57.8 176.96 58.16 176.96 58.54 176.96 58.74 176.98 58.92 177.01 59.08 177.04 59.25 177.09 59.4 177.17 59.53 177.29 59.8 177.55 60.06 177.94 60.3 178.36 60.56 178.95 60.8 179.71 61.02 179.91 61.08 180.12 61.14 180.34 61.19 180.56 61.24 180.81 61.3 181.06 61.36 181.32 61.42 181.59 61.48 181.87 61.54 182.16 61.6 182.46 61.66 182.78 61.72 184.44 62.07 185.87 62.45 187.08 62.87 188.23 63.31 189.19 63.82 189.95 64.41 190.71 65 191.3 65.69 191.69 66.47 191.87 66.86 192.01 67.28 192.11 67.74 192.21 68.2 192.26 68.67 192.26 69.17 192.26 69.53 192.23 69.89 192.18 70.23 192.13 70.58 192.05 70.91 191.94 71.24 191.83 71.57 191.7 71.88 191.53 72.18 191.06 73.1 190.38 73.89 189.49 74.53 189.2 74.74 188.89 74.94 188.56 75.12 188.23 75.3 187.88 75.47 187.52 75.62 187.16 75.77 186.76 75.91 186.32 76.03 185.01 76.39 183.54 76.57 181.93 76.57 180.09 76.57 178.46 76.34 177.04 75.87 175.71 75.39 174.6 74.75 173.71 73.97 172.82 73.19 172.14 72.28 171.67 71.27 171.2 70.26 170.97 69.21 170.97 68.13L170.97 67.68 176.04 67.68 176.06 68.11C176.08 68.5 176.13 68.86 176.23 69.19 176.33 69.51 176.46 69.8 176.63 70.06 176.81 70.32 177.01 70.55 177.24 70.76 177.47 70.97 177.72 71.16 178.01 71.33 178.57 71.66 179.19 71.9 179.87 72.03 180.55 72.18 181.24 72.26 181.93 72.26 182.38 72.26 182.81 72.24 183.2 72.2 183.59 72.16 183.95 72.1 184.29 72.01 184.46 71.98 184.61 71.94 184.77 71.89 184.93 71.84 185.07 71.78 185.21 71.73 185.35 71.68 185.49 71.62 185.61 71.56 185.73 71.5 185.84 71.43 185.95 71.36 186.37 71.1 186.68 70.8 186.88 70.45 186.99 70.27 187.06 70.08 187.11 69.9Z" fill="#BA5000"/><path d="M202 76.11 196.91 76.11 196.91 41.34 202 41.34 202 76.11Z" fill="#BA5000"/><path d="M223.75 76.11 223.61 75.86C223.52 75.68 223.44 75.49 223.38 75.28 223.32 75.07 223.26 74.85 223.2 74.59 223.18 74.5 223.17 74.4 223.14 74.3 223.12 74.19 223.1 74.1 223.08 74.01 222.82 74.22 222.56 74.42 222.29 74.6 221.73 74.99 221.12 75.34 220.46 75.64 219.8 75.93 219.07 76.15 218.29 76.32 217.9 76.4 217.5 76.46 217.09 76.5 216.68 76.54 216.27 76.57 215.85 76.57 215.49 76.57 215.14 76.56 214.8 76.54 214.46 76.52 214.13 76.48 213.8 76.43 213.48 76.38 213.16 76.31 212.85 76.24 212.54 76.17 212.26 76.08 212 75.99 210.91 75.6 209.99 75.07 209.24 74.41 208.47 73.73 207.88 72.94 207.46 72.02 207.04 71.1 206.84 70.13 206.84 69.09 206.84 67.75 207.11 66.55 207.65 65.51 207.92 65 208.25 64.52 208.65 64.08 209.04 63.64 209.5 63.25 210.01 62.9 211.01 62.21 212.25 61.69 213.74 61.34 214.25 61.22 214.78 61.12 215.32 61.05 215.86 60.97 216.43 60.92 217.01 60.88 217.59 60.84 218.2 60.82 218.83 60.82L222.86 60.82 222.86 59.46C222.86 58.83 222.75 58.27 222.54 57.78 222.33 57.3 222.01 56.88 221.59 56.54 221.3 56.3 220.97 56.1 220.61 55.94 220.24 55.78 219.81 55.66 219.32 55.58 218.83 55.5 218.3 55.46 217.72 55.46 217.51 55.46 217.31 55.46 217.12 55.48 216.93 55.5 216.74 55.51 216.55 55.54 216.36 55.57 216.18 55.59 216.01 55.63 215.84 55.67 215.67 55.71 215.52 55.75 215.29 55.81 215.08 55.88 214.89 55.97 214.7 56.06 214.51 56.14 214.34 56.23 214.17 56.32 214 56.42 213.85 56.52 213.7 56.63 213.56 56.74 213.43 56.86 213.3 56.98 213.19 57.11 213.08 57.23 212.97 57.35 212.88 57.49 212.81 57.63 212.57 58.02 212.45 58.44 212.45 58.87L212.45 59.32 207.33 59.32 207.33 58.87C207.33 57.92 207.58 56.98 208.08 56.06 208.56 55.14 209.25 54.32 210.14 53.59 211.03 52.86 212.13 52.29 213.44 51.85 214.8 51.4 216.31 51.17 217.97 51.17 219.48 51.17 220.87 51.34 222.13 51.69 222.55 51.81 222.96 51.95 223.35 52.1 223.71 52.25 224.05 52.42 224.37 52.62 224.69 52.82 224.99 53.04 225.28 53.28 226.13 53.97 226.79 54.85 227.27 55.91 227.51 56.44 227.69 57 227.81 57.61 227.93 58.21 227.99 58.86 227.99 59.56L227.99 70.54C227.99 71.31 228.06 72.12 228.19 72.98 228.34 73.83 228.54 74.55 228.8 75.15L228.85 75.24 228.85 76.12 223.73 76.12ZM214.47 71.74C215.04 71.92 215.72 72.01 216.51 72.01 217.3 72.01 218 71.92 218.68 71.74 219.36 71.54 219.98 71.3 220.54 70.99 221.1 70.69 221.58 70.35 221.99 69.97 222.35 69.62 222.65 69.26 222.87 68.88L222.87 64.67 219.57 64.67C218.94 64.67 218.34 64.69 217.77 64.74 217.2 64.79 216.68 64.85 216.2 64.93 215.72 65.01 215.28 65.11 214.88 65.24 214.48 65.36 214.11 65.5 213.78 65.67 212.56 66.29 211.95 67.23 211.95 68.5 211.95 69 212.04 69.47 212.22 69.9 212.27 70.01 212.31 70.11 212.37 70.21 212.43 70.31 212.48 70.4 212.55 70.49 212.62 70.58 212.69 70.67 212.78 70.75 212.87 70.83 212.95 70.91 213.04 70.99 213.43 71.29 213.92 71.54 214.49 71.74Z" fill="#BA5000"/><path d="M240 45.68 240 51.61 244.57 51.61 244.57 55.75 240 55.75 240 69.85C240 70.39 240.07 70.82 240.2 71.14 240.32 71.44 240.47 71.67 240.65 71.82 240.73 71.88 240.8 71.93 240.87 71.97 240.94 72.01 241.01 72.04 241.08 72.07 241.16 72.1 241.24 72.12 241.33 72.14 241.47 72.17 241.61 72.19 241.77 72.21 241.93 72.23 242.08 72.23 242.23 72.23 242.34 72.23 242.45 72.23 242.56 72.22 242.67 72.22 242.79 72.2 242.9 72.19 243.01 72.18 243.13 72.16 243.25 72.14 243.63 72.08 243.92 72.03 244.13 71.98L244.67 71.87 244.67 75.99 244.33 76.08C244.16 76.13 243.97 76.17 243.75 76.23 243.53 76.28 243.29 76.34 243.01 76.4 242.45 76.51 241.78 76.56 241 76.56 240.59 76.56 240.2 76.53 239.81 76.47 239.42 76.41 239.04 76.33 238.67 76.22 237.92 75.98 237.26 75.59 236.7 75.04 236.14 74.51 235.7 73.82 235.36 72.96 235.04 72.1 234.88 71.06 234.88 69.84L234.88 55.76 230.42 55.76 230.42 51.62 234.88 51.62 234.88 45.69 239.97 45.69Z" fill="#BA5000"/><path d="M261.39 76.46C260.77 76.53 260.12 76.56 259.44 76.56 257.52 76.56 255.79 76.27 254.23 75.68 252.71 75.09 251.43 74.27 250.4 73.21 250.07 72.85 249.75 72.47 249.46 72.08 249.17 71.69 248.9 71.27 248.67 70.82 248.44 70.37 248.23 69.91 248.05 69.43 247.51 68 247.24 66.42 247.24 64.7L247.24 63.79C247.24 61.81 247.55 60.04 248.17 58.47 248.79 56.92 249.61 55.6 250.64 54.51 250.99 54.16 251.35 53.84 251.74 53.54 252.12 53.24 252.52 52.96 252.93 52.7 253.38 52.46 253.85 52.24 254.33 52.04 255.79 51.45 257.31 51.16 258.88 51.16 259.86 51.16 260.78 51.24 261.64 51.41 262.5 51.56 263.29 51.79 264.02 52.09 264.47 52.3 264.9 52.54 265.29 52.8 265.68 53.06 266.05 53.35 266.39 53.66 266.73 53.97 267.04 54.3 267.33 54.67 268.19 55.76 268.82 57.04 269.23 58.52 269.44 59.24 269.6 60 269.69 60.8 269.78 61.6 269.84 62.41 269.84 63.26L269.84 65.52 252.37 65.52C252.43 66.38 252.6 67.18 252.89 67.92 253 68.22 253.12 68.51 253.27 68.77 253.42 69.03 253.59 69.28 253.77 69.52 253.95 69.76 254.15 69.98 254.36 70.19 254.68 70.51 255.03 70.79 255.41 71.04 255.79 71.29 256.21 71.51 256.67 71.71 257.56 72.07 258.57 72.25 259.7 72.25 260.21 72.25 260.7 72.22 261.15 72.16 261.6 72.1 262.03 72.01 262.43 71.88 262.83 71.75 263.2 71.6 263.53 71.42 264.56 70.85 265.43 70.08 266.16 69.13L266.43 68.77 266.79 69.04 269.35 71.03 269.69 71.3 269.46 71.64C269.32 71.85 269.18 72.06 269.02 72.26 268.86 72.46 268.7 72.67 268.52 72.87 268.34 73.07 268.16 73.27 267.97 73.47 267.38 74.06 266.7 74.59 265.93 75.05 265.54 75.28 265.12 75.48 264.66 75.66 264.19 75.86 263.69 76.02 263.14 76.16 262.59 76.3 262.02 76.4 261.4 76.47ZM260.37 55.64C259.92 55.56 259.42 55.52 258.88 55.52 258.59 55.52 258.32 55.54 258.05 55.57 257.79 55.6 257.53 55.65 257.28 55.71 257.03 55.77 256.79 55.84 256.54 55.91 256.4 55.97 256.27 56.03 256.13 56.09 255.99 56.15 255.86 56.22 255.72 56.29 255.58 56.37 255.46 56.44 255.34 56.52 255.22 56.6 255.1 56.68 254.98 56.78 254.86 56.88 254.75 56.97 254.64 57.06 254.35 57.32 254.09 57.6 253.86 57.92 253.63 58.24 253.41 58.59 253.21 58.98 253.06 59.3 252.92 59.64 252.8 60.02 252.69 60.38 252.6 60.77 252.53 61.17L264.73 61.17C264.67 60.49 264.54 59.82 264.35 59.16 264.29 58.93 264.21 58.72 264.1 58.5 263.99 58.29 263.88 58.08 263.75 57.88 263.62 57.68 263.48 57.48 263.33 57.3 262.88 56.77 262.29 56.34 261.56 56.01 261.21 55.84 260.81 55.72 260.36 55.64Z" fill="#BA5000"/></g><g><path d="M99.35 46.07 88.46 46.07 88.46 74.55 82.91 74.55 82.91 46.07 72.04 46.07 72.04 41.59 99.34 41.59 99.34 46.07Z" fill="#FFFFFF"/><path d="M115.17 54.81 114.65 54.72C114.56 54.71 114.47 54.69 114.39 54.67 114.31 54.66 114.22 54.64 114.14 54.64 114.06 54.64 113.98 54.62 113.9 54.62 113.82 54.62 113.75 54.6 113.67 54.59 113.37 54.58 113.03 54.57 112.65 54.57 111.29 54.57 110.2 54.85 109.37 55.41 108.56 55.94 107.94 56.66 107.51 57.58L107.51 74.56 102.42 74.56 102.42 50.07 107.4 50.07 107.4 50.52 107.45 52.01C107.95 51.44 108.51 50.95 109.15 50.56 110.18 49.93 111.41 49.61 112.86 49.61 113.19 49.61 113.56 49.65 113.97 49.72 114.09 49.74 114.19 49.75 114.28 49.77 114.36 49.79 114.44 49.8 114.52 49.83 114.6 49.86 114.67 49.88 114.74 49.9 114.81 49.92 114.87 49.95 114.93 49.98L115.18 50.12 115.18 54.83Z" fill="#FFFFFF"/><path d="M134.07 74.55 133.93 74.3C133.84 74.12 133.76 73.93 133.7 73.72 133.64 73.51 133.58 73.29 133.52 73.03 133.5 72.94 133.49 72.84 133.46 72.74 133.44 72.63 133.42 72.54 133.4 72.45 133.14 72.66 132.88 72.86 132.61 73.04 132.05 73.43 131.44 73.78 130.78 74.08 130.12 74.37 129.39 74.59 128.61 74.76 128.22 74.84 127.82 74.9 127.41 74.94 127 74.98 126.59 75.01 126.17 75.01 125.81 75.01 125.46 75 125.12 74.98 124.78 74.96 124.45 74.92 124.12 74.87 123.8 74.82 123.48 74.75 123.17 74.68 122.86 74.61 122.58 74.52 122.32 74.43 121.23 74.04 120.31 73.51 119.56 72.85 118.79 72.17 118.2 71.38 117.78 70.46 117.36 69.54 117.16 68.57 117.16 67.53 117.16 66.19 117.43 64.99 117.97 63.95 118.24 63.44 118.57 62.96 118.97 62.52 119.36 62.08 119.82 61.69 120.33 61.34 121.33 60.65 122.57 60.13 124.06 59.78 124.57 59.66 125.1 59.56 125.64 59.49 126.18 59.41 126.75 59.36 127.33 59.32 127.91 59.28 128.52 59.26 129.15 59.26L133.18 59.26 133.18 57.9C133.18 57.27 133.07 56.71 132.86 56.22 132.65 55.74 132.33 55.32 131.91 54.98 131.62 54.74 131.29 54.54 130.93 54.38 130.56 54.22 130.13 54.1 129.64 54.02 129.15 53.94 128.62 53.9 128.04 53.9 127.83 53.9 127.63 53.9 127.44 53.92 127.25 53.94 127.06 53.95 126.87 53.98 126.68 54.01 126.5 54.03 126.33 54.07 126.16 54.11 125.99 54.15 125.84 54.19 125.61 54.25 125.4 54.32 125.21 54.41 125.02 54.5 124.83 54.58 124.66 54.67 124.49 54.76 124.32 54.86 124.17 54.96 124.02 55.07 123.88 55.18 123.75 55.3 123.62 55.42 123.51 55.55 123.4 55.67 123.29 55.79 123.2 55.93 123.13 56.07 122.89 56.46 122.77 56.88 122.77 57.31L122.77 57.76 117.65 57.76 117.65 57.31C117.65 56.36 117.9 55.42 118.4 54.5 118.88 53.58 119.57 52.76 120.46 52.03 121.35 51.3 122.45 50.73 123.76 50.29 125.12 49.84 126.63 49.61 128.29 49.61 129.8 49.61 131.19 49.78 132.45 50.13 132.87 50.25 133.28 50.39 133.67 50.54 134.03 50.69 134.37 50.86 134.69 51.06 135.01 51.26 135.31 51.48 135.6 51.72 136.45 52.41 137.11 53.29 137.59 54.35 137.83 54.88 138.01 55.44 138.13 56.05 138.25 56.65 138.31 57.3 138.31 58L138.31 68.98C138.31 69.75 138.38 70.56 138.51 71.42 138.66 72.27 138.86 72.99 139.12 73.59L139.17 73.68 139.17 74.56 134.05 74.56ZM124.79 70.18C125.36 70.36 126.04 70.45 126.83 70.45 127.62 70.45 128.32 70.36 129 70.18 129.68 69.98 130.3 69.74 130.86 69.43 131.42 69.13 131.9 68.79 132.31 68.41 132.67 68.06 132.97 67.7 133.19 67.32L133.19 63.11 129.89 63.11C129.26 63.11 128.66 63.13 128.09 63.18 127.52 63.23 127 63.29 126.52 63.37 126.04 63.45 125.6 63.55 125.2 63.68 124.8 63.8 124.43 63.94 124.1 64.11 122.88 64.73 122.27 65.67 122.27 66.94 122.27 67.44 122.36 67.91 122.54 68.34 122.59 68.45 122.63 68.55 122.69 68.65 122.75 68.75 122.8 68.84 122.87 68.93 122.94 69.02 123.01 69.11 123.1 69.19 123.19 69.27 123.27 69.35 123.36 69.43 123.75 69.73 124.24 69.98 124.81 70.18Z" fill="#FFFFFF"/><path d="M148.57 50.05 148.59 50.48 148.68 52.45C149.46 51.7 150.39 51.08 151.44 50.59 152.86 49.93 154.46 49.59 156.24 49.59 156.69 49.59 157.13 49.61 157.55 49.65 157.97 49.69 158.39 49.74 158.79 49.82 159.18 49.9 159.54 49.99 159.88 50.11 160.41 50.28 160.89 50.49 161.33 50.76 161.77 51.03 162.17 51.35 162.54 51.72 162.91 52.1 163.23 52.52 163.51 52.99 163.79 53.46 164.02 53.98 164.2 54.55 164.59 55.68 164.79 57.04 164.79 58.62L164.79 74.53 159.7 74.53 159.7 58.69C159.7 57.82 159.6 57.08 159.41 56.49 159.32 56.19 159.2 55.92 159.04 55.7 158.88 55.47 158.7 55.27 158.51 55.09 158.12 54.74 157.62 54.49 157.02 54.32 156.4 54.14 155.68 54.05 154.85 54.05 154.65 54.05 154.46 54.05 154.27 54.07 154.08 54.09 153.89 54.1 153.7 54.13 153.51 54.16 153.33 54.18 153.16 54.22 152.99 54.26 152.81 54.3 152.64 54.36 152.47 54.41 152.3 54.47 152.14 54.54 151.98 54.61 151.82 54.68 151.66 54.75 151.5 54.83 151.35 54.91 151.2 55 150.69 55.32 150.23 55.69 149.82 56.11 149.43 56.52 149.1 56.98 148.82 57.49L148.82 74.53 143.73 74.53 143.73 50.04 148.57 50.04Z" fill="#FFFFFF"/><path d="M185.05 68.31C185.1 68.12 185.12 67.93 185.12 67.73 185.12 67.34 185.06 66.98 184.94 66.64 184.83 66.32 184.6 66.02 184.24 65.73 183.83 65.43 183.25 65.14 182.5 64.87 182.11 64.73 181.65 64.6 181.13 64.46 180.61 64.32 180.02 64.2 179.38 64.08 177.87 63.81 176.51 63.48 175.28 63.11 175.11 63.05 174.94 62.99 174.77 62.93 174.6 62.87 174.44 62.81 174.3 62.75 174.16 62.69 174.01 62.63 173.87 62.56 173.73 62.49 173.59 62.42 173.45 62.36 173.31 62.3 173.18 62.22 173.05 62.16 172.92 62.1 172.8 62.02 172.68 61.94 172.56 61.86 172.45 61.78 172.34 61.69 171.53 61.13 170.89 60.46 170.44 59.68 170 58.9 169.78 57.98 169.78 56.94 169.78 55.9 170.01 55 170.48 54.11 170.93 53.22 171.57 52.44 172.4 51.78 173.23 51.12 174.26 50.6 175.48 50.22 175.81 50.11 176.15 50.02 176.49 49.95 176.83 49.87 177.18 49.81 177.53 49.76 177.88 49.71 178.25 49.67 178.62 49.65 178.99 49.63 179.37 49.62 179.76 49.62 181.42 49.62 182.91 49.83 184.22 50.25 184.66 50.39 185.06 50.54 185.42 50.71 185.78 50.88 186.13 51.08 186.45 51.29 186.77 51.5 187.08 51.73 187.37 51.97 188.22 52.71 188.86 53.57 189.32 54.56 189.78 55.55 190 56.6 190 57.72L190 58.17 184.88 58.17 184.88 57.72C184.88 57.28 184.77 56.85 184.56 56.41 184.35 55.96 184.02 55.55 183.59 55.19 183.16 54.83 182.62 54.53 181.98 54.31 181.34 54.09 180.61 53.97 179.76 53.97 179.29 53.97 178.87 53.99 178.49 54.04 178.11 54.09 177.77 54.15 177.45 54.24 176.85 54.42 176.36 54.66 175.98 54.94 175.86 55.03 175.75 55.13 175.64 55.23 175.53 55.34 175.44 55.44 175.37 55.55 175.29 55.66 175.23 55.77 175.17 55.89 175 56.24 174.92 56.6 174.92 56.98 174.92 57.18 174.94 57.36 174.97 57.52 175 57.69 175.05 57.84 175.13 57.97 175.25 58.24 175.51 58.5 175.9 58.74 176.32 59 176.91 59.24 177.67 59.46 177.87 59.52 178.08 59.58 178.3 59.63 178.52 59.68 178.77 59.74 179.02 59.8 179.28 59.86 179.55 59.92 179.83 59.98 180.12 60.04 180.42 60.1 180.74 60.16 182.4 60.51 183.83 60.89 185.04 61.31 186.19 61.75 187.15 62.26 187.91 62.85 188.67 63.44 189.26 64.13 189.65 64.91 189.83 65.3 189.97 65.72 190.07 66.18 190.17 66.64 190.22 67.11 190.22 67.61 190.22 67.97 190.19 68.33 190.14 68.67 190.09 69.02 190.01 69.35 189.9 69.68 189.79 70.01 189.66 70.32 189.49 70.62 189.02 71.54 188.34 72.33 187.45 72.97 187.16 73.18 186.85 73.38 186.52 73.56 186.19 73.74 185.84 73.91 185.48 74.06 185.12 74.21 184.72 74.35 184.28 74.47 182.97 74.83 181.5 75.01 179.89 75.01 178.05 75.01 176.42 74.78 175 74.31 173.67 73.83 172.56 73.19 171.67 72.41 170.78 71.63 170.1 70.72 169.63 69.71 169.16 68.7 168.93 67.65 168.93 66.57L168.93 66.12 174 66.12 174.02 66.55C174.04 66.94 174.09 67.3 174.19 67.63 174.29 67.95 174.42 68.24 174.59 68.5 174.77 68.76 174.97 68.99 175.2 69.2 175.43 69.41 175.68 69.6 175.97 69.77 176.53 70.1 177.15 70.34 177.83 70.47 178.51 70.62 179.2 70.7 179.89 70.7 180.34 70.7 180.77 70.68 181.16 70.64 181.55 70.6 181.91 70.54 182.25 70.45 182.42 70.42 182.57 70.38 182.73 70.33 182.89 70.28 183.03 70.22 183.17 70.17 183.31 70.12 183.45 70.06 183.57 70 183.69 69.94 183.8 69.87 183.91 69.8 184.33 69.54 184.64 69.24 184.84 68.89 184.95 68.71 185.02 68.52 185.07 68.34Z" fill="#FFFFFF"/><path d="M199.97 74.55 194.88 74.55 194.88 39.78 199.97 39.78 199.97 74.55Z" fill="#FFFFFF"/><path d="M221.72 74.55 221.58 74.3C221.49 74.12 221.41 73.93 221.35 73.72 221.29 73.51 221.23 73.29 221.17 73.03 221.15 72.94 221.14 72.84 221.11 72.74 221.09 72.63 221.07 72.54 221.05 72.45 220.79 72.66 220.53 72.86 220.26 73.04 219.7 73.43 219.09 73.78 218.43 74.08 217.77 74.37 217.04 74.59 216.26 74.76 215.87 74.84 215.47 74.9 215.06 74.94 214.65 74.98 214.24 75.01 213.82 75.01 213.46 75.01 213.11 75 212.77 74.98 212.43 74.96 212.1 74.92 211.77 74.87 211.45 74.82 211.13 74.75 210.82 74.68 210.51 74.61 210.23 74.52 209.97 74.43 208.88 74.04 207.96 73.51 207.21 72.85 206.44 72.17 205.85 71.38 205.43 70.46 205.01 69.54 204.81 68.57 204.81 67.53 204.81 66.19 205.08 64.99 205.62 63.95 205.89 63.44 206.22 62.96 206.62 62.52 207.01 62.08 207.47 61.69 207.98 61.34 208.98 60.65 210.22 60.13 211.71 59.78 212.22 59.66 212.75 59.56 213.29 59.49 213.83 59.41 214.4 59.36 214.98 59.32 215.56 59.28 216.17 59.26 216.8 59.26L220.83 59.26 220.83 57.9C220.83 57.27 220.72 56.71 220.51 56.22 220.3 55.74 219.98 55.32 219.56 54.98 219.27 54.74 218.94 54.54 218.58 54.38 218.21 54.22 217.78 54.1 217.29 54.02 216.8 53.94 216.27 53.9 215.69 53.9 215.48 53.9 215.28 53.9 215.09 53.92 214.9 53.94 214.71 53.95 214.52 53.98 214.33 54.01 214.15 54.03 213.98 54.07 213.81 54.11 213.64 54.15 213.49 54.19 213.26 54.25 213.05 54.32 212.86 54.41 212.67 54.5 212.48 54.58 212.31 54.67 212.14 54.76 211.97 54.86 211.82 54.96 211.67 55.07 211.53 55.18 211.4 55.3 211.27 55.42 211.16 55.55 211.05 55.67 210.94 55.79 210.85 55.93 210.78 56.07 210.54 56.46 210.42 56.88 210.42 57.31L210.42 57.76 205.3 57.76 205.3 57.31C205.3 56.36 205.55 55.42 206.05 54.5 206.53 53.58 207.22 52.76 208.11 52.03 209 51.3 210.1 50.73 211.41 50.29 212.77 49.84 214.28 49.61 215.94 49.61 217.45 49.61 218.84 49.78 220.1 50.13 220.52 50.25 220.93 50.39 221.32 50.54 221.68 50.69 222.02 50.86 222.34 51.06 222.66 51.26 222.96 51.48 223.25 51.72 224.1 52.41 224.76 53.29 225.24 54.35 225.48 54.88 225.66 55.44 225.78 56.05 225.9 56.65 225.96 57.3 225.96 58L225.96 68.98C225.96 69.75 226.03 70.56 226.16 71.42 226.31 72.27 226.51 72.99 226.77 73.59L226.82 73.68 226.82 74.56 221.7 74.56ZM212.44 70.18C213.01 70.36 213.69 70.45 214.48 70.45 215.27 70.45 215.97 70.36 216.65 70.18 217.33 69.98 217.95 69.74 218.51 69.43 219.07 69.13 219.55 68.79 219.96 68.41 220.32 68.06 220.62 67.7 220.84 67.32L220.84 63.11 217.54 63.11C216.91 63.11 216.31 63.13 215.74 63.18 215.17 63.23 214.65 63.29 214.17 63.37 213.69 63.45 213.25 63.55 212.85 63.68 212.45 63.8 212.08 63.94 211.75 64.11 210.53 64.73 209.92 65.67 209.92 66.94 209.92 67.44 210.01 67.91 210.19 68.34 210.24 68.45 210.28 68.55 210.34 68.65 210.4 68.75 210.45 68.84 210.52 68.93 210.59 69.02 210.66 69.11 210.75 69.19 210.84 69.27 210.92 69.35 211.01 69.43 211.4 69.73 211.89 69.98 212.46 70.18Z" fill="#FFFFFF"/><path d="M237.96 44.12 237.96 50.05 242.53 50.05 242.53 54.19 237.96 54.19 237.96 68.29C237.96 68.83 238.03 69.26 238.16 69.58 238.28 69.88 238.43 70.11 238.61 70.26 238.69 70.32 238.76 70.37 238.83 70.41 238.9 70.45 238.97 70.48 239.04 70.51 239.12 70.54 239.2 70.56 239.29 70.58 239.43 70.61 239.57 70.63 239.73 70.65 239.89 70.67 240.04 70.67 240.19 70.67 240.3 70.67 240.41 70.67 240.52 70.66 240.63 70.66 240.75 70.64 240.86 70.63 240.97 70.62 241.09 70.6 241.21 70.58 241.59 70.52 241.88 70.47 242.09 70.42L242.63 70.31 242.63 74.43 242.29 74.52C242.12 74.57 241.93 74.61 241.71 74.67 241.49 74.72 241.25 74.78 240.97 74.84 240.41 74.95 239.74 75 238.96 75 238.55 75 238.16 74.97 237.77 74.91 237.38 74.85 237 74.77 236.63 74.66 235.88 74.42 235.22 74.03 234.66 73.48 234.1 72.95 233.66 72.26 233.32 71.4 233 70.54 232.84 69.5 232.84 68.28L232.84 54.2 228.38 54.2 228.38 50.06 232.84 50.06 232.84 44.13 237.93 44.13Z" fill="#FFFFFF"/><path d="M259.35 74.9C258.73 74.97 258.08 75 257.4 75 255.48 75 253.75 74.71 252.19 74.12 250.67 73.53 249.39 72.71 248.36 71.65 248.03 71.29 247.71 70.91 247.42 70.52 247.13 70.13 246.86 69.71 246.63 69.26 246.4 68.81 246.19 68.35 246.01 67.87 245.47 66.44 245.2 64.86 245.2 63.14L245.2 62.23C245.2 60.25 245.51 58.48 246.13 56.91 246.75 55.36 247.57 54.04 248.6 52.95 248.95 52.6 249.31 52.28 249.7 51.98 250.08 51.68 250.48 51.4 250.89 51.14 251.34 50.9 251.81 50.68 252.29 50.48 253.75 49.89 255.27 49.6 256.84 49.6 257.82 49.6 258.74 49.68 259.6 49.85 260.46 50 261.25 50.23 261.98 50.53 262.43 50.74 262.86 50.98 263.25 51.24 263.64 51.5 264.01 51.79 264.35 52.1 264.69 52.41 265 52.74 265.29 53.11 266.15 54.2 266.78 55.48 267.19 56.96 267.4 57.68 267.56 58.44 267.65 59.24 267.74 60.04 267.8 60.85 267.8 61.7L267.8 63.96 250.33 63.96C250.39 64.82 250.56 65.62 250.85 66.36 250.96 66.66 251.08 66.95 251.23 67.21 251.38 67.47 251.55 67.72 251.73 67.96 251.91 68.2 252.11 68.42 252.32 68.63 252.64 68.95 252.99 69.23 253.37 69.48 253.75 69.73 254.17 69.95 254.63 70.15 255.52 70.51 256.53 70.69 257.66 70.69 258.17 70.69 258.66 70.66 259.11 70.6 259.56 70.54 259.99 70.45 260.39 70.32 260.79 70.19 261.16 70.04 261.49 69.86 262.52 69.29 263.39 68.52 264.12 67.57L264.39 67.21 264.75 67.48 267.31 69.47 267.65 69.74 267.42 70.08C267.28 70.29 267.14 70.5 266.98 70.7 266.82 70.9 266.66 71.11 266.48 71.31 266.3 71.51 266.12 71.71 265.93 71.91 265.34 72.5 264.66 73.03 263.89 73.49 263.5 73.72 263.08 73.92 262.62 74.1 262.15 74.3 261.65 74.46 261.1 74.6 260.55 74.74 259.98 74.84 259.36 74.91ZM258.33 54.08C257.88 54 257.38 53.96 256.84 53.96 256.55 53.96 256.28 53.98 256.01 54.01 255.75 54.04 255.49 54.09 255.24 54.15 254.99 54.21 254.75 54.28 254.5 54.35 254.36 54.41 254.23 54.47 254.09 54.53 253.95 54.59 253.82 54.66 253.68 54.73 253.54 54.81 253.42 54.88 253.3 54.96 253.18 55.04 253.06 55.12 252.94 55.22 252.82 55.32 252.71 55.41 252.6 55.5 252.31 55.76 252.05 56.04 251.82 56.36 251.59 56.68 251.37 57.03 251.17 57.42 251.02 57.74 250.88 58.08 250.76 58.46 250.65 58.82 250.56 59.21 250.49 59.61L262.69 59.61C262.63 58.93 262.5 58.26 262.31 57.6 262.25 57.37 262.17 57.16 262.06 56.94 261.95 56.73 261.84 56.52 261.71 56.32 261.58 56.12 261.44 55.92 261.29 55.74 260.84 55.21 260.25 54.78 259.52 54.45 259.17 54.28 258.77 54.16 258.32 54.08Z" fill="#FFFFFF"/></g></g></svg>