<svg viewBox="0 0 32.87 41.22" xmlns="http://www.w3.org/2000/svg" xmlns:xlink="http://www.w3.org/1999/xlink" id="Layer_1" overflow="hidden"><path d="M0 28.39 10.43 27.1C11.11 30.75 13.07 32.58 16.29 32.58 17.75 32.58 18.95 32.2 19.86 31.44 20.78 30.68 21.24 29.65 21.24 28.36 21.24 27.5 20.99 26.74 20.49 26.09 19.99 25.44 19.46 24.98 18.89 24.71 18.32 24.45 17.35 24.31 15.96 24.31L11.1 24.31 11.1 15.97 15.2 15.97C17.39 15.97 18.79 15.58 19.42 14.8 20.04 14.02 20.36 13.21 20.36 12.37 20.36 11.32 19.97 10.44 19.19 9.73 18.41 9.03 17.38 8.68 16.11 8.68 13.38 8.68 11.71 10.2 11.1 13.25L1.44 11.72C2.32 7.97 4.18 5.08 7.02 3.05 9.86 1.02 13.22 0 17.11 0 21.49 0 25 1.03 27.66 3.08 30.32 5.13 31.64 7.87 31.64 11.28 31.64 13.33 31.08 15.12 29.96 16.64 28.84 18.16 27.41 19.19 25.67 19.72 30.47 21.18 32.88 24.32 32.88 29.12 32.88 32.95 31.42 35.92 28.5 38.04 25.58 40.16 21.8 41.22 17.15 41.22 7.81 41.22 2.1 36.94 0.01 28.39Z" fill="#FF6600"/></svg>