<svg viewBox="0 0 30.91 40.61" xmlns="http://www.w3.org/2000/svg" xmlns:xlink="http://www.w3.org/1999/xlink" id="Layer_1" overflow="hidden"><path d="M30.91 30.79 30.47 40.6 0 40.6 0 31.4 6.81 26.62C7.81 25.94 9.67 24.47 12.4 22.21 15.13 19.95 16.91 18.22 17.74 17.01 18.57 15.8 18.99 14.53 18.99 13.2 18.99 11.87 18.63 10.91 17.9 10.14 17.18 9.37 16.22 8.98 15.05 8.98 12.11 8.98 10.46 11.28 10.11 15.89L0 13.95C0.74 9.24 2.58 5.74 5.52 3.44 8.46 1.15 11.93 0 15.94 0 20.28 0 23.82 1.16 26.56 3.49 29.3 5.81 30.68 8.91 30.68 12.78 30.68 15.36 29.93 17.81 28.44 20.13 26.95 22.45 22.58 26.01 15.33 30.79L30.92 30.79Z" fill="#FF6600"/></svg>