<svg viewBox="0 0 380 123.12" xmlns="http://www.w3.org/2000/svg" xmlns:xlink="http://www.w3.org/1999/xlink" id="Layer_1" overflow="hidden"><defs><linearGradient x1="3.73" y1="58.24" x2="380" y2="58.24" gradientUnits="userSpaceOnUse" id="linear-gradient"><stop offset="0" stop-color="#FFD776"/><stop offset="0.03" stop-color="#FCC077"/><stop offset="0.12" stop-color="#F68B7B"/><stop offset="0.21" stop-color="#F2617E"/><stop offset="0.29" stop-color="#EE4380"/><stop offset="0.35" stop-color="#EC3181"/><stop offset="0.4" stop-color="#EC2B82"/><stop offset="0.68" stop-color="#9F4395"/><stop offset="0.89" stop-color="#6A55A2"/><stop offset="1" stop-color="#565CA8"/></linearGradient></defs><rect x="0" y="6.65" rx="54.66" ry="54.66" width="376.27" height="116.47" fill="#231F20" opacity="0.56"/><rect x="3.73" y="0" rx="54.66" ry="54.66" width="376.27" height="116.47" fill="url(#linear-gradient)"/><path d="M267.06 3.71C213.41 6.71 82.35 12.35 54.11 41.82 35.98 60.75 32.63 83.1 38.05 108.53 18.29 100.06 12.01 83.58 9.46 76.06 6.49 67.3 1.64 30.48 28.35 13.06 42.84 3.61 53.06 4.24 53.06 4.24 53.06 4.24 222.41 3.71 267.06 3.71Z" fill="#FFF9FB" opacity="0.33"/><g><path d="M69.09 35.03C77.73 35.03 78.75 35.06 82.17 35.22 85.33 35.36 87.04 35.89 88.18 36.33 89.69 36.92 90.77 37.62 91.9 38.75 93.03 39.88 93.73 40.96 94.32 42.47 94.76 43.61 95.29 45.32 95.43 48.48 95.59 51.89 95.62 52.92 95.62 61.56 95.62 70.2 95.59 71.22 95.43 74.64 95.29 77.8 94.76 79.51 94.32 80.65 93.73 82.16 93.03 83.24 91.9 84.37 90.77 85.5 89.69 86.2 88.18 86.79 87.04 87.23 85.33 87.76 82.17 87.9 78.76 88.06 77.73 88.09 69.09 88.09 60.45 88.09 59.43 88.06 56.01 87.9 52.85 87.76 51.14 87.23 50 86.79 48.49 86.2 47.41 85.5 46.28 84.37 45.15 83.24 44.45 82.16 43.86 80.65 43.42 79.51 42.89 77.8 42.75 74.64 42.59 71.23 42.56 70.2 42.56 61.56 42.56 52.92 42.59 51.9 42.75 48.48 42.89 45.32 43.42 43.61 43.86 42.47 44.45 40.96 45.15 39.88 46.28 38.75 47.41 37.62 48.49 36.92 50 36.33 51.14 35.89 52.85 35.36 56.01 35.22 59.42 35.06 60.45 35.03 69.09 35.03M69.09 29.2C60.3 29.2 59.2 29.24 55.75 29.39 52.31 29.55 49.95 30.09 47.89 30.89 45.76 31.72 43.96 32.82 42.16 34.62 40.36 36.42 39.25 38.22 38.43 40.35 37.63 42.41 37.08 44.76 36.93 48.21 36.77 51.66 36.74 52.76 36.74 61.55 36.74 70.34 36.78 71.44 36.93 74.89 37.09 78.33 37.63 80.69 38.43 82.75 39.26 84.88 40.36 86.68 42.16 88.48 43.96 90.28 45.76 91.39 47.89 92.21 49.95 93.01 52.3 93.56 55.75 93.71 59.2 93.87 60.3 93.9 69.09 93.9 77.88 93.9 78.98 93.86 82.43 93.71 85.87 93.55 88.23 93.01 90.29 92.21 92.42 91.38 94.22 90.28 96.02 88.48 97.82 86.68 98.93 84.88 99.75 82.75 100.55 80.69 101.1 78.34 101.25 74.89 101.41 71.44 101.44 70.34 101.44 61.55 101.44 52.76 101.4 51.66 101.25 48.21 101.09 44.77 100.55 42.41 99.75 40.35 98.92 38.22 97.82 36.42 96.02 34.62 94.22 32.82 92.42 31.71 90.29 30.89 88.23 30.09 85.88 29.54 82.43 29.39 78.98 29.23 77.88 29.2 69.09 29.2L69.09 29.2Z" fill="#FFFFFF"/><path d="M69.09 44.94C59.91 44.94 52.47 52.38 52.47 61.56 52.47 70.74 59.91 78.18 69.09 78.18 78.27 78.18 85.71 70.74 85.71 61.56 85.71 52.38 78.27 44.94 69.09 44.94ZM69.09 72.34C63.13 72.34 58.3 67.51 58.3 61.55 58.3 55.59 63.13 50.76 69.09 50.76 75.05 50.76 79.88 55.59 79.88 61.55 79.88 67.51 75.05 72.34 69.09 72.34Z" fill="#FFFFFF"/><circle cx="86.36" cy="44.28" r="3.88" fill="#FFFFFF"/></g><g><path d="M119.47 62.27C119.56 64.14 119.91 65.41 120.52 66.09 121.14 66.78 122 67.12 123.09 67.12 123.9 67.12 124.59 66.93 125.18 66.56 125.77 66.19 126.17 65.69 126.39 65.06 126.61 64.4 126.72 63.38 126.72 62.01L126.72 45.24 129.94 45.24 129.94 61.82C129.94 63.87 129.69 65.44 129.19 66.55 128.7 67.68 127.92 68.53 126.85 69.11 125.78 69.7 124.53 69.99 123.1 69.99 120.96 69.99 119.33 69.38 118.19 68.15 117.06 66.92 116.51 65.1 116.55 62.67L119.46 62.27Z" fill="#FFFFFF"/><path d="M144.71 67.4C143.59 68.35 142.52 69.02 141.51 69.39 140.48 69.78 139.39 69.97 138.22 69.97 136.28 69.97 134.79 69.5 133.75 68.56 132.71 67.62 132.19 66.41 132.19 64.92 132.19 64.26 132.3 63.65 132.53 63.09 132.76 62.54 133.06 62.04 133.45 61.61 133.84 61.18 134.29 60.81 134.81 60.51 135.33 60.21 135.88 59.99 136.47 59.85 137.05 59.71 137.93 59.56 139.13 59.4 141.51 59.12 143.29 58.78 144.46 58.37 144.47 58.16 144.48 57.99 144.48 57.86L144.48 57.59C144.48 56.37 144.2 55.51 143.63 55.02 142.88 54.35 141.74 54.01 140.23 54.01 138.82 54.01 137.78 54.26 137.11 54.76 136.45 55.25 135.95 56.12 135.63 57.37L132.71 56.97C132.98 55.72 133.41 54.71 134.02 53.94 134.63 53.17 135.51 52.58 136.66 52.17 137.82 51.75 139.16 51.54 140.66 51.54 142.16 51.54 143.39 51.72 144.33 52.07 145.27 52.42 145.96 52.87 146.41 53.41 146.84 53.92 147.15 54.59 147.34 55.44 147.44 55.96 147.49 56.88 147.49 58.2L147.49 62.18C147.49 63.57 147.51 64.71 147.54 65.58 147.57 66.45 147.62 67.08 147.67 67.46 147.8 68.2 148.06 68.9 148.43 69.57L145.31 69.57C145 68.96 144.8 68.24 144.71 67.4ZM144.46 60.73C143.92 60.95 143.24 61.16 142.43 61.34 141.62 61.53 140.67 61.7 139.57 61.85 138.35 62.03 137.48 62.23 136.96 62.45 136.46 62.66 136.07 62.99 135.78 63.43 135.5 63.84 135.36 64.31 135.36 64.84 135.36 65.24 135.43 65.61 135.58 65.95 135.73 66.29 135.95 66.59 136.25 66.84 136.55 67.09 136.92 67.28 137.36 67.42 137.8 67.56 138.32 67.63 138.9 67.63 139.48 67.63 140.02 67.56 140.54 67.43 141.06 67.3 141.54 67.11 141.97 66.87 142.4 66.63 142.79 66.33 143.12 65.98 143.46 65.63 143.73 65.24 143.94 64.81 144.26 64.11 144.42 63.12 144.42 61.82L144.42 60.72Z" fill="#FFFFFF"/><path d="M151.14 69.58 151.14 51.95 153.81 51.95 153.81 54.42C154.37 53.56 155.11 52.86 156.03 52.34 156.94 51.81 157.99 51.55 159.16 51.55 160.47 51.55 161.54 51.82 162.37 52.36 163.21 52.9 163.79 53.66 164.14 54.63 165.53 52.57 167.35 51.54 169.59 51.54 171.35 51.54 172.7 52.02 173.63 52.98 174.57 53.94 175.03 55.44 175.03 57.46L175.03 69.56 172.06 69.56 172.06 58.45C172.06 57.25 171.96 56.4 171.76 55.88 171.57 55.34 171.22 54.91 170.71 54.6 170.19 54.28 169.59 54.12 168.92 54.12 167.67 54.12 166.64 54.54 165.83 55.37 165.01 56.19 164.6 57.51 164.6 59.32L164.6 69.56 161.61 69.56 161.61 58.1C161.61 56.76 161.37 55.76 160.88 55.1 160.39 54.44 159.6 54.11 158.49 54.11 157.64 54.11 156.86 54.33 156.15 54.77 155.43 55.22 154.92 55.87 154.61 56.71 154.29 57.57 154.13 58.8 154.13 60.4L154.13 69.55 151.14 69.55Z" fill="#FFFFFF"/><path d="M189.5 69.58 189.5 67.36C188.38 69.11 186.74 69.98 184.57 69.98 183.15 69.98 181.86 69.59 180.69 68.82 179.51 68.05 178.59 66.97 177.95 65.58 177.31 64.2 176.99 62.6 176.99 60.78 176.99 58.96 177.28 57.44 177.87 56 178.45 54.56 179.33 53.46 180.51 52.7 181.68 51.94 182.99 51.55 184.44 51.55 185.51 51.55 186.46 51.77 187.28 52.21 188.1 52.65 188.77 53.24 189.31 53.97L189.31 45.24 192.28 45.24 192.28 69.58 189.51 69.58ZM180.05 60.78C180.05 63.04 180.53 64.73 181.48 65.84 182.43 66.96 183.56 67.52 184.85 67.52 186.14 67.52 187.25 66.99 188.17 65.93 189.09 64.85 189.55 63.21 189.55 61.03 189.55 58.62 189.09 56.85 188.16 55.72 187.23 54.59 186.08 54.03 184.72 54.03 183.36 54.03 182.28 54.57 181.38 55.66 180.49 56.74 180.05 58.45 180.05 60.79Z" fill="#FFFFFF"/><path d="M195.28 48.68 195.28 45.24 198.27 45.24 198.27 48.68 195.28 48.68ZM195.28 69.58 195.28 51.95 198.27 51.95 198.27 69.58 195.28 69.58Z" fill="#FFFFFF"/><path d="M201.75 76.33 201.75 51.94 204.47 51.94 204.47 54.23C205.11 53.33 205.84 52.66 206.64 52.21 207.45 51.76 208.43 51.54 209.58 51.54 211.1 51.54 212.42 51.92 213.56 52.69 214.7 53.46 215.57 54.56 216.17 55.99 216.76 57.42 217.05 58.96 217.05 60.62 217.05 62.41 216.72 64.04 216.07 65.5 215.43 66.94 214.49 68.05 213.25 68.82 212.02 69.58 210.73 69.97 209.37 69.97 208.36 69.97 207.47 69.76 206.68 69.34 205.89 68.92 205.25 68.39 204.74 67.75L204.74 76.33 201.75 76.33ZM204.46 60.86C204.46 63.13 204.92 64.81 205.84 65.89 206.76 66.97 207.87 67.52 209.18 67.52 210.49 67.52 211.63 66.96 212.58 65.84 213.53 64.7 214.01 62.96 214.01 60.61 214.01 58.26 213.55 56.68 212.62 55.56 211.7 54.44 210.6 53.88 209.32 53.88 208.04 53.88 206.91 54.48 205.93 55.67 204.96 56.84 204.47 58.57 204.47 60.85Z" fill="#FFFFFF"/><path d="M231.87 69.58 231.87 52.4 234.14 52.4 234.14 69.58 231.87 69.58Z" fill="#FFFFFF"/><path d="M236.64 69.58 236.64 57.13 238.54 57.13 238.54 58.9C239.45 57.53 240.77 56.85 242.5 56.85 243.24 56.85 243.93 56.99 244.56 57.26 245.18 57.53 245.66 57.88 245.98 58.31 246.14 58.53 246.27 58.77 246.38 59.03 246.49 59.29 246.58 59.57 246.64 59.87 246.68 60.07 246.71 60.33 246.73 60.67 246.75 61.01 246.76 61.43 246.76 61.92L246.76 69.57 244.65 69.57 244.65 62C244.65 61.14 244.57 60.5 244.4 60.08 244.24 59.65 243.94 59.31 243.52 59.06 243.11 58.8 242.62 58.67 242.06 58.67 241.15 58.67 240.38 58.96 239.73 59.53 239.08 60.11 238.76 61.19 238.76 62.78L238.76 69.58 236.65 69.58Z" fill="#FFFFFF"/><path d="M249.84 65.53C249.96 66.37 250.28 67.02 250.81 67.46 251.34 67.9 252.09 68.12 253.06 68.12 254.03 68.12 254.74 67.92 255.22 67.53 255.69 67.13 255.92 66.67 255.92 66.14 255.92 65.66 255.71 65.29 255.3 65.02 255.01 64.84 254.29 64.6 253.14 64.31 251.6 63.93 250.53 63.59 249.92 63.3 249.33 63.01 248.87 62.62 248.56 62.12 248.26 61.62 248.1 61.06 248.1 60.44 248.1 59.88 248.22 59.36 248.48 58.89 248.74 58.42 249.08 58.03 249.52 57.72 249.68 57.6 249.88 57.49 250.11 57.39 250.34 57.29 250.59 57.19 250.86 57.11 251.13 57.03 251.42 56.97 251.73 56.92 252.04 56.87 252.36 56.85 252.69 56.85 253.67 56.85 254.53 56.99 255.27 57.27 256.01 57.55 256.55 57.93 256.9 58.42 257.26 58.91 257.5 59.55 257.63 60.34L255.57 60.62C255.48 59.98 255.21 59.48 254.76 59.12 254.31 58.76 253.68 58.58 252.85 58.58 251.88 58.58 251.19 58.74 250.78 59.06 250.37 59.38 250.16 59.76 250.16 60.18 250.16 60.45 250.25 60.7 250.42 60.92 250.59 61.15 250.86 61.33 251.23 61.48 251.34 61.52 251.55 61.58 251.86 61.67 252.17 61.76 252.58 61.88 253.1 62.02 254.6 62.42 255.64 62.75 256.22 63 256.8 63.24 257.26 63.61 257.61 64.1 257.95 64.58 258.11 65.18 258.11 65.9 258.11 66.62 257.9 67.27 257.49 67.89 257.08 68.51 256.49 69 255.72 69.33 254.95 69.66 254.08 69.83 253.1 69.83 251.48 69.83 250.25 69.49 249.4 68.82 248.55 68.15 248.01 67.15 247.78 65.83L249.87 65.5Z" fill="#FFFFFF"/><path d="M264.46 69.55C263.88 69.67 263.35 69.74 262.87 69.74 262.1 69.74 261.51 69.62 261.09 69.38 260.67 69.14 260.37 68.82 260.2 68.43 260.03 68.04 259.94 67.21 259.94 65.93L259.94 58.77 258.39 58.77 258.39 57.13 259.94 57.13 259.94 54.05 262.04 52.78 262.04 57.13 264.16 57.13 264.16 58.77 262.04 58.77 262.04 66.05C262.04 66.65 262.08 67.04 262.15 67.21 262.23 67.38 262.35 67.52 262.51 67.62 262.68 67.72 262.92 67.77 263.24 67.77 263.36 67.77 263.49 67.77 263.64 67.75 263.79 67.73 263.97 67.72 264.16 67.69L264.46 69.55Z" fill="#FFFFFF"/><path d="M274.18 68.04C273.39 68.71 272.64 69.18 271.92 69.45 271.19 69.72 270.42 69.86 269.6 69.86 268.23 69.86 267.18 69.53 266.45 68.86 265.72 68.19 265.35 67.34 265.35 66.29 265.35 65.82 265.43 65.39 265.59 65 265.75 64.61 265.97 64.26 266.24 63.96 266.51 63.66 266.83 63.4 267.2 63.19 267.57 62.98 267.96 62.82 268.37 62.72 268.78 62.62 269.4 62.51 270.25 62.4 271.93 62.2 273.18 61.96 274.01 61.67 274.01 61.52 274.02 61.4 274.02 61.31L274.02 61.12C274.02 60.26 273.82 59.66 273.42 59.3 272.89 58.82 272.09 58.59 271.02 58.59 270.03 58.59 269.29 58.77 268.82 59.12 268.35 59.46 268 60.08 267.78 60.96L265.72 60.68C265.91 59.8 266.22 59.08 266.65 58.54 267.08 58 267.7 57.58 268.51 57.29 269.33 56.99 270.27 56.84 271.33 56.84 272.39 56.84 273.26 56.96 273.92 57.22 274.58 57.48 275.07 57.79 275.38 58.17 275.68 58.53 275.9 59.01 276.04 59.6 276.11 59.97 276.15 60.62 276.15 61.55L276.15 64.36C276.15 65.34 276.16 66.15 276.19 66.76 276.22 67.37 276.24 67.82 276.28 68.08 276.37 68.6 276.55 69.1 276.82 69.57L274.62 69.57C274.4 69.14 274.26 68.63 274.2 68.03ZM274 63.33C273.62 63.49 273.14 63.63 272.57 63.76 272 63.89 271.33 64.01 270.55 64.12 269.69 64.24 269.08 64.39 268.71 64.54 268.36 64.69 268.08 64.92 267.88 65.23 267.68 65.52 267.59 65.85 267.59 66.23 267.59 66.51 267.64 66.77 267.75 67.02 267.86 67.27 268.01 67.47 268.22 67.65 268.43 67.83 268.69 67.96 269.01 68.06 269.33 68.16 269.69 68.21 270.1 68.21 270.51 68.21 270.89 68.16 271.26 68.07 271.63 67.98 271.96 67.84 272.27 67.67 272.58 67.5 272.85 67.29 273.08 67.04 273.31 66.79 273.51 66.52 273.66 66.21 273.89 65.72 274 65.01 274 64.1L274 63.33Z" fill="#FFFFFF"/><path d="M280.2 70.91C280.28 71.53 280.52 72 280.91 72.29 281.44 72.68 282.16 72.88 283.05 72.88 284.03 72.88 284.78 72.68 285.31 72.29 285.84 71.9 286.2 71.35 286.39 70.65 286.44 70.43 286.49 70.1 286.51 69.65 286.53 69.2 286.55 68.63 286.54 67.94 285.62 69.03 284.47 69.57 283.09 69.57 281.38 69.57 280.05 68.95 279.12 67.72 278.18 66.49 277.71 65.01 277.71 63.28 277.71 62.08 277.92 60.98 278.35 60 278.78 59 279.4 58.22 280.21 57.67 281.02 57.12 281.98 56.85 283.09 56.85 284.56 56.85 285.77 57.44 286.72 58.63L286.72 57.13 288.67 57.13 288.67 67.89C288.67 69.83 288.47 71.2 288.07 72 287.69 72.8 287.06 73.45 286.19 73.92 285.33 74.39 284.28 74.62 283.04 74.62 281.56 74.62 280.36 74.28 279.44 73.61 278.53 72.94 278.08 71.93 278.12 70.6L280.17 70.9ZM279.9 63.13C279.9 64.75 280.22 65.95 280.87 66.7 281.51 67.45 282.32 67.82 283.31 67.82 284.3 67.82 285.09 67.45 285.75 66.71 286.41 65.96 286.73 64.79 286.73 63.19 286.73 61.59 286.39 60.52 285.71 59.74 285.04 58.97 284.23 58.58 283.27 58.58 282.31 58.58 281.54 58.96 280.88 59.73 280.22 60.5 279.9 61.62 279.9 63.12Z" fill="#FFFFFF"/><path d="M291.03 69.58 291.03 57.13 292.93 57.13 292.93 59.02C293.41 58.14 293.86 57.56 294.27 57.27 294.68 56.98 295.13 56.85 295.63 56.85 296.34 56.85 297.06 57.08 297.8 57.53L297.07 59.49C296.55 59.19 296.04 59.03 295.52 59.03 295.05 59.03 294.64 59.17 294.27 59.45 293.9 59.73 293.65 60.11 293.49 60.6 293.26 61.35 293.14 62.17 293.14 63.06L293.14 69.58 291.03 69.58Z" fill="#FFFFFF"/><path d="M307.86 68.04C307.07 68.71 306.32 69.18 305.6 69.45 304.87 69.72 304.1 69.86 303.28 69.86 301.91 69.86 300.86 69.53 300.13 68.86 299.4 68.19 299.03 67.34 299.03 66.29 299.03 65.82 299.11 65.39 299.27 65 299.43 64.61 299.65 64.26 299.92 63.96 300.19 63.66 300.51 63.4 300.88 63.19 301.25 62.98 301.64 62.82 302.05 62.72 302.46 62.62 303.08 62.51 303.93 62.4 305.61 62.2 306.86 61.96 307.69 61.67 307.69 61.52 307.7 61.4 307.7 61.31L307.7 61.12C307.7 60.26 307.5 59.66 307.1 59.3 306.57 58.82 305.77 58.59 304.7 58.59 303.71 58.59 302.97 58.77 302.5 59.12 302.03 59.46 301.68 60.08 301.46 60.96L299.4 60.68C299.59 59.8 299.9 59.08 300.33 58.54 300.76 58 301.38 57.58 302.19 57.29 303.01 56.99 303.95 56.84 305.01 56.84 306.07 56.84 306.94 56.96 307.6 57.22 308.26 57.48 308.75 57.79 309.06 58.17 309.36 58.53 309.58 59.01 309.72 59.6 309.79 59.97 309.83 60.62 309.83 61.55L309.83 64.36C309.83 65.34 309.84 66.15 309.87 66.76 309.9 67.37 309.92 67.82 309.96 68.08 310.05 68.6 310.23 69.1 310.5 69.57L308.3 69.57C308.08 69.14 307.94 68.63 307.88 68.03ZM307.68 63.33C307.3 63.49 306.82 63.63 306.25 63.76 305.68 63.89 305.01 64.01 304.23 64.12 303.37 64.24 302.76 64.39 302.39 64.54 302.04 64.69 301.76 64.92 301.56 65.23 301.36 65.52 301.27 65.85 301.27 66.23 301.27 66.51 301.32 66.77 301.43 67.02 301.54 67.27 301.69 67.47 301.9 67.65 302.11 67.83 302.37 67.96 302.69 68.06 303.01 68.16 303.37 68.21 303.78 68.21 304.19 68.21 304.57 68.16 304.94 68.07 305.31 67.98 305.64 67.84 305.95 67.67 306.26 67.5 306.53 67.29 306.76 67.04 306.99 66.79 307.19 66.52 307.34 66.21 307.57 65.72 307.68 65.01 307.68 64.1L307.68 63.33Z" fill="#FFFFFF"/><path d="M312.22 69.58 312.22 57.13 314.11 57.13 314.11 58.88C314.51 58.27 315.03 57.78 315.67 57.41 316.31 57.04 317.05 56.85 317.88 56.85 318.8 56.85 319.56 57.04 320.15 57.42 320.74 57.8 321.16 58.34 321.4 59.03 322.38 57.58 323.67 56.85 325.24 56.85 326.48 56.85 327.43 57.19 328.09 57.87 328.75 58.55 329.08 59.6 329.08 61.03L329.08 69.57 326.98 69.57 326.98 61.73C326.98 60.89 326.91 60.28 326.77 59.91 326.64 59.53 326.39 59.23 326.03 59.01 325.66 58.78 325.24 58.67 324.76 58.67 323.88 58.67 323.15 58.96 322.58 59.55 322 60.13 321.71 61.06 321.71 62.34L321.71 69.57 319.6 69.57 319.6 61.48C319.6 60.53 319.43 59.83 319.08 59.36 318.73 58.89 318.17 58.66 317.39 58.66 316.79 58.66 316.24 58.82 315.74 59.13 315.23 59.45 314.87 59.91 314.65 60.5 314.42 61.11 314.31 61.98 314.31 63.1L314.31 69.56 312.2 69.56Z" fill="#FFFFFF"/></g></svg>