<svg viewBox="0 0 388.15 124.12" xmlns="http://www.w3.org/2000/svg" xmlns:xlink="http://www.w3.org/1999/xlink" id="Layer_1" overflow="hidden"><defs><linearGradient x1="55.11" y1="-44.59" x2="216.96" y2="122.9" gradientUnits="userSpaceOnUse" id="linear-gradient"><stop offset="0" stop-color="#FFFFFF"/><stop offset="0.14" stop-color="#FAD8C0"/><stop offset="0.39" stop-color="#F2934F"/><stop offset="0.51" stop-color="#EF7823"/></linearGradient></defs><rect x="0" y="7.65" rx="54.66" ry="54.66" width="383.42" height="116.47" fill="#231F20" opacity="0.56"/><rect x="3.73" y="1" rx="54.66" ry="54.66" width="383.42" height="116.47" stroke="#9A2B20" stroke-width="2" stroke-miterlimit="10" fill="#EF7823"/><path d="M274.2 4.71C220.56 7.71 82.35 13.35 54.11 42.82 35.98 61.75 32.63 84.1 38.05 109.53 18.29 101.06 12.01 84.58 9.46 77.06 6.49 68.3 1.64 31.48 28.35 14.06 42.84 4.61 53.06 5.24 53.06 5.24 53.06 5.24 229.56 4.71 274.21 4.71Z" fill="url(#linear-gradient)" opacity="0.78"/><g><path d="M134.82 61.62C134.95 62.69 135.24 63.58 135.71 64.26 136.18 64.94 136.89 65.51 137.87 65.94 138.84 66.36 139.94 66.57 141.17 66.57 142 66.57 142.75 66.49 143.41 66.3 144.07 66.11 144.64 65.85 145.11 65.51 145.58 65.17 145.93 64.78 146.17 64.34 146.41 63.9 146.52 63.42 146.5 62.93 146.5 62.26 146.31 61.67 145.92 61.17 145.53 60.67 144.89 60.24 143.98 59.9 143.7 59.79 143.24 59.65 142.6 59.48 141.96 59.31 141.15 59.1 140.15 58.86 139.15 58.62 138.31 58.38 137.63 58.16 136.95 57.94 136.4 57.72 136 57.51 134.96 56.97 134.2 56.31 133.7 55.52 133.2 54.73 132.95 53.84 132.95 52.84 132.95 51.76 133.26 50.75 133.87 49.81 134.49 48.85 135.38 48.14 136.57 47.66 137.77 47.17 139.08 46.93 140.51 46.93 142.1 46.93 143.51 47.19 144.72 47.7 145.93 48.21 146.87 48.97 147.53 49.96 148.19 50.95 148.54 52.08 148.58 53.34L145.86 53.55C145.71 52.19 145.22 51.17 144.37 50.47 143.52 49.77 142.28 49.43 140.63 49.43 138.98 49.43 137.67 49.75 136.87 50.38 136.09 51.01 135.7 51.77 135.7 52.65 135.7 53.42 135.98 54.06 136.53 54.55 137.07 55.05 138.49 55.56 140.81 56.09 143.11 56.6 144.7 57.05 145.57 57.45 146.83 58.04 147.76 58.77 148.35 59.65 148.94 60.53 149.24 61.54 149.24 62.7 149.24 63.86 148.91 64.93 148.26 65.94 147.61 66.94 146.66 67.72 145.43 68.3 144.21 68.86 142.83 69.13 141.3 69.13 139.35 69.13 137.72 68.85 136.41 68.29 135.1 67.73 134.07 66.88 133.31 65.73 132.58 64.61 132.19 63.32 132.14 61.86L134.82 61.63Z" fill="#FFFFFF"/><path d="M164.88 64.08C164.44 65.68 163.64 66.92 162.49 67.79 161.34 68.66 159.85 69.1 158.04 69.1 155.76 69.1 153.96 68.4 152.62 67.01 151.29 65.61 150.63 63.65 150.63 61.11 150.63 58.57 151.3 56.47 152.65 55.02 154 53.57 155.75 52.85 157.89 52.85 160.03 52.85 161.67 53.56 162.99 54.97 164.31 56.4 164.97 58.39 164.97 60.95L164.97 61.24C164.97 61.36 164.97 61.49 164.96 61.65L153.36 61.65C153.46 63.36 153.94 64.67 154.81 65.58 155.67 66.49 156.75 66.94 158.06 66.94 159.03 66.94 159.85 66.69 160.54 66.18 161.23 65.67 161.77 64.86 162.17 63.75L164.89 64.09ZM162.18 59.48C162.06 58.18 161.73 57.2 161.18 56.54 160.34 55.52 159.25 55.02 157.91 55.02 156.71 55.02 155.69 55.43 154.85 56.24 154.03 57.05 153.58 58.13 153.49 59.49L162.18 59.49Z" fill="#FFFFFF"/><path d="M180.72 64.08C180.28 65.68 179.48 66.92 178.33 67.79 177.18 68.66 175.69 69.1 173.88 69.1 171.6 69.1 169.8 68.4 168.46 67.01 167.13 65.61 166.47 63.65 166.47 61.11 166.47 58.57 167.14 56.47 168.49 55.02 169.84 53.57 171.59 52.85 173.73 52.85 175.87 52.85 177.51 53.56 178.83 54.97 180.15 56.4 180.81 58.39 180.81 60.95L180.81 61.24C180.81 61.36 180.81 61.49 180.8 61.65L169.2 61.65C169.3 63.36 169.78 64.67 170.65 65.58 171.51 66.49 172.59 66.94 173.9 66.94 174.87 66.94 175.69 66.69 176.38 66.18 177.07 65.67 177.61 64.86 178.01 63.75L180.73 64.09ZM178.02 59.48C177.9 58.18 177.57 57.2 177.02 56.54 176.18 55.52 175.09 55.02 173.75 55.02 172.55 55.02 171.53 55.43 170.69 56.24 169.87 57.05 169.42 58.13 169.33 59.49L178.02 59.49Z" fill="#FFFFFF"/><path d="M192.76 60.98C192.76 58.11 193.56 55.98 195.16 54.58 196.49 53.43 198.12 52.85 200.05 52.85 202.18 52.85 203.93 53.55 205.29 54.96 206.65 56.35 207.33 58.28 207.33 60.76 207.33 62.75 207.03 64.33 206.42 65.49 205.81 66.64 204.94 67.53 203.8 68.16 202.65 68.79 201.4 69.11 200.05 69.11 197.87 69.11 196.11 68.41 194.76 67.02 193.42 65.62 192.75 63.61 192.75 60.98ZM195.47 60.98C195.47 62.96 195.9 64.46 196.77 65.46 197.64 66.45 198.73 66.94 200.05 66.94 201.37 66.94 202.45 66.44 203.32 65.45 204.19 64.44 204.62 62.93 204.62 60.89 204.62 58.97 204.18 57.51 203.3 56.52 202.43 55.52 201.35 55.03 200.05 55.03 198.75 55.03 197.64 55.52 196.77 56.51 195.9 57.5 195.47 58.99 195.47 60.98Z" fill="#FFFFFF"/><path d="M215.8 68.72C215.08 68.88 214.41 68.95 213.81 68.95 212.85 68.95 212.11 68.8 211.58 68.5 211.05 68.2 210.68 67.8 210.47 67.31 210.26 66.82 210.15 65.78 210.15 64.19L210.15 55.24 208.22 55.24 208.22 53.19 210.15 53.19 210.15 49.34 212.77 47.76 212.77 53.19 215.42 53.19 215.42 55.24 212.77 55.24 212.77 64.34C212.77 65.09 212.81 65.58 212.9 65.79 213 66 213.15 66.18 213.35 66.3 213.56 66.43 213.87 66.49 214.26 66.49 214.41 66.49 214.57 66.49 214.77 66.47 214.97 66.45 215.18 66.43 215.42 66.39L215.8 68.72Z" fill="#FFFFFF"/><path d="M217.8 68.75 217.8 47.28 220.44 47.28 220.44 54.99C221.67 53.56 223.22 52.85 225.1 52.85 226.25 52.85 227.25 53.08 228.1 53.53 228.95 53.98 229.56 54.61 229.92 55.41 230.29 56.23 230.48 57.39 230.48 58.9L230.48 68.76 227.84 68.76 227.84 58.9C227.84 57.58 227.55 56.62 226.98 56.02 226.41 55.42 225.6 55.12 224.56 55.12 223.77 55.12 223.03 55.33 222.35 55.74 221.68 56.13 221.19 56.68 220.89 57.38 220.6 58.07 220.45 59.03 220.45 60.25L220.45 68.76 217.81 68.76Z" fill="#FFFFFF"/><path d="M246.39 64.08C245.95 65.68 245.15 66.92 244 67.79 242.85 68.66 241.36 69.1 239.55 69.1 237.27 69.1 235.47 68.4 234.13 67.01 232.8 65.61 232.14 63.65 232.14 61.11 232.14 58.57 232.81 56.47 234.16 55.02 235.51 53.57 237.26 52.85 239.4 52.85 241.54 52.85 243.18 53.56 244.5 54.97 245.82 56.4 246.48 58.39 246.48 60.95L246.48 61.24C246.48 61.36 246.48 61.49 246.47 61.65L234.87 61.65C234.97 63.36 235.45 64.67 236.32 65.58 237.18 66.49 238.26 66.94 239.57 66.94 240.54 66.94 241.36 66.69 242.05 66.18 242.74 65.67 243.28 64.86 243.68 63.75L246.4 64.09ZM243.69 59.48C243.57 58.18 243.24 57.2 242.69 56.54 241.85 55.52 240.76 55.02 239.42 55.02 238.22 55.02 237.2 55.43 236.36 56.24 235.54 57.05 235.09 58.13 235 59.49L243.69 59.49Z" fill="#FFFFFF"/><path d="M248.84 68.75 248.84 53.19 251.21 53.19 251.21 55.55C251.82 54.45 252.37 53.72 252.88 53.37 253.39 53.02 253.95 52.84 254.58 52.84 255.47 52.84 256.37 53.12 257.29 53.69L256.38 56.14C255.74 55.76 255.09 55.57 254.45 55.57 253.86 55.57 253.34 55.74 252.89 56.09 252.44 56.44 252.11 56.92 251.92 57.53 251.63 58.47 251.48 59.49 251.48 60.61L251.48 68.75 248.84 68.75Z" fill="#FFFFFF"/><path d="M272.36 70.42C272.46 71.2 272.76 71.78 273.25 72.15 273.91 72.64 274.81 72.88 275.93 72.88 277.15 72.88 278.09 72.64 278.76 72.15 279.43 71.66 279.87 70.98 280.11 70.1 280.18 69.83 280.23 69.41 280.26 68.85 280.29 68.29 280.31 67.58 280.3 66.72 279.15 68.08 277.71 68.76 275.99 68.76 273.85 68.76 272.2 67.99 271.02 66.45 269.85 64.92 269.26 63.07 269.26 60.9 269.26 59.4 269.53 58.03 270.07 56.8 270.61 55.55 271.38 54.58 272.4 53.88 273.42 53.2 274.62 52.85 276 52.85 277.84 52.85 279.35 53.59 280.54 55.08L280.54 53.2 282.97 53.2 282.97 66.65C282.97 69.07 282.72 70.79 282.22 71.79 281.74 72.8 280.96 73.6 279.88 74.19 278.81 74.78 277.49 75.07 275.94 75.07 274.09 75.07 272.6 74.65 271.44 73.81 270.3 72.97 269.75 71.72 269.78 70.05L272.34 70.43ZM271.98 60.69C271.98 62.72 272.39 64.21 273.2 65.16 274 66.1 275.02 66.57 276.25 66.57 277.48 66.57 278.48 66.11 279.3 65.18 280.12 64.24 280.53 62.78 280.53 60.79 280.53 58.8 280.11 57.45 279.26 56.48 278.42 55.51 277.4 55.03 276.21 55.03 275.02 55.03 274.04 55.51 273.22 56.47 272.4 57.43 271.99 58.84 271.99 60.7Z" fill="#FFFFFF"/><path d="M296.07 66.83C295.08 67.67 294.14 68.26 293.24 68.59 292.33 68.93 291.36 69.1 290.34 69.1 288.63 69.1 287.32 68.68 286.4 67.85 285.48 67.02 285.02 65.95 285.02 64.64 285.02 64.05 285.12 63.52 285.32 63.03 285.52 62.54 285.79 62.11 286.13 61.73 286.47 61.35 286.87 61.03 287.33 60.76 287.79 60.49 288.28 60.3 288.79 60.17 289.3 60.04 290.08 59.91 291.13 59.77 293.23 59.53 294.8 59.22 295.83 58.86 295.83 58.67 295.84 58.53 295.84 58.41L295.84 58.17C295.84 57.1 295.59 56.34 295.09 55.9 294.43 55.3 293.42 55.01 292.09 55.01 290.85 55.01 289.93 55.23 289.34 55.67 288.75 56.1 288.32 56.87 288.04 57.97L285.46 57.62C285.69 56.52 286.08 55.63 286.62 54.95 287.16 54.27 287.93 53.75 288.95 53.39 289.98 53.02 291.15 52.83 292.48 52.83 293.81 52.83 294.89 52.99 295.72 53.3 296.55 53.61 297.16 54.01 297.55 54.49 297.93 54.94 298.2 55.53 298.37 56.28 298.46 56.74 298.5 57.55 298.5 58.71L298.5 62.23C298.5 63.46 298.51 64.46 298.54 65.23 298.57 66 298.61 66.55 298.66 66.89 298.78 67.54 299 68.16 299.33 68.75L296.58 68.75C296.31 68.21 296.13 67.57 296.05 66.83ZM295.85 60.94C295.37 61.14 294.78 61.32 294.06 61.48 293.34 61.64 292.51 61.8 291.54 61.93 290.47 62.09 289.7 62.26 289.24 62.46 288.8 62.65 288.45 62.93 288.2 63.32 287.96 63.68 287.83 64.1 287.83 64.57 287.83 64.92 287.9 65.25 288.03 65.55 288.16 65.85 288.36 66.11 288.62 66.33 288.88 66.55 289.21 66.72 289.6 66.84 289.99 66.96 290.44 67.02 290.96 67.02 291.48 67.02 291.95 66.96 292.41 66.84 292.87 66.72 293.29 66.56 293.67 66.34 294.05 66.12 294.39 65.86 294.69 65.56 294.99 65.26 295.23 64.91 295.42 64.53 295.7 63.91 295.84 63.04 295.84 61.89L295.84 60.92Z" fill="#FFFFFF"/><path d="M301.52 68.75 301.52 53.19 303.88 53.19 303.88 55.37C304.38 54.61 305.03 54 305.84 53.53 306.65 53.06 307.57 52.83 308.6 52.83 309.75 52.83 310.7 53.07 311.43 53.55 312.16 54.03 312.69 54.7 312.99 55.56 314.22 53.74 315.82 52.84 317.79 52.84 319.34 52.84 320.53 53.26 321.36 54.11 322.19 54.96 322.6 56.28 322.6 58.07L322.6 68.75 319.98 68.75 319.98 58.95C319.98 57.9 319.89 57.14 319.72 56.68 319.55 56.2 319.25 55.83 318.8 55.55 318.34 55.27 317.81 55.13 317.22 55.13 316.12 55.13 315.21 55.5 314.5 56.23 313.78 56.95 313.42 58.11 313.42 59.72L313.42 68.76 310.78 68.76 310.78 58.65C310.78 57.47 310.57 56.59 310.14 56.01 309.71 55.43 309.01 55.14 308.03 55.14 307.28 55.14 306.59 55.34 305.96 55.73 305.33 56.13 304.87 56.7 304.6 57.44 304.32 58.2 304.18 59.29 304.18 60.69L304.18 68.76 301.54 68.76Z" fill="#FFFFFF"/><path d="M338.43 64.08C337.99 65.68 337.19 66.92 336.04 67.79 334.89 68.66 333.4 69.1 331.59 69.1 329.31 69.1 327.51 68.4 326.17 67.01 324.84 65.61 324.18 63.65 324.18 61.11 324.18 58.57 324.85 56.47 326.2 55.02 327.55 53.57 329.3 52.85 331.44 52.85 333.58 52.85 335.22 53.56 336.54 54.97 337.86 56.4 338.52 58.39 338.52 60.95L338.52 61.24C338.52 61.36 338.52 61.49 338.51 61.65L326.91 61.65C327.01 63.36 327.49 64.67 328.36 65.58 329.22 66.49 330.3 66.94 331.61 66.94 332.58 66.94 333.4 66.69 334.09 66.18 334.78 65.67 335.32 64.86 335.72 63.75L338.44 64.09ZM335.73 59.48C335.61 58.18 335.28 57.2 334.73 56.54 333.89 55.52 332.8 55.02 331.46 55.02 330.26 55.02 329.24 55.43 328.4 56.24 327.58 57.05 327.13 58.13 327.04 59.49L335.73 59.49Z" fill="#FFFFFF"/><path d="M342.45 63.7C342.6 64.75 343 65.56 343.67 66.11 344.34 66.66 345.27 66.94 346.48 66.94 347.69 66.94 348.58 66.7 349.18 66.21 349.77 65.71 350.06 65.13 350.06 64.47 350.06 63.87 349.8 63.41 349.28 63.06 348.92 62.84 348.02 62.54 346.58 62.17 344.66 61.69 343.31 61.27 342.55 60.91 341.81 60.55 341.24 60.06 340.85 59.43 340.47 58.81 340.28 58.11 340.28 57.34 340.28 56.64 340.44 55.99 340.75 55.41 341.06 54.83 341.5 54.34 342.05 53.95 342.26 53.8 342.5 53.66 342.78 53.53 343.06 53.4 343.38 53.28 343.72 53.19 344.06 53.1 344.43 53.01 344.81 52.96 345.19 52.91 345.59 52.87 346 52.87 347.23 52.87 348.3 53.04 349.22 53.39 350.14 53.74 350.82 54.22 351.26 54.83 351.71 55.45 352.01 56.25 352.17 57.23L349.59 57.58C349.47 56.78 349.14 56.15 348.58 55.7 348.02 55.25 347.23 55.03 346.19 55.03 344.98 55.03 344.11 55.23 343.6 55.63 343.09 56.03 342.82 56.5 342.82 57.04 342.82 57.38 342.93 57.69 343.14 57.96 343.35 58.24 343.69 58.48 344.15 58.66 344.29 58.71 344.55 58.79 344.93 58.9 345.31 59.01 345.83 59.16 346.48 59.33 348.36 59.83 349.65 60.24 350.38 60.56 351.1 60.86 351.68 61.32 352.12 61.94 352.54 62.54 352.75 63.29 352.75 64.2 352.75 65.11 352.49 65.91 351.97 66.69 351.45 67.47 350.72 68.07 349.76 68.49 348.8 68.91 347.71 69.12 346.48 69.12 344.46 69.12 342.92 68.7 341.86 67.86 340.8 67.02 340.12 65.78 339.83 64.12L342.44 63.71Z" fill="#FFFFFF"/></g><g><path d="M61.86 29.39C63.61 29.39 65.35 29.39 67.1 29.39 67.17 29.42 67.24 29.47 67.32 29.48 68.43 29.62 69.44 30.03 70.35 30.66 72.16 31.9 73.4 33.62 74.36 35.55 75.19 37.21 75.93 38.91 76.72 40.58 76.8 40.75 76.89 40.91 76.94 41 77.78 40.71 78.55 40.38 79.35 40.17 81.02 39.73 82.73 40.02 84.42 40.1 87.71 40.25 91 40.46 94.29 40.64 96.61 40.77 98.94 40.83 101.26 41.05 103.99 41.31 106.33 42.53 108.04 44.66 111.85 49.4 115.58 54.22 119.35 59.01 120.21 60.1 121.08 61.18 121.4 62.59 121.48 62.95 121.57 63.3 121.65 63.66L121.65 65.41C121.62 65.47 121.58 65.52 121.57 65.58 121.4 67.32 120.84 68.95 120.04 70.49 116.9 76.54 113.75 82.59 110.57 88.62 109.82 90.04 108.61 91 107.13 91.6 105.74 92.17 104.28 92.39 102.79 92.47 101.24 92.56 99.69 92.62 98.14 92.7 94.67 92.88 91.2 93.07 87.74 93.27 86.94 93.31 86.14 93.4 85.34 93.46L83.3 93.46C83.25 93.43 83.19 93.38 83.14 93.38 80.14 92.98 77.63 91.61 75.53 89.49 74.69 88.65 74.03 87.66 73.42 86.62 72.21 84.54 70.85 82.56 69.55 80.54 69.48 80.44 69.4 80.35 69.32 80.24 68.18 81.16 66.95 81.86 65.61 82.37 64.03 82.96 62.4 83.37 60.7 83.25 58.64 83.1 56.58 82.89 54.53 82.71 52.47 82.53 50.41 82.37 48.35 82.19 46.18 82.01 44.01 81.79 41.84 81.63 38.45 81.38 35.89 79.94 34.45 76.73 32.61 72.63 30.69 68.56 28.82 64.48 27.67 61.98 26.52 59.47 25.45 56.94 25.04 55.97 24.87 54.91 24.59 53.89 24.59 53.28 24.59 52.66 24.59 52.05 24.61 52.01 24.66 51.97 24.66 51.93 24.86 50.45 25.5 49.15 26.43 48.01 27.5 46.7 28.63 45.43 29.73 44.14 32.83 40.54 35.92 36.93 39.02 33.33 40.99 31.05 43.5 29.75 46.49 29.65 50.93 29.51 55.38 29.55 59.83 29.51 60.51 29.51 61.18 29.45 61.86 29.43ZM91.48 64.72C91.49 62.98 91.12 61.53 90.12 60.26 88.06 57.65 86.01 55.03 83.95 52.41 82.36 50.39 80.79 48.36 79.19 46.35 78.16 45.06 76.64 44.91 75.42 46.02 74.98 46.42 74.61 46.95 74.33 47.48 71.31 53.22 68.31 58.97 65.32 64.72 64.88 65.56 64.59 66.44 64.57 67.4 64.53 68.87 65.13 70.13 65.89 71.33 68.6 75.57 71.33 79.81 74.05 84.05 74.74 85.12 75.41 86.21 76.12 87.27 77.17 88.84 78.93 89.02 80.23 87.67 80.62 87.27 80.94 86.79 81.2 86.29 84.32 80.35 87.41 74.4 90.53 68.46 91.17 67.23 91.52 65.95 91.49 64.73ZM39.51 53.54C39.51 53.54 39.51 53.6 39.51 53.63 38.9 53.63 38.28 53.63 37.67 53.63 35.23 53.63 32.79 53.65 30.34 53.66 28.69 53.67 27.64 54.49 27.55 56.05 27.51 56.75 27.71 57.54 28.01 58.19 30.73 64.16 33.49 70.11 36.23 76.07 37.29 78.38 39.14 79.47 41.6 79.67 43.18 79.8 44.75 79.94 46.33 80.07 48.5 80.26 50.67 80.45 52.84 80.64 54.51 80.79 56.18 80.95 57.85 81.09 59.04 81.19 60.23 81.31 61.43 81.31 62.61 81.31 63.47 80.54 63.73 79.4 63.95 78.43 63.65 77.55 63.25 76.69 60.41 70.53 57.58 64.37 54.72 58.22 54.41 57.55 54.03 56.89 53.55 56.34 52.17 54.74 50.49 53.58 48.29 53.55 45.36 53.51 42.44 53.54 39.51 53.54ZM98.28 64.63C95.7 64.6 92.91 66.38 91.68 68.74 88.55 74.74 85.41 80.74 82.29 86.74 82.05 87.19 81.85 87.67 81.71 88.17 81.27 89.78 81.98 91.11 83.51 91.46 84.02 91.58 84.57 91.54 85.09 91.52 87.24 91.42 89.38 91.31 91.53 91.2 94.26 91.05 96.98 90.91 99.71 90.74 101.38 90.64 103.06 90.55 104.73 90.34 106.74 90.09 108.25 89.1 109.21 87.23 112.11 81.59 115.07 75.99 117.99 70.37 118.2 69.97 118.38 69.55 118.49 69.12 118.97 67.35 118.02 65.84 116.3 65.71 113.51 65.51 110.72 65.37 107.93 65.21 106.62 65.13 105.32 65.07 104.01 64.99 102.06 64.87 100.11 64.75 98.28 64.63ZM38.98 52.41C38.98 52.41 38.98 52.32 38.98 52.28 42.13 52.28 45.29 52.28 48.44 52.28 48.97 52.28 49.51 52.24 50.03 52.15 52.42 51.71 54.26 50.42 55.83 48.57 58.78 45.08 61.83 41.66 64.84 38.21 65.8 37.11 66.76 36.02 67.71 34.92 68.24 34.3 68.51 33.59 68.32 32.77 68.08 31.78 67.32 31.28 66.11 31.29 59.66 31.34 53.2 31.37 46.75 31.48 44.3 31.52 42.21 32.53 40.58 34.39 38.72 36.5 36.91 38.65 35.07 40.78 32.66 43.59 30.22 46.38 27.84 49.21 27.5 49.61 27.28 50.21 27.22 50.74 27.1 51.83 27.97 52.6 29.22 52.58 32.47 52.53 35.72 52.46 38.97 52.4ZM81.23 41.81C80.5 41.83 79.65 42.03 79.2 42.91 78.76 43.76 79.13 44.48 79.68 45.17 83.68 50.18 87.66 55.21 91.68 60.21 93.07 61.94 94.92 62.95 97.12 63.27 98.16 63.42 99.21 63.42 100.26 63.49 102.68 63.64 105.09 63.8 107.51 63.95 109.41 64.07 111.32 64.18 113.22 64.3 114.43 64.37 115.64 64.49 116.85 64.51 117.76 64.53 118.53 64.18 118.95 63.31 119.35 62.48 119.1 61.76 118.56 61.07 115.29 56.92 112.04 52.75 108.77 48.6 107.9 47.5 107.08 46.33 106.1 45.34 104.3 43.51 102 42.84 99.46 42.77 96.7 42.7 93.94 42.51 91.18 42.36 87.92 42.19 84.66 42 81.22 41.81ZM68.18 78.37C66.84 76.29 65.52 74.24 64.21 72.19 62.44 69.43 62.17 66.61 63.75 63.64 66.5 58.46 69.19 53.24 71.91 48.04 72.91 46.12 73.85 44.17 75.32 42.54 75.4 42.45 75.39 42.21 75.34 42.08 75.02 41.34 74.68 40.61 74.33 39.88 73.8 38.78 73.32 37.64 72.71 36.58 72.19 35.68 71.41 35.07 70.27 35.09 69.29 35.11 68.64 35.69 68.04 36.38 64.32 40.67 60.62 44.96 56.89 49.24 54.74 51.71 54.44 54.53 55.69 57.37 58.49 63.74 61.48 70.03 64.41 76.34 64.67 76.9 65.05 77.43 65.48 77.88 66.25 78.67 67.28 78.83 68.18 78.38Z" fill="#FFFFFF"/><path d="M79.81 66.47C79.79 67.28 79.49 68.45 78.58 69.38 77.59 70.4 76.33 70.32 75.44 69.23 74.13 67.62 74.43 64.37 76.01 63.01 77 62.16 78.22 62.29 79.01 63.33 79.53 64.02 79.81 64.96 79.81 66.47Z" fill="#FFFFFF"/><path d="M58.48 79.38C56.32 79.36 53.99 77.11 53.92 74.99 53.88 73.76 54.85 72.85 56.13 72.92 58.33 73.03 60.48 75.06 60.64 77.25 60.73 78.56 59.81 79.45 58.47 79.38Z" fill="#FFFFFF"/><path d="M30.47 58.04C30.4 56.66 31.42 55.75 32.87 55.89 34.83 56.09 36.79 57.94 37.12 59.91 37.36 61.33 36.46 62.4 35.02 62.38 32.88 62.36 30.58 60.16 30.47 58.04Z" fill="#FFFFFF"/><path d="M46.84 70.74C44.63 70.74 42.25 68.44 42.26 66.3 42.26 65.01 43.18 64.18 44.5 64.27 46.55 64.41 48.44 66.11 48.91 68.12 49.25 69.61 48.36 70.74 46.85 70.74Z" fill="#FFFFFF"/><path d="M99.46 81.9C97.91 81.9 97.04 80.84 97.36 79.32 97.76 77.42 99.87 75.64 101.76 75.6 103.44 75.56 104.34 76.66 103.96 78.3 103.54 80.14 101.34 81.9 99.45 81.91Z" fill="#FFFFFF"/><path d="M111.38 73.86C109.77 73.87 108.89 72.73 109.31 71.16 109.81 69.26 111.82 67.65 113.78 67.57 115.33 67.51 116.28 68.72 115.9 70.28 115.44 72.16 113.31 73.85 111.39 73.87Z" fill="#FFFFFF"/><path d="M84.47 87.34C84.59 86.05 85.48 84.95 86.75 84.12 87.63 83.54 88.6 83.18 89.68 83.43 90.89 83.71 91.44 84.69 91.16 85.99 90.74 87.94 88.44 89.72 86.46 89.65 85.24 89.61 84.47 88.82 84.48 87.33Z" fill="#FFFFFF"/><path d="M51.56 43.81C51.87 43.87 52.26 43.92 52.62 44.03 54 44.47 54.52 45.7 53.83 46.99 53.05 48.45 51.74 49.2 50.16 49.46 49.56 49.56 48.89 49.53 48.31 49.37 46.83 48.98 46.31 47.63 47.07 46.3 47.82 44.98 49.04 44.3 50.47 43.96 50.8 43.88 51.14 43.87 51.55 43.82Z" fill="#FFFFFF"/><path d="M60.17 37.88C59.89 37.83 59.5 37.8 59.14 37.67 58 37.26 57.57 36.21 58.12 35.13 58.77 33.86 59.88 33.17 61.23 32.9 61.78 32.79 62.4 32.79 62.95 32.9 64.32 33.18 64.88 34.43 64.18 35.64 63.32 37.12 61.94 37.75 60.17 37.87Z" fill="#FFFFFF"/><path d="M34.65 45.5C34.78 45.5 34.91 45.5 35.04 45.5 36.72 45.61 37.48 47.05 36.62 48.49 35.75 49.94 33.6 50.85 31.97 50.45 30.51 50.1 29.99 48.85 30.77 47.55 31.5 46.33 33.09 45.49 34.65 45.49Z" fill="#FFFFFF"/><path d="M45.8 32.75C46.11 32.77 46.33 32.76 46.56 32.8 47.93 33.04 48.49 34.24 47.8 35.46 47.01 36.86 44.95 37.73 43.41 37.33 42.2 37.01 41.68 35.9 42.31 34.81 43.09 33.45 44.35 32.86 45.8 32.76Z" fill="#FFFFFF"/><path d="M93.29 57.18C93.39 55.97 94.25 55.2 95.65 55.12 97.38 55.02 99.49 56.27 100.25 57.83 101.07 59.54 100.04 61.05 98.05 60.97 96.28 60.9 94.85 60.12 93.88 58.62 93.6 58.19 93.48 57.66 93.29 57.18Z" fill="#FFFFFF"/><path d="M100.88 54.63C99.52 54.5 98.22 53.86 97.34 52.5 96.91 51.83 96.72 51.1 97.15 50.35 97.58 49.6 98.33 49.39 99.1 49.42 100.65 49.48 101.92 50.15 102.82 51.45 103.29 52.13 103.53 52.89 103.09 53.67 102.66 54.42 101.92 54.63 100.88 54.62Z" fill="#FFFFFF"/><path d="M86.77 48.31C85.04 48.31 83.19 47.03 82.72 45.52 82.39 44.46 82.85 43.58 83.9 43.24 85.71 42.65 88.42 44.13 88.91 45.98 89.23 47.19 88.45 48.23 87.15 48.31 87.02 48.31 86.89 48.31 86.76 48.31Z" fill="#FFFFFF"/><path d="M113.35 62.22C111.65 62.18 109.91 61.03 109.37 59.6 108.91 58.37 109.5 57.31 110.79 57.06 112.49 56.74 114.74 57.96 115.4 59.57 116 61.05 115.07 62.25 113.35 62.21Z" fill="#FFFFFF"/><path d="M103.42 49.2C102.12 49.08 100.85 48.4 100.12 46.92 99.54 45.74 100.15 44.65 101.44 44.44 103 44.18 105.05 45.34 105.62 46.81 106.15 48.15 105.31 49.21 103.42 49.19Z" fill="#FFFFFF"/><path d="M72.74 42.32C72.67 43.52 72.42 44.73 71.36 45.58 70.6 46.19 69.67 46.15 68.92 45.53 68.01 44.78 67.65 43.76 67.53 42.64 67.39 41.4 67.61 40.23 68.37 39.2 69.26 38.01 70.71 37.97 71.68 39.1 72.45 40.01 72.7 41.09 72.74 42.31Z" fill="#FFFFFF"/></g></svg>