<svg viewBox="0 0 381.58 125.44" xmlns="http://www.w3.org/2000/svg" xmlns:xlink="http://www.w3.org/1999/xlink" id="Layer_1" overflow="hidden"><defs><linearGradient x1="19.79" y1="-27.85" x2="190.35" y2="100.23" gradientUnits="userSpaceOnUse" id="linear-gradient"><stop offset="0" stop-color="#FFFFFF"/><stop offset="0.09" stop-color="#EAEDD8"/><stop offset="0.38" stop-color="#ADBC67"/><stop offset="0.51" stop-color="#95A93B"/></linearGradient></defs><rect x="0" y="8.97" rx="54.66" ry="54.66" width="377.82" height="116.47" fill="#231F20" opacity="0.56"/><rect x="3.26" y="0.5" rx="54.66" ry="54.66" width="377.82" height="116.47" stroke="#294D24" stroke-miterlimit="10" fill="#95A93B"/><path d="M229.41 4.21C175.76 7.21 81.88 12.85 53.64 42.32 35.51 61.25 32.16 83.6 37.58 109.03 17.82 100.56 11.54 84.08 8.99 76.56 6.02 67.8 1.17 30.98 27.88 13.56 42.37 4.11 52.59 4.74 52.59 4.74 52.59 4.74 184.77 4.21 229.41 4.21Z" fill="url(#linear-gradient)" opacity="0.78"/><g><path d="M91.57 57.43 77.04 57.43 77.04 81.91 91.57 81.91C92.63 81.91 93.49 81.05 93.49 79.99L93.49 59.35C93.49 58.29 92.63 57.43 91.57 57.43Z" fill="#FFFFFF"/><path d="M53.37 59.36 53.37 80C53.37 81.06 54.23 81.92 55.29 81.92L69.82 81.92 69.82 57.44 55.29 57.44C54.23 57.44 53.37 58.3 53.37 59.36Z" fill="#FFFFFF"/><path d="M50.75 47.18 50.75 53.2C50.75 54.26 51.61 55.12 52.67 55.12L69.83 55.12 69.83 45.25C69.83 45.25 52.67 45.25 52.67 45.25 51.61 45.25 50.75 46.11 50.75 47.17Z" fill="#FFFFFF"/><path d="M94.19 45.26 76.99 45.26 77.03 55.13 94.19 55.13C95.25 55.13 96.11 54.27 96.11 53.21L96.11 47.19C96.11 46.13 95.25 45.27 94.19 45.27Z" fill="#FFFFFF"/><path d="M58.72 43.09C58.94 43.22 59.3 43.42 60.32 43.42L86.29 43.42C87.42 43.42 87.86 43.2 88.1 43.06 89.82 42.05 90.9 39.92 90.9 37.2 90.9 35.18 90.26 33.17 89.15 31.68 87.78 29.85 85.76 28.84 83.45 28.84 83.26 28.84 83.07 28.84 82.87 28.86 76.81 29.28 74.35 35.03 73.39 38.74 72.43 35.03 69.97 29.28 63.91 28.86 63.71 28.85 63.52 28.84 63.33 28.84 61.02 28.84 59 29.85 57.63 31.68 56.52 33.17 55.88 35.18 55.88 37.2 55.88 39.94 56.98 42.09 58.73 43.09ZM83.1 32.31C83.22 32.31 83.33 32.3 83.44 32.3 84.66 32.3 85.65 32.79 86.37 33.75 87.05 34.66 87.43 35.92 87.43 37.21 87.43 38.27 87.06 40.27 85.67 40.27L76.57 40.27C77.2 37.49 78.89 32.61 83.1 32.32ZM60.39 33.75C61.11 32.79 62.09 32.3 63.32 32.3 63.43 32.3 63.55 32.3 63.66 32.31 67.87 32.6 69.56 37.48 70.19 40.26L61.09 40.26C59.7 40.26 59.33 38.26 59.33 37.2 59.33 35.91 59.72 34.65 60.39 33.74Z" fill="#FFFFFF"/></g><g><path d="M110.5 70.25 110.5 45.2 128.62 45.2 128.62 48.16 113.82 48.16 113.82 55.83 127.68 55.83 127.68 58.77 113.82 58.77 113.82 67.3 129.2 67.3 129.2 70.26 110.5 70.26Z" fill="#FFFFFF"/><path d="M131.01 70.25 131.01 52.1 133.78 52.1 133.78 54.68C135.11 52.69 137.04 51.69 139.56 51.69 140.64 51.69 141.64 51.89 142.57 52.29 143.48 52.68 144.17 53.19 144.64 53.83 144.87 54.15 145.06 54.5 145.22 54.88 145.38 55.26 145.5 55.67 145.6 56.1 145.66 56.39 145.7 56.77 145.73 57.27 145.76 57.77 145.77 58.37 145.77 59.09L145.77 70.25 142.69 70.25 142.69 59.21C142.69 57.96 142.57 57.02 142.33 56.41 142.09 55.78 141.66 55.29 141.05 54.92 140.45 54.54 139.73 54.36 138.91 54.36 137.59 54.36 136.45 54.78 135.51 55.61 134.56 56.45 134.09 58.03 134.09 60.34L134.09 70.25 131.01 70.25Z" fill="#FFFFFF"/><path d="M154.75 70.21C153.91 70.39 153.13 70.48 152.43 70.48 151.31 70.48 150.45 70.3 149.83 69.95 149.21 69.6 148.78 69.14 148.53 68.57 148.28 68 148.15 66.79 148.15 64.93L148.15 54.49 145.89 54.49 145.89 52.1 148.15 52.1 148.15 47.6 151.21 45.75 151.21 52.09 154.3 52.09 154.3 54.48 151.21 54.48 151.21 65.09C151.21 65.97 151.26 66.53 151.36 66.78 151.47 67.03 151.65 67.23 151.89 67.38 152.14 67.53 152.49 67.6 152.95 67.6 153.12 67.6 153.32 67.6 153.54 67.57 153.76 67.55 154.02 67.52 154.3 67.48L154.74 70.2Z" fill="#FFFFFF"/><path d="M171.81 64.79C171.3 66.66 170.37 68.1 169.02 69.12 167.68 70.14 165.94 70.65 163.82 70.65 161.16 70.65 159.06 69.84 157.5 68.21 155.95 66.58 155.18 64.29 155.18 61.32 155.18 58.35 155.97 55.91 157.54 54.21 159.11 52.52 161.15 51.68 163.66 51.68 166.17 51.68 168.07 52.51 169.61 54.16 171.15 55.82 171.92 58.15 171.92 61.13L171.92 61.47C171.92 61.61 171.92 61.77 171.9 61.95L158.36 61.95C158.47 63.94 159.04 65.47 160.05 66.53 161.05 67.59 162.32 68.12 163.84 68.12 164.97 68.12 165.93 67.82 166.73 67.23 167.53 66.64 168.16 65.69 168.63 64.39L171.81 64.78ZM168.67 59.42C168.53 57.91 168.15 56.76 167.51 55.99 166.53 54.81 165.26 54.21 163.7 54.21 162.3 54.21 161.11 54.68 160.13 55.63 159.17 56.58 158.64 57.84 158.54 59.42L168.67 59.42Z" fill="#FFFFFF"/><path d="M173.79 70.25 173.79 52.1 176.56 52.1 176.56 54.85C177.27 53.56 177.92 52.71 178.51 52.3 179.1 51.89 179.76 51.68 180.49 51.68 181.53 51.68 182.58 52.01 183.65 52.67L182.59 55.52C181.84 55.08 181.09 54.85 180.33 54.85 179.65 54.85 179.04 55.05 178.51 55.46 177.98 55.86 177.6 56.43 177.37 57.14 177.03 58.23 176.86 59.43 176.86 60.73L176.86 70.23 173.78 70.23Z" fill="#FFFFFF"/><path d="M204.21 70.21C203.37 70.39 202.59 70.48 201.89 70.48 200.77 70.48 199.91 70.3 199.29 69.95 198.67 69.6 198.24 69.14 197.99 68.57 197.74 68 197.61 66.79 197.61 64.93L197.61 54.49 195.35 54.49 195.35 52.1 197.61 52.1 197.61 47.6 200.67 45.75 200.67 52.09 203.76 52.09 203.76 54.48 200.67 54.48 200.67 65.09C200.67 65.97 200.72 66.53 200.82 66.78 200.93 67.03 201.11 67.23 201.35 67.38 201.6 67.53 201.95 67.6 202.41 67.6 202.58 67.6 202.78 67.6 203 67.57 203.22 67.55 203.48 67.52 203.76 67.48L204.2 70.2Z" fill="#FFFFFF"/><path d="M205.67 70.25 205.67 45.2 208.75 45.2 208.75 54.19C210.19 52.53 212 51.69 214.18 51.69 215.52 51.69 216.69 51.95 217.68 52.48 218.67 53.01 219.38 53.74 219.8 54.68 220.23 55.64 220.45 56.99 220.45 58.75L220.45 70.25 217.37 70.25 217.37 58.75C217.37 57.21 217.04 56.09 216.37 55.39 215.7 54.69 214.76 54.34 213.54 54.34 212.62 54.34 211.76 54.58 210.96 55.06 210.17 55.52 209.6 56.15 209.25 56.97 208.91 57.78 208.74 58.9 208.74 60.32L208.74 70.25 205.66 70.25Z" fill="#FFFFFF"/><path d="M238.15 64.79C237.64 66.66 236.71 68.1 235.36 69.12 234.02 70.14 232.28 70.65 230.16 70.65 227.5 70.65 225.4 69.84 223.84 68.21 222.29 66.58 221.52 64.29 221.52 61.32 221.52 58.35 222.31 55.91 223.88 54.21 225.45 52.52 227.49 51.68 230 51.68 232.51 51.68 234.41 52.51 235.95 54.16 237.49 55.82 238.26 58.15 238.26 61.13L238.26 61.47C238.26 61.61 238.26 61.77 238.24 61.95L224.7 61.95C224.81 63.94 225.38 65.47 226.39 66.53 227.39 67.59 228.66 68.12 230.18 68.12 231.31 68.12 232.27 67.82 233.07 67.23 233.87 66.64 234.5 65.69 234.97 64.39L238.15 64.78ZM235.01 59.42C234.87 57.91 234.49 56.76 233.85 55.99 232.87 54.81 231.6 54.21 230.04 54.21 228.64 54.21 227.45 54.68 226.47 55.63 225.51 56.58 224.98 57.84 224.88 59.42L235.01 59.42Z" fill="#FFFFFF"/><path d="M263.43 68.01C262.28 68.99 261.18 69.67 260.13 70.06 259.07 70.46 257.94 70.66 256.75 70.66 254.76 70.66 253.22 70.18 252.15 69.21 251.08 68.24 250.54 66.99 250.54 65.47 250.54 64.79 250.66 64.16 250.89 63.59 251.12 63.02 251.44 62.51 251.84 62.07 252.24 61.63 252.71 61.25 253.24 60.94 253.77 60.63 254.35 60.4 254.95 60.26 255.54 60.11 256.45 59.96 257.68 59.8 260.13 59.51 261.96 59.16 263.17 58.74 263.18 58.52 263.19 58.35 263.19 58.22L263.19 57.94C263.19 56.69 262.9 55.8 262.32 55.29 261.54 54.59 260.38 54.25 258.82 54.25 257.37 54.25 256.3 54.51 255.61 55.02 254.93 55.52 254.42 56.42 254.09 57.7L251.08 57.29C251.35 56 251.8 54.96 252.43 54.17 253.06 53.38 253.96 52.77 255.15 52.35 256.35 51.92 257.72 51.7 259.27 51.7 260.82 51.7 262.08 51.88 263.05 52.25 264.02 52.61 264.73 53.08 265.19 53.63 265.63 54.15 265.95 54.85 266.15 55.71 266.25 56.25 266.3 57.19 266.3 58.55L266.3 62.65C266.3 64.09 266.32 65.25 266.35 66.15 266.38 67.05 266.43 67.69 266.49 68.08 266.63 68.84 266.89 69.57 267.28 70.25L264.07 70.25C263.75 69.62 263.55 68.88 263.45 68.01ZM263.17 61.14C262.61 61.37 261.92 61.58 261.09 61.77 260.26 61.96 259.28 62.14 258.15 62.3 256.9 62.48 256 62.69 255.47 62.92 254.96 63.14 254.55 63.47 254.26 63.93 253.97 64.35 253.83 64.84 253.83 65.38 253.83 65.79 253.91 66.17 254.06 66.53 254.21 66.88 254.44 67.19 254.75 67.44 255.06 67.7 255.44 67.9 255.9 68.04 256.36 68.18 256.89 68.25 257.49 68.25 258.09 68.25 258.65 68.18 259.18 68.04 259.72 67.9 260.21 67.71 260.65 67.46 261.09 67.21 261.49 66.91 261.84 66.55 262.19 66.19 262.47 65.79 262.69 65.34 263.02 64.62 263.19 63.6 263.19 62.26L263.19 61.13Z" fill="#FFFFFF"/><path d="M268.91 70.25 268.91 52.1 271.68 52.1 271.68 54.68C273.01 52.69 274.94 51.69 277.46 51.69 278.54 51.69 279.54 51.89 280.47 52.29 281.38 52.68 282.07 53.19 282.54 53.83 282.77 54.15 282.96 54.5 283.12 54.88 283.28 55.26 283.41 55.67 283.5 56.1 283.56 56.39 283.6 56.77 283.63 57.27 283.66 57.77 283.67 58.37 283.67 59.09L283.67 70.25 280.59 70.25 280.59 59.21C280.59 57.96 280.47 57.02 280.23 56.41 279.99 55.78 279.56 55.29 278.95 54.92 278.35 54.54 277.63 54.36 276.81 54.36 275.49 54.36 274.35 54.78 273.41 55.61 272.46 56.45 271.99 58.03 271.99 60.34L271.99 70.25 268.91 70.25Z" fill="#FFFFFF"/><path d="M287.29 64.35C287.46 65.58 287.93 66.52 288.71 67.16 289.49 67.8 290.58 68.13 291.99 68.13 293.4 68.13 294.44 67.84 295.13 67.28 295.81 66.7 296.16 66.02 296.16 65.25 296.16 64.56 295.86 64.01 295.25 63.61 294.83 63.35 293.78 63 292.11 62.57 289.86 62.01 288.3 61.52 287.41 61.1 286.54 60.68 285.88 60.1 285.43 59.37 284.99 58.64 284.76 57.83 284.76 56.93 284.76 56.11 284.94 55.36 285.31 54.67 285.67 53.99 286.18 53.42 286.83 52.96 287.07 52.79 287.35 52.63 287.68 52.47 288.01 52.32 288.38 52.18 288.77 52.07 289.16 51.96 289.59 51.86 290.04 51.8 290.49 51.74 290.95 51.7 291.43 51.7 292.87 51.7 294.12 51.9 295.19 52.31 296.26 52.72 297.05 53.28 297.57 53.99 298.09 54.71 298.45 55.64 298.63 56.79L295.62 57.2C295.48 56.27 295.09 55.54 294.44 55.01 293.79 54.48 292.86 54.22 291.65 54.22 290.24 54.22 289.23 54.45 288.62 54.92 288.02 55.39 287.71 55.93 287.71 56.56 287.71 56.96 287.83 57.32 288.09 57.64 288.34 57.97 288.73 58.24 289.27 58.46 289.43 58.52 289.73 58.61 290.18 58.74 290.63 58.87 291.23 59.04 291.98 59.24 294.17 59.82 295.68 60.3 296.53 60.68 297.37 61.03 298.05 61.57 298.56 62.29 299.05 62.99 299.3 63.86 299.3 64.92 299.3 65.98 299 66.91 298.39 67.83 297.78 68.75 296.93 69.44 295.81 69.93 294.69 70.42 293.42 70.67 291.98 70.67 289.62 70.67 287.82 70.18 286.59 69.2 285.36 68.22 284.57 66.77 284.22 64.84L287.26 64.36Z" fill="#FFFFFF"/><path d="M303.91 70.25 298.36 52.1 301.54 52.1 304.43 62.58 305.51 66.48 306.45 62.74 309.34 52.11 312.5 52.11 315.22 62.64 316.13 66.11 317.17 62.61 320.28 52.12 323.27 52.12 317.6 70.27 314.4 70.27 311.51 59.4 310.81 56.31 307.14 70.27 303.93 70.27Z" fill="#FFFFFF"/><path d="M340.05 64.79C339.54 66.66 338.61 68.1 337.26 69.12 335.91 70.14 334.18 70.65 332.06 70.65 329.41 70.65 327.3 69.84 325.74 68.21 324.19 66.58 323.42 64.29 323.42 61.32 323.42 58.35 324.21 55.91 325.78 54.21 327.35 52.52 329.39 51.68 331.9 51.68 334.41 51.68 336.31 52.51 337.85 54.16 339.39 55.82 340.16 58.15 340.16 61.13L340.16 61.47C340.16 61.61 340.16 61.77 340.14 61.95L326.6 61.95C326.71 63.94 327.28 65.47 328.29 66.53 329.29 67.59 330.56 68.12 332.08 68.12 333.21 68.12 334.17 67.82 334.97 67.23 335.77 66.64 336.4 65.69 336.87 64.39L340.05 64.78ZM336.91 59.42C336.77 57.91 336.39 56.76 335.75 55.99 334.77 54.81 333.5 54.21 331.94 54.21 330.54 54.21 329.35 54.68 328.37 55.63 327.41 56.58 326.88 57.84 326.78 59.42L336.91 59.42Z" fill="#FFFFFF"/><path d="M342.03 70.25 342.03 52.1 344.8 52.1 344.8 54.85C345.51 53.56 346.16 52.71 346.75 52.3 347.34 51.89 348 51.68 348.73 51.68 349.77 51.68 350.82 52.01 351.89 52.67L350.83 55.52C350.08 55.08 349.33 54.85 348.57 54.85 347.89 54.85 347.28 55.05 346.75 55.46 346.22 55.86 345.84 56.43 345.61 57.14 345.27 58.23 345.1 59.43 345.1 60.73L345.1 70.23 342.02 70.23Z" fill="#FFFFFF"/></g></svg>