<svg viewBox="0 0 328.2 325.9" xmlns="http://www.w3.org/2000/svg" xmlns:xlink="http://www.w3.org/1999/xlink" id="Layer_1" xml:space="preserve" overflow="hidden"><path d="M143.1 311.1C143.1 313.9 124.7 316.2 102 316.2 79.3 316.2 60.9 313.9 60.9 311.1 60.9 308.3 79.3 306 102 306 124.7 306 143.1 308.3 143.1 311.1Z" fill="#345999" opacity="0.46"/><g><g><linearGradient x1="94.8853" y1="50.726" x2="97.3488" y2="94.0144" gradientUnits="userSpaceOnUse" id="SVGID_1_"><stop offset="0" stop-color="#00243B"/><stop offset="1" stop-color="#00121E"/></linearGradient><linearGradient x1="102.855" y1="78.9262" x2="102.855" y2="196.044" gradientUnits="userSpaceOnUse" id="SVGID_00000170960593205523486860000010226616139150947238_"><stop offset="0" stop-color="#00395C"/><stop offset="1" stop-color="#00273F"/></linearGradient><path d="M89.3 61.4C70.2 65.2 56.4 73.8 58.3 81.6 60.2 89.4 79.6 90.2 99.4 85.3 119.2 80.5 136.3 74.9 134.1 65.5 131.8 56.3 112.5 56.7 89.3 61.4Z" fill="url(#SVGID_1_)"/><g><linearGradient x1="102.756" y1="216.211" x2="102.756" y2="296.328" gradientUnits="userSpaceOnUse" id="SVGID_00000098916736078635037720000013114851654736134559_"><stop offset="0" stop-color="#00243B"/><stop offset="1" stop-color="#00121E"/></linearGradient><path d="M122.7 207.2C122.7 207.2 137.2 201.1 137.2 199.4 137.2 199 136.7 198.2 135.8 197L133 197.8 122.7 207.2Z" fill="none"/><path d="M70.2 196.2C69 197.7 68.2 198.9 68.2 199.4 68.2 201.1 82.7 207.2 82.7 207.2L73 197.2 70.2 196.2Z" fill="none"/><path d="M122.7 207.2 133 197.8 135.8 197C132.7 192.8 125.4 184.9 125.4 184.9L122.7 207.2Z" fill="none"/><path d="M70.2 196.2 73 197.2 82.7 207.2 80 184.9C80 184.9 73.6 191.9 70.2 196.2Z" fill="none"/><path d="M80 184.9 82.7 207.2 82.8 212.4 122.6 212.6 122.7 207.2 125.4 184.9C125.4 184.9 132.7 192.8 135.8 197L149.5 192.9C144.8 181.4 136.4 166.9 133 163.9 127.8 159.4 111.5 158.6 106.7 163.4L98.8 163.4C94 158.6 77.7 159.3 72.5 163.9 69.2 166.7 61.4 180.2 56.6 191.4L70.3 196.2C73.6 191.9 80 184.9 80 184.9Z" fill="#FFFFFF"/><path d="M72.5 311.9C73.9 313.2 95 309.9 95 309.9L96.8 304.6 97.8 309.9 102 309.6 101.8 304 86 304C86 304 71.1 310.5 72.5 311.9Z" fill="#36C7D1"/><path d="M103.5 309.6 107.7 309.9 108.7 304.6 110.5 309.9C110.5 309.9 131.6 313.2 133 311.9 134.4 310.6 119.5 304 119.5 304L103.7 304 103.5 309.6Z" fill="#36C7D1"/><path d="M122.7 212.6 82.8 212.4 82.9 217.1 86 304 101.8 304 99.6 223.1 102.2 223.1 103.4 223.1 105.9 223.1 103.7 304 119.5 304 122.6 217.1Z" fill="url(#SVGID_00000098916736078635037720000013114851654736134559_)"/><path d="M82.8 212.4 82.7 207.2C82.7 207.2 68.2 201.1 68.2 199.4 68.2 198.9 69 197.8 70.2 196.2L56.5 191.4C53.6 198.2 51.8 204.1 52.8 206.6 54.8 211.6 71.2 215.1 78.9 216.5 81.3 216.9 82.8 217.1 82.8 217.1L82.8 212.4Z" fill="#DCA975"/><path d="M149.6 192.9 135.9 197C136.7 198.1 137.3 199 137.3 199.4 137.3 201.1 122.8 207.2 122.8 207.2L122.7 212.6 122.6 217.1C122.6 217.1 123.6 217 125.2 216.7 132.1 215.5 150.5 211.9 152.7 206.6 153.5 204.3 152.1 199 149.6 192.9Z" fill="#DCA975"/><g><path d="M122.7 207.2 122.6 212.6 122.5 217.1C122.5 217.1 123.5 217 125.1 216.7 126.6 216.4 128.8 216 131.2 215.5 129.2 212.4 127.6 209 126.4 205.5 124.3 206.5 122.7 207.2 122.7 207.2Z" fill="#CCCCCC"/></g><g><linearGradient x1="64.8066" y1="181.966" x2="63.405" y2="204.216" gradientUnits="userSpaceOnUse" id="SVGID_00000099650713721451308270000001425608398348809886_"><stop offset="0" stop-color="#00395C"/><stop offset="1" stop-color="#00273F"/></linearGradient><linearGradient x1="142.236" y1="186.844" x2="140.834" y2="209.094" gradientUnits="userSpaceOnUse" id="SVGID_00000021100339562168845040000007288963808220018840_"><stop offset="0" stop-color="#00395C"/><stop offset="1" stop-color="#00273F"/></linearGradient><path d="M133 163.9C127.8 159.4 111.5 158.6 106.7 163.4L98.8 163.4C94 158.6 77.7 159.3 72.5 163.9 69.5 166.5 62.7 178 57.9 188.5 62.4 190.6 67.1 192.6 71.7 194.4 75.2 190.2 80.1 184.9 80.1 184.9L82.8 207.2 82.9 212.4 122.7 212.6 122.8 207.2 125.5 184.9C125.5 184.9 130.6 190.4 134.1 194.6 138.9 193 143.7 191.6 148.6 190.3 143.7 179.3 136.2 166.6 133 163.9Z" fill="#FFFFFF"/><g><path d="M84 168.4C87.1 173.5 88.9 179.3 92.3 184.2 95.7 189.1 101.7 193 107.4 191.5 110 190.8 112.2 189.2 114 187.3 120.4 180.7 122.7 171.4 124.9 162.4" fill="#CCCCCC"/></g><path d="M56.6 191.4 70.3 196.2C70.7 195.6 71.2 195 71.7 194.4 67 192.6 62.4 190.6 57.9 188.5 57.4 189.5 57 190.5 56.6 191.4Z" fill="url(#SVGID_00000099650713721451308270000001425608398348809886_)"/><path d="M134 194.6C134.7 195.4 135.3 196.2 135.8 196.9L149.5 192.8C149.2 192 148.8 191.2 148.5 190.3 143.6 191.6 138.8 193 134 194.6Z" fill="url(#SVGID_00000021100339562168845040000007288963808220018840_)"/></g></g><path d="M144.8 134.1C139.9 129.2 136.2 138.8 136.2 138.8L126.8 115.4 102.6 115.4 102.3 115.4 78.2 115.4 68.8 138.8C68.8 138.8 65.1 129.2 60.2 134.1 55.3 139 60 154.1 68.8 151.8 68.8 151.8 68.8 181 102.4 181.1L102.4 181.1C102.4 181.1 102.5 181.1 102.5 181.1 102.5 181.1 102.6 181.1 102.6 181.1L102.6 181.1C136.1 180.9 136.2 151.8 136.2 151.8 145 154.1 149.7 139 144.8 134.1Z" fill="#DCA975"/><g><g><path d="M81.3 148.7C81.8 151.8 85 154.4 88.1 154.1 91.4 153.8 94.1 150.9 94.1 147.6 94.1 146 91.6 146 91.6 147.6 91.6 148.6 91.2 149.5 90.6 150.3 90.2 150.7 89.9 151 89.4 151.3 89 151.5 88.4 151.7 88 151.7 87 151.8 86 151.4 85.3 150.8 84.4 150.1 83.9 149.2 83.8 148.1 83.7 147.4 82.9 147.1 82.3 147.2 81.5 147.3 81.2 148 81.3 148.7L81.3 148.7Z" fill="#00273F"/></g></g><g><g><path d="M110.2 148.7C110.7 151.8 113.9 154.4 117 154.1 120.3 153.8 123 150.9 123 147.6 123 146 120.5 146 120.5 147.6 120.5 148.6 120.1 149.5 119.5 150.3 119.1 150.7 118.8 151 118.3 151.3 117.9 151.5 117.3 151.7 116.9 151.7 115.9 151.8 114.9 151.4 114.2 150.8 113.3 150.1 112.8 149.2 112.7 148.1 112.6 147.4 111.8 147.1 111.2 147.2 110.4 147.3 110.1 148 110.2 148.7L110.2 148.7Z" fill="#00273F"/></g></g><g><g><path d="M144.7 138.2C142.3 137.6 140.5 139.8 139.3 141.6 138.1 143.3 137.3 145.2 136.9 147.2 136.8 147.8 137.1 148.6 137.8 148.7 138.4 148.8 139.2 148.5 139.3 147.8 139.7 146.1 140.2 144.7 141.2 143.2 141.7 142.5 142 142 142.6 141.4 142.8 141.2 142.9 141.1 143.1 140.9 143.3 140.8 142.9 141 143.2 140.8 143.3 140.8 143.4 140.7 143.4 140.7 143.4 140.7 143.7 140.6 143.6 140.6 143.5 140.6 143.8 140.5 143.8 140.5 143.7 140.5 143.8 140.5 143.8 140.5 144.1 140.5 143.7 140.4 144 140.5 144.6 140.7 145.4 140.3 145.5 139.6 145.8 139.1 145.4 138.4 144.7 138.2L144.7 138.2Z" fill="#00273F"/></g></g><g><g><path d="M61.4 140.8C63.9 142.7 65.9 145.6 66.9 148.7 67.1 149.3 67.8 149.8 68.4 149.6 69 149.4 69.5 148.7 69.3 148.1 68.2 144.3 65.8 141.1 62.7 138.7 62.2 138.3 61.3 138.6 61 139.1 60.6 139.7 60.8 140.4 61.4 140.8L61.4 140.8Z" fill="#00273F"/></g></g><g><g><path d="M64.2 142.7C63.9 142.9 63.6 143.2 63.4 143.5 63.1 143.9 62.8 144.3 62.6 144.7 62.5 144.8 62.5 145 62.5 145.2 62.5 145.4 62.5 145.5 62.5 145.7 62.6 146 62.8 146.3 63.1 146.4 63.4 146.6 63.7 146.6 64.1 146.5 64.4 146.4 64.7 146.2 64.8 145.9 65 145.6 65.1 145.3 65.3 145 65.2 145.1 65.2 145.2 65.1 145.3 65.4 145 65.7 144.7 66 144.4 66.1 144.3 66.2 144.2 66.3 144 66.4 143.9 66.4 143.7 66.4 143.5 66.4 143.2 66.3 142.8 66 142.6 65.8 142.4 65.4 142.2 65.1 142.2 65 142.2 64.9 142.2 64.8 142.2 64.6 142.5 64.4 142.6 64.2 142.7L64.2 142.7Z" fill="#00273F"/></g></g><path d="M68.8 138.8C68.8 138.8 69 145.2 70.4 145.4 71.8 145.5 73.5 147.2 75.1 144.5 76.7 141.9 78.2 124.8 78.2 124.8 78.2 124.8 82.3 126.4 88 126.4 93.7 126.4 102.4 119.3 102.4 119.3 102.4 119.3 104.5 126 111.4 128.1 118.3 130.1 121.8 126.1 121.8 126.1 121.8 126.1 125.7 132.4 128.9 133.6 132.2 134.8 132.8 130.5 132.8 130.5 132.8 130.5 131.1 145.2 131.7 145.6 132.3 146 133.3 146.4 134.6 145.6 135.8 144.8 136.2 138.9 136.2 138.9 136.2 138.9 139.4 132.4 141.5 132.9 143.6 133.4 150.5 121.8 141.5 116.5 141.5 116.5 144.1 106.3 135.4 100.6 126.6 94.9 121.8 100 121.8 100 121.8 100 121.1 88.8 110.2 87.8 99.3 86.8 98.1 95.3 98.1 95.3 98.1 95.3 91.3 90 82.5 93.5 73.7 97 75.9 105.5 75.9 105.5 75.9 105.5 67.9 104.5 63.1 111.2 58.4 117.9 63.1 123.2 63.1 123.2 63.1 123.2 57.8 129.5 60.2 134.2 60.3 134.1 65.9 131.9 68.8 138.8Z" fill="url(#SVGID_00000170960593205523486860000010226616139150947238_)"/><g><path d="M82.5 97.6C91.3 94.1 98.1 99.4 98.1 99.4 98.1 99.4 99.3 90.8 110.2 91.9 121 92.9 121.8 104.1 121.8 104.1 121.8 104.1 126.7 99 135.4 104.7 139.8 107.6 141.4 111.6 141.8 114.9 142.2 111.9 142.2 104.8 135.4 100.4 126.6 94.7 121.8 99.8 121.8 99.8 121.8 99.8 121.1 88.6 110.2 87.6 99.3 86.6 98.1 95.1 98.1 95.1 98.1 95.1 91.3 89.8 82.5 93.3 74.6 96.4 75.6 103.6 75.9 105 76.4 102.5 78 99.4 82.5 97.6Z" fill="#00273F"/><path d="M141.6 120.6C144.1 122.1 145.4 124.1 145.9 126.2 146.5 122.9 145.9 119.1 142 116.6 142 119 141.6 120.6 141.6 120.6Z" fill="#00273F"/><path d="M132.2 136.4C131.8 140.5 131.4 145.3 131.8 145.5 131.8 145.5 131.8 145.5 131.8 145.5 132.1 141 132.9 134.6 132.9 134.6 132.9 134.6 132.7 135.5 132.2 136.4Z" fill="#00273F"/><path d="M63.2 115.3C67.9 108.6 76 109.6 76 109.6 76 109.6 75.5 107.7 75.9 105.4 74.9 105.3 67.6 104.8 63.2 111.1 60.9 114.3 60.8 117.2 61.3 119.3 61.6 118.1 62.2 116.7 63.2 115.3Z" fill="#00273F"/><path d="M63.2 127.3C63.2 127.3 62.4 126.4 61.8 125 60.5 127.1 58.9 130.4 59.9 133.3 60.8 130.1 63.2 127.3 63.2 127.3Z" fill="#00273F"/></g><g><path d="M95.5 132.6C93 130.1 89 129.2 85.7 130.5 82.5 131.7 80.2 134.7 79.8 138.1 83.4 135.9 87.5 134.4 91.7 133.9 92.8 133.8 94 133.7 95.1 133.4 95.4 133.3 95.7 133.2 95.7 132.9 95.6 132.8 95.5 132.7 95.5 132.6Z" fill="#00273F"/></g><g><path d="M108.9 137.8C110.6 140.9 114.2 142.8 117.7 142.5 121.1 142.2 124.1 139.9 125.4 136.8 121.3 138 117 138.3 112.8 137.7 111.7 137.5 110.6 137.3 109.4 137.2 109.1 137.2 108.7 137.3 108.7 137.5 108.8 137.6 108.9 137.7 108.9 137.8Z" fill="#00273F"/></g><g><defs><path d="M102.4 165.2C101.9 160.1 96.4 157.9 91 160.7 85.5 163.4 59.2 176.3 48.5 159.7 40.6 147.3 28.1 111.4 62.6 87.8 66.5 85.3 76.7 83.7 75.5 80.8 74.4 77.8 70.2 80.1 70.2 80.1 70.2 80.1 75 77.6 74 76.1 73 74.5 67.4 77 67.4 77 67.4 77 72.5 74.8 71 73.5 69.5 72.2 54.3 74.9 38.4 97.2 29.3 110 12.9 140.1 35 170.2 57.2 200.1 103.5 177.3 102.4 165.2Z" id="SVGID_00000169540833933995451870000016715514996520566402_"/></defs><clipPath id="SVGID_00000085971523774207328340000005579229517214426250_"><use width="100%" height="100%" xlink:href="#SVGID_00000169540833933995451870000016715514996520566402_" overflow="visible"></use></clipPath><linearGradient x1="63.1917" y1="78.9263" x2="63.1917" y2="196.044" gradientUnits="userSpaceOnUse" id="SVGID_00000059306085943982981170000010382496589071332229_"><stop offset="0" stop-color="#00395C"/><stop offset="1" stop-color="#00273F"/></linearGradient><path d="M102.4 165.2C101.9 160.1 96.4 157.9 91 160.7 85.5 163.4 59.2 176.3 48.5 159.7 40.6 147.3 28.1 111.4 62.6 87.8 66.5 85.3 76.7 83.7 75.5 80.8 74.4 77.8 70.2 80.1 70.2 80.1 70.2 80.1 75 77.6 74 76.1 73 74.5 67.4 77 67.4 77 67.4 77 72.5 74.8 71 73.5 69.5 72.2 54.3 74.9 38.4 97.2 29.3 110 12.9 140.1 35 170.2 57.2 200.1 103.5 177.3 102.4 165.2Z" fill="url(#SVGID_00000059306085943982981170000010382496589071332229_)" clip-path="url(#SVGID_00000085971523774207328340000005579229517214426250_)"/><path d="M79 76.4C76.6 76.4 40.7 84.6 37.1 126.2 33.5 167.8 56.2 180 76.5 171.2 96.8 162.4 106.7 154.8 106.7 154.8" stroke="#00273F" stroke-width="0.75" stroke-miterlimit="10" fill="none" clip-path="url(#SVGID_00000085971523774207328340000005579229517214426250_)"/><path d="M66 66.5C66 66.5 46.1 65.4 31.5 106.2 16.9 147 41.3 188.5 54.1 190.3 83.1 194.6 96.9 172.8 103.2 160" stroke="#00273F" stroke-miterlimit="10" fill="none" clip-path="url(#SVGID_00000085971523774207328340000005579229517214426250_)"/><path d="M100.3 160.1C100.3 160.1 93 173.5 66 177.4 39 181.3 31.5 153.2 31.5 133.3 31.5 113.4 49.1 75.9 73.6 73" stroke="#00273F" stroke-miterlimit="10" fill="none" clip-path="url(#SVGID_00000085971523774207328340000005579229517214426250_)"/></g><g><defs><path d="M102 162.6C100.6 167.5 104.6 171.7 110.7 171.3 116.8 171 161.8 168.5 163 186.1 163.8 199.1 147.2 204 119.3 200 119.3 200 107.8 195.8 107.7 199 107.6 202.2 112.2 201.8 112.2 201.8 112.2 201.8 106.8 202.1 107.2 204 107.5 205.8 113.6 205.8 113.6 205.8 113.6 205.8 108.1 205.8 108.9 207.6 109.8 209.4 124.1 215.8 151.3 212.3 180.5 208.6 184.6 196.8 178.3 177.8 166.6 146.4 104.5 153.8 102 162.6Z" id="SVGID_00000054970405483492184550000013377473804300742569_"/></defs><clipPath id="SVGID_00000010275489723789142890000004665023254041268121_"><use width="100%" height="100%" xlink:href="#SVGID_00000054970405483492184550000013377473804300742569_" overflow="visible"></use></clipPath><linearGradient x1="141.232" y1="78.9262" x2="141.232" y2="196.044" gradientUnits="userSpaceOnUse" id="SVGID_00000090295120879265541290000009773749217900479666_"><stop offset="0" stop-color="#00395C"/><stop offset="1" stop-color="#00273F"/></linearGradient><path d="M102 162.6C100.6 167.5 104.6 171.7 110.7 171.3 116.8 171 161.8 168.5 163 186.1 163.8 199.1 147.2 204 119.3 200 119.3 200 107.8 195.8 107.7 199 107.6 202.2 112.2 201.8 112.2 201.8 112.2 201.8 106.8 202.1 107.2 204 107.5 205.8 113.6 205.8 113.6 205.8 113.6 205.8 108.1 205.8 108.9 207.6 109.8 209.4 124.1 215.8 151.3 212.3 180.5 208.6 184.6 196.8 178.3 177.8 166.6 146.4 104.5 153.8 102 162.6Z" fill="url(#SVGID_00000090295120879265541290000009773749217900479666_)" clip-path="url(#SVGID_00000010275489723789142890000004665023254041268121_)"/><path d="M103.2 161C103.2 161 102.7 166.1 108.8 167 114.9 167.9 160.6 162.8 163.6 179.9 166.7 196.9 161.2 206.6 125.4 202.1 89.5 197.6 87.7 196.2 87.7 196.2L96.6 200.9C96.6 200.9 164.1 219.1 179.2 202.1 194.3 185.1 177.5 163.1 151.4 160.1 131.4 157.8 105.8 163.6 100 154.7" stroke="#00273F" stroke-width="0.75" stroke-miterlimit="10" fill="none" clip-path="url(#SVGID_00000010275489723789142890000004665023254041268121_)"/><path d="M102.4 157.7C102.4 157.7 105.6 165 117.1 164.5 128.7 164.1 171.5 160.8 172.6 182.9 173.7 205 158 211.9 107.3 201.7" stroke="#00273F" stroke-width="0.75" stroke-miterlimit="10" fill="none" clip-path="url(#SVGID_00000010275489723789142890000004665023254041268121_)"/></g><path d="M102.6 146.5C100.5 146.5 95.6 162 96.8 162.5 98 163 107.2 163.6 108 162.5 108.8 161.4 104.9 146.5 102.6 146.5Z" fill="#D14747"/><g><path d="M82.9 217.1 82.8 212.4 82.7 207.2C82.7 207.2 81.4 206.6 79.5 205.8 79.4 206.1 79.3 206.4 79.2 206.7 78.1 209.9 76.6 212.9 74.6 215.7 76.2 216 77.6 216.3 78.9 216.5 81.3 216.9 82.9 217.1 82.9 217.1Z" fill="#CCCCCC"/></g><g><linearGradient x1="91.8349" y1="27.4939" x2="95.0138" y2="83.3525" gradientUnits="userSpaceOnUse" id="SVGID_00000137829434267866154500000012191508328347724710_"><stop offset="0" stop-color="#00243B"/><stop offset="1" stop-color="#00121E"/></linearGradient><path d="M94.9 63.3C101.6 61.9 108.1 59.5 113.9 56.1 109.3 48.8 102.9 39 100.9 38.1 97.6 36.7 90 46.8 90 46.8 90 46.8 79.9 43.7 76.5 45.6 74.4 46.8 73.7 56.8 73.4 64.5 80.6 65 87.9 64.7 94.9 63.3Z" fill="url(#SVGID_00000137829434267866154500000012191508328347724710_)"/><path d="M94.9 63.3C87.9 64.7 80.6 65 73.4 64.4 73.2 69.2 73.3 73.1 73.3 73.1 102.1 80.5 118.8 64 118.8 64 118.8 64 116.7 60.5 114 56.1 108.1 59.5 101.6 61.9 94.9 63.3Z" fill="#36C7D1"/></g><g><path d="M78.7 45C77.8 45.1 77.1 45.3 76.5 45.6 74.4 46.8 73.7 56.8 73.4 64.5 73.2 69.3 73.3 73.2 73.3 73.2 77.2 74.2 80.8 74.7 84.2 75 82.9 71.5 82 67.8 81.4 64 80.4 57.6 80 51.2 78.7 45Z" fill="#CCCCCC"/></g></g><g><g><path d="M139.7 145.2C140.5 145.7 141.3 146.2 142.1 146.6 142.4 146.8 142.8 146.8 143.1 146.7 143.4 146.6 143.7 146.4 143.8 146.1 144 145.8 144 145.5 143.9 145.1 143.8 144.8 143.6 144.5 143.3 144.4 142.5 143.9 141.7 143.4 140.9 143 140.6 142.8 140.2 142.8 139.9 142.9 139.6 143 139.3 143.2 139.2 143.5 139 143.8 139 144.1 139.1 144.5 139.2 144.7 139.4 145 139.7 145.2L139.7 145.2Z" fill="#00273F"/></g></g></g><g><path d="M159.3 146.2C159.3 146.2 177.8 154.3 200.6 138.5 223.4 122.8 304.8 127.7 311.2 117.4 317.6 107.1 312.6 25.7 300.5 22.8 288.4 20 156 33.3 153.3 47.3 150.6 61.4 162 125.1 166.3 129.3 170.6 133.5 185.1 130.7 184.3 136 183.4 141.4 175 145.4 159.3 146.2Z" fill="#36C7D1"/><g><g><path d="M158.9 147.1C160.5 147.1 162 147 163.6 147 165.1 147 166.6 147 168.2 147 171.2 147 174.3 147.1 177.2 146.9 181.4 146.7 185.5 145.6 189.4 144.1 193.4 142.6 197 140.4 200.4 138 204.2 135.4 208.4 133.7 212.7 132.4 217 131.1 221.4 130.1 225.8 129.3 234.6 127.7 243.6 126.6 252.5 125.8 261.4 124.9 270.4 124.3 279.3 123.5 283.8 123.1 288.2 122.7 292.6 122.1 297 121.5 301.4 120.9 305.6 119.6 306.6 119.3 307.6 118.9 308.5 118.4 309 118.2 309.4 117.9 309.7 117.6 310 117.3 310.3 117 310.5 116.6 311 115.8 311.3 114.7 311.5 113.7 311.7 112.7 311.9 111.6 312.1 110.5 312.7 106.2 313 101.8 313.1 97.4 313.4 88.6 313.1 79.8 312.5 71 311.9 63.7 311.1 56.3 310 49.1 309.4 45.5 308.7 41.9 307.9 38.3 307 34.7 306 31.2 304.4 27.9 304 27.1 303.6 26.3 303.1 25.6 302.6 24.9 302 24.2 301.3 23.7 301.1 23.6 300.9 23.5 300.8 23.4 300.6 23.3 300.4 23.3 300.2 23.2 299.8 23.1 299.3 23.1 298.9 23 298 22.9 297.1 22.9 296.2 22.9 292.5 22.8 288.9 23 285.2 23.1 277.8 23.5 270.5 24.1 263.2 24.7 243.8 26.5 224.4 29.2 205.2 32.3 197.4 33.6 189.7 35 182 36.8 178.2 37.7 174.3 38.6 170.6 39.7 166.8 40.8 163.1 42 159.6 43.6 158.7 44 157.9 44.4 157.1 44.9 156.3 45.4 155.6 45.9 155.1 46.5L154.9 46.7 154.8 46.9 154.7 47.1 154.6 47.3C154.6 47.4 154.6 47.4 154.5 47.5L154.5 47.8 154.4 48.5C154.3 49.4 154.2 50.4 154.2 51.3 154.1 55.1 154.4 59.1 154.7 63 155.4 70.8 156.4 78.6 157.7 86.4 158.6 92.5 159.7 98.5 160.8 104.5 162 110.5 163.2 116.5 164.8 122.4 165.2 123.9 165.7 125.3 166.2 126.7 166.3 127 166.5 127.4 166.6 127.7L166.8 128.1C166.9 128.2 166.9 128.3 167 128.4 167.4 128.8 167.9 129.1 168.5 129.4 169.7 130 171.2 130.3 172.7 130.5 174.2 130.7 175.7 130.9 177.2 131.1 178.7 131.3 180.3 131.5 181.9 132 182.7 132.3 183.6 132.6 184.3 133.3 184.7 133.7 185 134.2 185.1 134.8 185.2 135.3 185.2 135.9 185.1 136.4 184.7 138.2 183.6 139.7 182.4 140.8 181.1 141.9 179.7 142.7 178.3 143.4 175 144.9 171.7 145.9 168.2 146.6 167.2 146.8 166.1 147 165 147.2 163.9 147.3 162.9 147.4 162 147.4 160.7 147.3 159.3 146.7 159.4 146.3 159.5 145.9 161.5 145.4 162.9 145.1 163.4 145 164.1 144.9 164.8 144.9 165.5 144.8 166.2 144.8 166.8 144.7 169.6 144.3 172.3 143.8 175 142.9 177.6 142.1 180.2 140.9 182.1 139 183 138.1 183.6 136.8 183.7 135.7 183.8 134.7 182.6 134 181.3 133.6 178.7 132.9 175.8 132.7 173 132.3 171.6 132.1 170.2 131.8 168.8 131.3 168.1 131.1 167.4 130.7 166.8 130.3 166.2 129.9 165.6 129.2 165.3 128.5 164.7 127.2 164.2 125.8 163.8 124.4 163.4 123 163 121.7 162.7 120.3 161.3 114.8 160.2 109.2 159.1 103.6 157.7 96.4 156.5 89.1 155.4 81.8 154.3 74.5 153.3 67.2 152.8 59.8 152.6 56.1 152.5 52.3 152.9 48.5 153 48 153 47.6 153.2 47.1 153.3 46.6 153.6 46.1 153.9 45.7 154.5 44.9 155.3 44.4 156.1 43.8 157.7 42.8 159.4 42 161.2 41.3 165.4 39.6 169.8 38.3 174.1 37.2 178.5 36.1 182.9 35 187.3 34.1 196.2 32.2 205.1 30.7 214 29.3 217.4 28.8 220.9 28.5 224.3 28 235.8 26.4 247.4 24.9 259 23.7 264.8 23.1 270.6 22.6 276.4 22.1 282.2 21.7 288 21.3 293.9 21.2 295.1 21.2 296.3 21.2 297.6 21.2 298.2 21.2 298.8 21.3 299.5 21.3 299.8 21.3 300.1 21.4 300.5 21.4L301 21.5C301.2 21.5 301.4 21.6 301.6 21.7 303.1 22.3 304 23.4 304.8 24.5 305.5 25.6 306.1 26.7 306.6 27.9 307.6 30.2 308.4 32.5 309 34.9 309.7 37.3 310.2 39.6 310.7 42 312.6 51.5 313.6 61.2 314.4 70.8 315.1 80.7 315.5 90.7 315.1 100.6 315 103.1 314.8 105.6 314.6 108.1 314.3 110.6 314 113.1 313.2 115.6 313 116.2 312.8 116.8 312.4 117.5 312.3 117.8 312 118.1 311.8 118.4 311.5 118.7 311.3 118.9 311 119.1 309.9 119.9 308.7 120.4 307.5 120.9 305.1 121.8 302.6 122.3 300.2 122.7 295.7 123.5 291.1 124 286.5 124.5 281.9 124.9 277.4 125.3 272.8 125.7 263.7 126.4 254.6 127.1 245.5 128.1 236.8 129.1 228.1 130.5 219.7 132.5 216.6 133.3 213.4 134.1 210.4 135.2 207.4 136.3 204.4 137.6 201.9 139.3L197.7 142C196.3 142.8 194.8 143.6 193.3 144.4 191.8 145.1 190.3 145.8 188.7 146.4L186.3 147.2C185.9 147.3 185.5 147.5 185.1 147.6L183.9 147.9 181.9 148.4C181.2 148.6 180.6 148.7 179.9 148.8 179.2 148.9 178.6 149.1 177.9 149.2L175.9 149.4 174.9 149.5 173.9 149.5 171.8 149.6C170.4 149.5 169.1 149.5 167.7 149.3 166.5 149.2 165.3 148.9 163.9 148.6 162.2 148.3 160.7 147.9 158.9 147.1Z" fill="#084670"/></g></g></g><g><path d="M175.7 62.3 174 51.2 170.8 51.7 170.3 48.7 181 47.1 181 50.2 177.9 50.7 179.6 61.8 175.7 62.3Z" fill="#FFFFFF"/><path d="M192.4 54.6C192.6 55.7 192.5 56.6 192.3 57.3 192.1 58 191.8 58.6 191.3 59.1 190.9 59.6 190.3 59.9 189.7 60.1 189.1 60.3 188.5 60.5 187.8 60.6 187.2 60.7 186.5 60.7 185.8 60.7 185.1 60.7 184.5 60.5 183.9 60.2 183.3 59.9 182.8 59.4 182.4 58.8 182 58.2 181.7 57.3 181.5 56.2 181.3 55.1 181.4 54.2 181.6 53.5 181.8 52.8 182.2 52.2 182.6 51.7 183.1 51.2 183.6 50.9 184.2 50.7 184.8 50.5 185.5 50.3 186.1 50.2 186.7 50.1 187.4 50.1 188.1 50.1 188.8 50.1 189.4 50.3 189.9 50.6 190.4 50.9 191 51.4 191.4 52 192 52.7 192.3 53.5 192.4 54.6ZM187.5 58.3C187.8 58.3 188 58.2 188.2 58.1 188.4 58 188.6 57.8 188.7 57.6 188.8 57.4 188.9 57.1 188.9 56.7 188.9 56.3 188.9 55.8 188.8 55.3 188.7 54.8 188.6 54.3 188.5 53.9 188.4 53.5 188.2 53.3 188 53.1 187.8 52.9 187.6 52.8 187.4 52.7 187.2 52.6 186.9 52.6 186.7 52.7 186.4 52.7 186.2 52.8 186 52.9 185.8 53 185.6 53.2 185.5 53.4 185.4 53.6 185.3 53.9 185.3 54.3 185.3 54.7 185.3 55.1 185.4 55.7 185.5 56.3 185.6 56.7 185.7 57.1 185.8 57.5 186 57.7 186.2 57.9 186.4 58.1 186.6 58.2 186.8 58.3 187 58.3 187.2 58.3 187.5 58.3Z" fill="#FFFFFF"/><path d="M195.8 63.3 193.7 49.3 197.2 48.8 197.4 49.8C197.5 49.6 197.6 49.5 197.7 49.3 197.8 49.1 198 49 198.2 48.8 198.4 48.6 198.7 48.5 199 48.4 199.3 48.3 199.7 48.2 200.2 48.1 200.7 48 201.2 48 201.7 48.1 202.2 48.2 202.7 48.4 203.1 48.8 203.5 49.2 203.9 49.6 204.2 50.3 204.5 50.9 204.7 51.7 204.9 52.6 205.2 54.2 204.9 55.6 204.3 56.6 203.6 57.6 202.5 58.3 200.8 58.5 200.6 58.5 200.4 58.5 200.2 58.5 200 58.5 199.8 58.5 199.6 58.5 199.4 58.5 199.2 58.5 199.1 58.5 199 58.5 198.8 58.5 198.8 58.5L199.4 62.6 195.8 63.3ZM198.4 56.2C198.6 56.2 198.8 56.3 199.1 56.3 199.4 56.3 199.7 56.3 200 56.3 200.3 56.3 200.6 56.2 200.8 56.1 201 56 201.2 55.8 201.3 55.6 201.4 55.4 201.5 55.1 201.5 54.7 201.5 54.3 201.5 53.9 201.4 53.3 201.2 52.3 201 51.6 200.7 51.3 200.4 51 200 50.8 199.5 50.8 199.3 50.8 199.1 50.9 198.9 51 198.7 51.1 198.5 51.2 198.4 51.4 198.2 51.6 198.1 51.8 198.1 52.1 198.1 52.4 198 52.8 198.1 53.3L198.4 56.2Z" fill="#FFFFFF"/><path d="M221.3 50.2C221.5 51.3 221.4 52.2 221.2 52.9 221 53.6 220.7 54.2 220.2 54.7 219.7 55.2 219.2 55.5 218.6 55.7 218 55.9 217.4 56.1 216.7 56.2 216.1 56.3 215.4 56.3 214.7 56.3 214 56.3 213.4 56.1 212.8 55.8 212.2 55.5 211.7 55 211.3 54.4 210.9 53.8 210.6 52.9 210.4 51.8 210.2 50.7 210.3 49.8 210.5 49.1 210.7 48.4 211.1 47.8 211.5 47.3 211.9 46.8 212.5 46.5 213.1 46.3 213.7 46.1 214.4 45.9 215 45.8 215.6 45.7 216.3 45.7 217 45.7 217.7 45.7 218.3 45.9 218.8 46.2 219.3 46.5 219.9 47 220.3 47.6 220.7 48.2 221.1 49.1 221.3 50.2ZM216.4 53.9C216.7 53.9 216.9 53.8 217.1 53.7 217.3 53.6 217.5 53.4 217.6 53.2 217.7 53 217.8 52.7 217.8 52.3 217.8 51.9 217.8 51.4 217.7 50.9 217.6 50.3 217.5 49.9 217.4 49.5 217.3 49.1 217.1 48.9 216.9 48.7 216.7 48.5 216.5 48.4 216.3 48.3 216.1 48.2 215.8 48.2 215.6 48.3 215.3 48.3 215.1 48.4 214.9 48.5 214.7 48.6 214.5 48.8 214.4 49 214.3 49.2 214.2 49.5 214.2 49.9 214.2 50.3 214.2 50.7 214.3 51.3 214.4 51.9 214.5 52.3 214.6 52.7 214.7 53.1 214.9 53.3 215.1 53.5 215.3 53.7 215.5 53.8 215.7 53.9 215.8 53.9 216.1 53.9 216.4 53.9Z" fill="#FFFFFF"/><path d="M235.3 52.9C235.2 53 235 53 234.8 53.1 234.6 53.2 234.4 53.3 234.1 53.4 233.9 53.5 233.6 53.6 233.3 53.6 233 53.6 232.7 53.7 232.4 53.8 232.2 53.8 231.9 53.8 231.7 53.8 231.4 53.8 231.2 53.7 231 53.6 230.8 53.5 230.6 53.3 230.4 53 230.2 52.7 230.1 52.4 230 52L229.4 47.8C229.4 47.6 229.3 47.5 229.3 47.3 229.3 47.2 229.2 47.1 229.2 47 229.1 46.9 229 46.9 228.9 46.8 228.8 46.8 228.6 46.8 228.4 46.8 228.2 46.8 228 46.9 227.8 47 227.6 47.1 227.5 47.2 227.3 47.3 227.1 47.4 227 47.5 226.9 47.6 226.8 47.7 226.7 47.8 226.7 47.9L227.7 54.3 224.1 54.8 222.6 44.8 226.2 44.3 226.4 45.3C226.5 45.2 226.7 45 226.9 44.8 227.1 44.6 227.3 44.5 227.5 44.3 227.7 44.1 228 44 228.3 43.9 228.6 43.8 229 43.7 229.4 43.6 229.9 43.5 230.4 43.5 230.8 43.5 231.2 43.5 231.5 43.6 231.8 43.8 232.1 44 232.3 44.3 232.5 44.7 232.7 45.1 232.8 45.6 232.9 46.3L233.6 50.7C233.6 50.9 233.7 51 233.8 51.1 233.9 51.2 234 51.2 234.2 51.2 234.3 51.2 234.4 51.2 234.5 51.1 234.6 51 234.7 51 234.8 51L235.3 52.9Z" fill="#FFFFFF"/><path d="M257.4 49.6C257.3 49.7 257.1 49.7 256.9 49.8 256.7 49.9 256.5 50 256.2 50.1 255.9 50.2 255.7 50.3 255.4 50.3 255.1 50.3 254.8 50.4 254.5 50.5 254.3 50.5 254 50.5 253.8 50.5 253.5 50.5 253.3 50.4 253.1 50.3 252.9 50.2 252.7 50 252.5 49.7 252.3 49.4 252.2 49.1 252.1 48.7L251.4 44.3C251.3 44 251.3 43.7 251.1 43.6 251 43.5 250.7 43.5 250.4 43.5 250.3 43.5 250.2 43.6 250 43.6 249.8 43.6 249.7 43.8 249.6 43.9 249.5 44 249.3 44.1 249.2 44.2 249.1 44.3 249 44.4 248.9 44.6L249.9 50.9 246.3 51.4 245.3 45.1C245.3 44.8 245.2 44.6 245.1 44.5 245 44.4 244.7 44.3 244.4 44.4 244.2 44.4 244.1 44.5 243.9 44.6 243.7 44.7 243.6 44.8 243.5 44.9 243.4 45 243.2 45.1 243.1 45.2 243 45.3 242.9 45.4 242.8 45.5L243.8 51.8 240.2 52.3 238.7 42.3 242.3 41.8 242.5 42.8C242.6 42.6 242.8 42.5 243 42.3 243.2 42.1 243.4 42 243.6 41.8 243.8 41.6 244.1 41.5 244.4 41.4 244.7 41.3 245 41.2 245.4 41.1 246.1 41 246.7 41 247.2 41.1 247.7 41.2 248.1 41.5 248.4 42 248.8 41.6 249.3 41.2 249.8 40.8 250.3 40.5 250.9 40.2 251.6 40.1 252.1 40 252.5 40 252.9 40 253.3 40 253.6 40.1 253.9 40.3 254.2 40.5 254.4 40.8 254.6 41.2 254.8 41.6 254.9 42.1 255 42.7L255.7 47.1C255.8 47.4 255.9 47.6 256.3 47.5 256.4 47.5 256.5 47.5 256.6 47.4 256.7 47.4 256.8 47.3 256.9 47.3L257.4 49.6Z" fill="#FFFFFF"/><path d="M267.5 48C267.3 48.1 267 48.2 266.7 48.3 266.4 48.4 266.1 48.5 265.7 48.6 265.4 48.7 265 48.8 264.7 48.8 264.4 48.9 264 48.9 263.8 49 262.7 49.2 261.8 49.2 261.1 49 260.4 48.8 259.8 48.6 259.3 48.2 258.8 47.8 258.5 47.4 258.2 46.8 257.9 46.2 257.8 45.6 257.7 44.9 257.6 44.2 257.6 43.5 257.6 42.9 257.7 42.2 257.9 41.6 258.2 41 258.5 40.4 259 39.9 259.6 39.5 260.2 39.1 261 38.8 261.9 38.7 262.8 38.6 263.6 38.6 264.2 38.7 264.9 38.8 265.4 39.1 265.9 39.4 266.4 39.7 266.7 40.2 267 40.7 267.3 41.2 267.4 41.8 267.5 42.4 267.5 42.6 267.6 42.9 267.6 43.2 267.6 43.5 267.7 43.8 267.7 44.1L261.4 45.1C261.5 45.7 261.7 46 262.2 46.3 262.6 46.5 263.3 46.6 264.3 46.4 265 46.3 265.6 46.1 266.2 45.9 266.8 45.7 267.4 45.5 267.8 45.2L267.5 48ZM263.9 42.8C263.8 42 263.7 41.5 263.3 41.3 262.9 41.1 262.6 40.9 262.1 41 261.8 41 261.6 41.1 261.4 41.3 261.2 41.4 261.1 41.6 261 41.8 260.9 42 260.9 42.2 260.9 42.5 260.9 42.8 260.9 43 261 43.3L263.9 42.8Z" fill="#FFFFFF"/><path d="M280.6 46C280.4 46.1 280.1 46.2 279.9 46.3 279.7 46.4 279.5 46.5 279.2 46.5 279 46.6 278.7 46.6 278.5 46.7 278.2 46.8 277.9 46.8 277.6 46.9 277.3 46.9 277 47 276.6 46.9 276.2 46.8 275.9 46.8 275.6 46.7 275.3 46.6 275 46.3 274.8 46 274.6 45.7 274.4 45.2 274.3 44.6L273.5 39.6 272.1 39.8 272.2 37.2 273.1 37.1 272.7 34.5 276.1 32.8 276.7 36.6 278.7 36.3 279.1 38.8 277.1 39.1 277.7 43.1C277.8 43.5 277.9 43.8 278 43.9 278.1 44 278.4 44.1 278.7 44.1 279 44 279.4 43.9 279.7 43.7L280.6 46Z" fill="#FFFFFF"/><path d="M291.7 39.4C291.9 40.5 291.8 41.4 291.6 42.1 291.4 42.8 291.1 43.4 290.6 43.9 290.2 44.4 289.6 44.7 289 44.9 288.4 45.1 287.8 45.3 287.1 45.4 286.5 45.5 285.8 45.5 285.1 45.5 284.4 45.5 283.8 45.3 283.2 45 282.6 44.7 282.1 44.2 281.7 43.6 281.3 43 281 42.1 280.8 41 280.6 39.9 280.7 39 280.9 38.3 281.1 37.6 281.5 37 281.9 36.5 282.3 36 282.9 35.7 283.5 35.5 284.1 35.3 284.8 35.1 285.4 35 286 34.9 286.7 34.9 287.4 34.9 288.1 34.9 288.7 35.1 289.2 35.4 289.8 35.7 290.3 36.2 290.7 36.8 291.1 37.4 291.6 38.3 291.7 39.4ZM286.8 43.1C287.1 43.1 287.3 43 287.5 42.9 287.7 42.8 287.9 42.6 288 42.4 288.1 42.2 288.2 41.9 288.2 41.5 288.2 41.1 288.2 40.6 288.1 40.1 288 39.5 287.9 39.1 287.8 38.7 287.7 38.3 287.5 38.1 287.3 37.9 287.1 37.7 286.9 37.6 286.7 37.5 286.5 37.4 286.2 37.4 286 37.5 285.7 37.5 285.5 37.6 285.3 37.7 285.1 37.8 284.9 38 284.8 38.2 284.7 38.4 284.6 38.7 284.6 39.1 284.6 39.5 284.6 39.9 284.7 40.5 284.8 41.1 284.9 41.5 285 41.9 285.1 42.3 285.3 42.5 285.5 42.7 285.7 42.9 285.9 43 286.1 43.1 286.3 43.1 286.5 43.1 286.8 43.1Z" fill="#FFFFFF"/><path d="M180.5 92.3C180.3 92.4 180 92.5 179.8 92.6 179.6 92.7 179.4 92.8 179.1 92.8 178.9 92.9 178.6 92.9 178.4 93 178.1 93.1 177.8 93.1 177.5 93.2 177.2 93.2 176.9 93.3 176.5 93.2 176.1 93.1 175.8 93.1 175.5 93 175.2 92.9 174.9 92.6 174.7 92.3 174.5 92 174.3 91.5 174.2 90.9L173.4 85.9 172 86.1 172.1 83.5 173 83.4 172.6 80.8 176 79.1 176.6 82.9 178.6 82.6 179 85.1 177 85.4 177.6 89.4C177.7 89.8 177.8 90.1 177.9 90.2 178.1 90.4 178.3 90.4 178.6 90.4 178.9 90.3 179.3 90.2 179.6 90L180.5 92.3Z" fill="#FFFFFF"/><path d="M190.9 90.7C190.7 90.8 190.4 90.9 190.1 91 189.8 91.1 189.5 91.2 189.1 91.3 188.7 91.4 188.4 91.5 188.1 91.5 187.8 91.6 187.4 91.6 187.2 91.7 186.1 91.9 185.2 91.9 184.5 91.7 183.8 91.6 183.2 91.3 182.7 90.9 182.2 90.5 181.9 90.1 181.6 89.5 181.3 88.9 181.2 88.3 181.1 87.6 181 86.9 181 86.2 181 85.6 181.1 84.9 181.3 84.3 181.6 83.7 181.9 83.1 182.4 82.6 183 82.2 183.6 81.8 184.4 81.5 185.3 81.4 186.2 81.3 187 81.3 187.6 81.4 188.3 81.5 188.8 81.8 189.3 82.1 189.8 82.4 190.1 82.9 190.4 83.4 190.7 83.9 190.8 84.5 190.9 85.1 190.9 85.3 191 85.6 191 85.9 191 86.2 191.1 86.5 191.1 86.8L184.8 87.8C184.9 88.4 185.1 88.7 185.6 89 186.1 89.3 186.7 89.3 187.7 89.1 188.4 89 189 88.8 189.6 88.6 190.2 88.4 190.8 88.2 191.2 87.9L190.9 90.7ZM187.3 85.5C187.2 84.7 187.1 84.2 186.7 84 186.4 83.7 186 83.6 185.5 83.7 185.2 83.7 185 83.8 184.8 84 184.6 84.1 184.5 84.3 184.4 84.5 184.3 84.7 184.3 84.9 184.3 85.2 184.3 85.5 184.3 85.7 184.4 86L187.3 85.5Z" fill="#FFFFFF"/><path d="M198.6 89.5C198.5 89.6 198.3 89.6 198.1 89.7 197.9 89.8 197.7 89.9 197.4 90 197.2 90.1 196.9 90.2 196.6 90.2 196.3 90.3 196 90.3 195.7 90.4 195.5 90.4 195.2 90.4 195 90.4 194.7 90.4 194.5 90.3 194.3 90.2 194.1 90.1 193.9 89.9 193.7 89.6 193.5 89.3 193.4 89 193.3 88.6L191.4 76.4 195 75.9 196.7 87.3C196.8 87.6 196.9 87.8 197.3 87.7 197.4 87.7 197.5 87.7 197.6 87.6 197.7 87.6 197.8 87.5 197.9 87.5L198.6 89.5Z" fill="#FFFFFF"/><path d="M204.8 88.6C204.7 88.7 204.5 88.7 204.3 88.8 204.1 88.9 203.9 89 203.6 89.1 203.4 89.2 203.1 89.3 202.8 89.3 202.5 89.4 202.2 89.4 201.9 89.5 201.7 89.5 201.4 89.5 201.2 89.5 200.9 89.5 200.7 89.4 200.5 89.3 200.3 89.2 200.1 89 199.9 88.7 199.7 88.4 199.6 88.1 199.5 87.7L197.6 75.5 201.2 75 202.9 86.4C203 86.7 203.1 86.9 203.5 86.8 203.6 86.8 203.7 86.8 203.8 86.7 203.9 86.6 204 86.6 204.1 86.6L204.8 88.6Z" fill="#FFFFFF"/><path d="M216.4 86.8C216.2 86.9 215.9 87 215.7 87.1 215.5 87.2 215.3 87.3 215 87.3 214.8 87.4 214.5 87.4 214.3 87.5 214 87.6 213.7 87.6 213.4 87.7 213.1 87.7 212.8 87.8 212.4 87.7 212.1 87.7 211.7 87.6 211.4 87.5 211.1 87.4 210.8 87.1 210.6 86.8 210.4 86.5 210.2 86 210.1 85.4L209.3 80.4 207.9 80.6 208 78 208.9 77.9 208.5 75.3 211.9 73.6 212.5 77.4 214.5 77.1 214.9 79.6 212.9 79.9 213.5 83.9C213.6 84.3 213.7 84.6 213.8 84.7 213.9 84.8 214.2 84.9 214.5 84.9 214.8 84.8 215.2 84.7 215.5 84.5L216.4 86.8Z" fill="#FFFFFF"/><path d="M229.3 84.8C229.2 84.9 229 84.9 228.8 85 228.6 85.1 228.4 85.2 228.1 85.3 227.9 85.4 227.6 85.5 227.3 85.5 227 85.5 226.7 85.6 226.4 85.7 226.2 85.7 225.9 85.7 225.7 85.7 225.4 85.7 225.2 85.6 225 85.5 224.8 85.4 224.6 85.2 224.4 84.9 224.2 84.6 224.1 84.3 224 83.9L223.4 79.7C223.4 79.5 223.3 79.4 223.3 79.2 223.3 79.1 223.2 79 223.2 78.9 223.1 78.8 223 78.8 222.9 78.7 222.8 78.7 222.6 78.7 222.4 78.7 222.2 78.7 222 78.8 221.8 78.9 221.6 79 221.5 79.1 221.3 79.2 221.1 79.3 221 79.4 220.9 79.5 220.8 79.6 220.7 79.7 220.7 79.8L221.7 86.2 218.1 86.7 215.9 72.6 219.5 72.1 220.3 77.2C220.4 77.1 220.6 76.9 220.8 76.7 221 76.5 221.2 76.4 221.4 76.2 221.6 76 221.9 75.9 222.2 75.8 222.5 75.7 222.9 75.6 223.3 75.5 223.8 75.4 224.3 75.4 224.7 75.4 225.1 75.4 225.4 75.5 225.7 75.7 226 75.9 226.2 76.2 226.4 76.6 226.6 77 226.7 77.5 226.8 78.2L227.5 82.6C227.5 82.8 227.6 82.9 227.7 83 227.8 83.1 227.9 83.1 228.1 83.1 228.2 83.1 228.3 83.1 228.4 83 228.5 83 228.6 82.9 228.7 82.9L229.3 84.8Z" fill="#FFFFFF"/><path d="M239.4 83.3C239.2 83.4 238.9 83.5 238.6 83.6 238.3 83.7 238 83.8 237.6 83.9 237.3 84 236.9 84.1 236.6 84.1 236.3 84.1 235.9 84.2 235.7 84.3 234.6 84.5 233.7 84.5 233 84.3 232.3 84.2 231.7 83.9 231.2 83.5 230.7 83.1 230.4 82.7 230.1 82.1 229.8 81.5 229.7 80.9 229.6 80.2 229.5 79.5 229.5 78.8 229.5 78.2 229.6 77.5 229.8 76.9 230.1 76.3 230.4 75.7 230.9 75.2 231.5 74.8 232.1 74.4 232.9 74.1 233.8 74 234.7 73.9 235.5 73.9 236.1 74 236.8 74.1 237.3 74.4 237.8 74.7 238.3 75 238.6 75.5 238.9 76 239.2 76.5 239.3 77.1 239.4 77.7 239.4 77.9 239.5 78.2 239.5 78.5 239.5 78.8 239.6 79.1 239.6 79.4L233.3 80.4C233.4 81 233.6 81.3 234.1 81.6 234.5 81.8 235.2 81.9 236.2 81.7 236.9 81.6 237.5 81.4 238.1 81.2 238.7 81 239.3 80.8 239.7 80.5L239.4 83.3ZM235.8 78C235.7 77.2 235.6 76.7 235.2 76.5 234.9 76.2 234.5 76.1 234 76.2 233.7 76.2 233.5 76.3 233.3 76.5 233.1 76.6 233 76.8 232.9 77 232.8 77.2 232.8 77.4 232.8 77.7 232.8 78 232.8 78.2 232.9 78.5L235.8 78Z" fill="#FFFFFF"/><path d="M253 81.4 250.6 77.4 249.4 77.6 250.1 81.9 246.1 82.5 244 68.4 249.2 67.6C250.3 67.4 251.2 67.4 251.9 67.6 252.6 67.8 253.3 68 253.8 68.4 254.3 68.8 254.7 69.3 255 69.8 255.3 70.3 255.5 70.9 255.6 71.6 255.7 72.5 255.7 73.4 255.4 74.1 255.1 74.8 254.7 75.5 254.1 76L257.5 80.8 253 81.4ZM250 74.5C250.6 74.4 251.1 74.2 251.3 73.8 251.5 73.4 251.6 72.9 251.5 72.3 251.4 71.7 251.2 71.2 250.9 71 250.6 70.8 250.1 70.6 249.5 70.7L248.4 70.9 249 74.7 250 74.5Z" fill="#FFFFFF"/><path d="M270.4 78.5C270.3 78.6 270.1 78.7 269.9 78.8 269.7 78.9 269.4 79 269.2 79.1 269 79.2 268.7 79.2 268.4 79.3 268.1 79.4 267.9 79.4 267.6 79.4 267.2 79.5 266.9 79.5 266.7 79.4 266.4 79.3 266.2 79.3 266 79.2 265.8 79.1 265.7 79 265.6 78.9 265.5 78.8 265.4 78.7 265.3 78.5 264.8 79 264.4 79.4 263.9 79.7 263.4 80 262.8 80.2 262.3 80.3 261.8 80.4 261.4 80.4 261 80.4 260.6 80.4 260.3 80.2 260 80.1 259.7 79.9 259.5 79.6 259.3 79.2 259.1 78.8 259 78.3 258.9 77.7L257.8 70.7 261.4 70.2 262.3 76.2C262.4 76.6 262.5 76.9 262.6 77 262.7 77.2 263 77.2 263.3 77.2 263.5 77.2 263.7 77.1 263.9 77 264.1 76.9 264.2 76.8 264.4 76.7 264.5 76.6 264.7 76.5 264.8 76.3 264.9 76.2 265 76.1 265 76L264 69.7 267.5 69.2 268.6 76.5C268.7 76.8 268.8 77 269.2 76.9 269.3 76.9 269.4 76.9 269.5 76.8 269.6 76.8 269.7 76.7 269.8 76.7L270.4 78.5Z" fill="#FFFFFF"/><path d="M276.6 77.6C276.5 77.7 276.3 77.7 276.1 77.8 275.9 77.9 275.7 78 275.4 78.1 275.2 78.2 274.9 78.3 274.6 78.3 274.3 78.4 274 78.4 273.7 78.5 273.5 78.5 273.2 78.5 273 78.5 272.7 78.5 272.5 78.4 272.3 78.3 272.1 78.2 271.9 78 271.7 77.7 271.5 77.4 271.4 77.1 271.3 76.7L269.4 64.5 273 64 274.7 75.4C274.8 75.7 274.9 75.9 275.3 75.8 275.4 75.8 275.5 75.8 275.6 75.7 275.7 75.6 275.8 75.6 275.9 75.6L276.6 77.6Z" fill="#FFFFFF"/><path d="M286.7 76C286.5 76.1 286.2 76.2 285.9 76.3 285.6 76.4 285.3 76.5 284.9 76.6 284.6 76.7 284.2 76.8 283.9 76.8 283.6 76.9 283.2 76.9 283 77 281.9 77.2 281 77.2 280.3 77 279.6 76.9 279 76.6 278.5 76.2 278 75.8 277.7 75.4 277.4 74.8 277.1 74.2 277 73.6 276.9 72.9 276.8 72.2 276.8 71.5 276.8 70.9 276.9 70.2 277.1 69.6 277.4 69 277.7 68.4 278.2 67.9 278.8 67.5 279.4 67.1 280.2 66.8 281.1 66.7 282 66.6 282.8 66.6 283.4 66.7 284.1 66.8 284.6 67.1 285.1 67.4 285.6 67.7 285.9 68.2 286.2 68.7 286.5 69.2 286.6 69.8 286.7 70.4 286.7 70.6 286.8 70.9 286.8 71.2 286.8 71.5 286.9 71.8 286.9 72.1L280.6 73.1C280.7 73.7 280.9 74 281.4 74.3 281.8 74.5 282.5 74.6 283.5 74.4 284.2 74.3 284.8 74.1 285.4 73.9 286 73.7 286.6 73.5 287 73.2L286.7 76ZM283.2 70.8C283.1 70 283 69.5 282.6 69.3 282.3 69 281.9 68.9 281.4 69 281.1 69 280.9 69.1 280.7 69.3 280.5 69.4 280.4 69.6 280.3 69.8 280.2 70 280.2 70.2 280.2 70.5 280.2 70.8 280.2 71 280.3 71.3L283.2 70.8Z" fill="#FFFFFF"/><path d="M289 73C289.2 73.1 289.4 73.1 289.6 73.1 289.8 73.1 290.1 73.2 290.4 73.2 290.7 73.2 290.9 73.2 291.2 73.2 291.5 73.2 291.7 73.2 292 73.1 292.5 73 292.8 72.9 293 72.8 293.2 72.7 293.2 72.5 293.2 72.3 293.2 72.1 293 71.9 292.8 71.8 292.6 71.7 292.3 71.6 291.9 71.5 291.6 71.4 291.2 71.3 290.8 71.3 290.4 71.2 290 71.1 289.6 70.9 289.2 70.7 288.9 70.4 288.6 70.1 288.3 69.7 288.1 69.3 288 68.7 287.9 68.2 288 67.7 288.1 67.3 288.3 66.9 288.5 66.6 288.9 66.3 289.3 66 289.7 65.8 290.2 65.6 290.7 65.4 291.3 65.3 291.9 65.2 292.5 65.1 293 65.1 293.6 65.1 294.2 65.1 294.8 65.1 295.3 65.2L295.2 67.8C294.8 67.7 294.4 67.6 293.9 67.5 293.5 67.4 293 67.4 292.5 67.5 292.1 67.6 291.9 67.6 291.8 67.8 291.7 67.9 291.6 68.1 291.7 68.3 291.7 68.5 291.9 68.6 292.1 68.7 292.3 68.8 292.6 68.9 293 68.9 293.4 68.9 293.7 69.1 294.1 69.2 294.5 69.3 294.9 69.5 295.2 69.7 295.6 69.9 295.9 70.2 296.2 70.6 296.5 71 296.7 71.5 296.8 72.1 296.9 72.6 296.8 73 296.7 73.5 296.5 73.9 296.3 74.3 295.9 74.6 295.6 74.9 295.1 75.2 294.6 75.4 294.1 75.6 293.5 75.8 292.9 75.9 292 76 291.3 76.1 290.6 76.1 290 76.1 289.4 76.1 288.9 76L289 73Z" fill="#FFFFFF"/><path d="M211.2 113.7C211.4 114.8 211.3 115.7 211.1 116.4 210.9 117.1 210.6 117.7 210.1 118.2 209.7 118.7 209.1 119 208.5 119.2 207.9 119.4 207.3 119.6 206.6 119.7 206 119.8 205.3 119.8 204.6 119.8 203.9 119.8 203.3 119.6 202.7 119.3 202.1 119 201.6 118.5 201.2 117.9 200.8 117.3 200.5 116.4 200.3 115.3 200.1 114.2 200.2 113.3 200.4 112.6 200.6 111.9 201 111.3 201.4 110.8 201.9 110.3 202.4 110 203 109.8 203.6 109.6 204.3 109.4 204.9 109.3 205.5 109.2 206.2 109.2 206.9 109.2 207.6 109.2 208.2 109.4 208.7 109.7 209.2 110 209.8 110.5 210.2 111.1 210.8 111.7 211.1 112.6 211.2 113.7ZM206.3 117.3C206.6 117.3 206.8 117.2 207 117.1 207.2 117 207.4 116.8 207.5 116.6 207.6 116.4 207.7 116.1 207.7 115.7 207.7 115.3 207.7 114.8 207.6 114.3 207.5 113.8 207.4 113.3 207.3 112.9 207.2 112.5 207 112.3 206.8 112.1 206.6 111.9 206.4 111.8 206.2 111.7 206 111.6 205.7 111.6 205.5 111.7 205.2 111.7 205 111.8 204.8 111.9 204.6 112 204.4 112.2 204.3 112.4 204.2 112.6 204.1 112.9 204.1 113.3 204.1 113.7 204.1 114.1 204.2 114.7 204.3 115.3 204.4 115.7 204.5 116.1 204.6 116.5 204.8 116.7 205 116.9 205.2 117.1 205.4 117.2 205.6 117.3 205.8 117.4 206 117.4 206.3 117.3Z" fill="#FFFFFF"/><path d="M214.8 118.2 213.6 110.6 211.8 110.9 211.9 108.3 213.1 108.1 213 107.2C212.9 106.6 212.9 106 213 105.5 213.1 105 213.3 104.6 213.5 104.3 213.8 104 214.2 103.7 214.7 103.5 215.2 103.3 215.8 103.1 216.6 103 217 102.9 217.4 102.9 217.9 102.9 218.4 102.9 218.8 102.9 219.4 102.9L219.2 105.5C219.1 105.5 219 105.5 218.9 105.5 218.8 105.5 218.6 105.5 218.5 105.5 218.4 105.5 218.2 105.5 218.1 105.5 218 105.5 217.8 105.5 217.7 105.5 217.5 105.5 217.3 105.6 217.1 105.6 216.9 105.6 216.8 105.7 216.7 105.8 216.6 105.9 216.6 106 216.5 106.2 216.5 106.4 216.5 106.6 216.5 106.8L216.6 107.5 218.9 107.1 219.3 109.6 217 110 218.2 117.6 214.8 118.2Z" fill="#FFFFFF"/><path d="M233 114.5C232.8 114.7 232.7 114.8 232.5 114.9 232.3 115 232.1 115.1 231.9 115.2 231.7 115.3 231.4 115.4 231.1 115.5 230.8 115.6 230.5 115.7 230.1 115.7 229.6 115.8 229.1 115.8 228.6 115.7 228.1 115.6 227.6 115.4 227.2 115 226.8 114.7 226.4 114.2 226.1 113.5 225.8 112.8 225.6 112.1 225.4 111.1 225.2 109.5 225.4 108.3 226.1 107.3 226.8 106.3 228 105.7 229.6 105.5 230.7 105.3 231.7 105.2 232.6 105.2 233.5 105.2 234.4 105.1 235.1 105.2L236.4 113.4C236.5 114.3 236.6 115.1 236.5 115.8 236.4 116.5 236.3 117 236.1 117.5 235.9 118 235.6 118.3 235.2 118.6 234.8 118.9 234.4 119.1 234 119.3 233.6 119.5 233.1 119.6 232.6 119.7 232.1 119.8 231.6 119.9 231 120 230.2 120.1 229.5 120.2 228.8 120.1 228.1 120.1 227.4 120 226.8 119.9L226.9 117.2C227.4 117.3 227.9 117.4 228.5 117.4 229.1 117.5 229.8 117.4 230.6 117.3 231.1 117.2 231.5 117.1 231.8 117 232.1 116.9 232.4 116.8 232.6 116.6 232.8 116.4 232.9 116.2 233 116 233.1 115.8 233.1 115.5 233 115.1L233 114.5ZM232 107.9C231.8 107.9 231.5 107.9 231.3 107.9 231.1 107.9 230.8 107.9 230.5 108 230.2 108 230 108.1 229.8 108.2 229.6 108.3 229.4 108.4 229.3 108.6 229.2 108.8 229.1 109.1 229.1 109.4 229.1 109.7 229.1 110.2 229.2 110.7 229.4 111.7 229.6 112.4 229.9 112.7 230.2 113.1 230.6 113.2 231.1 113.2 231.3 113.2 231.5 113.1 231.7 113 231.9 112.9 232.1 112.8 232.3 112.6 232.5 112.4 232.6 112.2 232.6 111.9 232.7 111.6 232.7 111.2 232.6 110.7L232 107.9Z" fill="#FFFFFF"/><path d="M249.4 112.6C249.3 112.7 249.1 112.8 248.9 112.9 248.7 113 248.4 113.1 248.2 113.2 248 113.3 247.7 113.3 247.4 113.4 247.1 113.5 246.9 113.5 246.7 113.5 246.4 113.5 246.1 113.6 245.9 113.5 245.7 113.5 245.5 113.4 245.3 113.4 245.1 113.3 245 113.2 244.9 113.1 244.8 113 244.7 112.9 244.6 112.8 244.4 113.1 244.1 113.4 243.7 113.7 243.3 114 242.7 114.1 242 114.2 241.4 114.3 240.9 114.3 240.5 114.2 240.1 114.1 239.7 114 239.4 113.8 239.1 113.6 238.9 113.3 238.7 113 238.5 112.7 238.4 112.3 238.3 111.9 238.2 111.2 238.2 110.6 238.5 110.1 238.7 109.6 239 109.2 239.4 108.8 239.8 108.4 240.3 108.2 240.9 107.9 241.5 107.7 242.1 107.5 242.7 107.4 242.9 107.4 243 107.4 243.2 107.3 243.4 107.3 243.5 107.3 243.6 107.3L243.6 107C243.6 106.8 243.5 106.6 243.4 106.5 243.3 106.4 243.2 106.3 243.1 106.2 243 106.1 242.8 106.1 242.5 106.1 242.2 106.1 241.9 106.1 241.5 106.2 241 106.3 240.4 106.4 239.9 106.6 239.3 106.8 238.8 107 238.4 107.3L238.5 104.6C238.9 104.4 239.4 104.2 240 104 240.6 103.8 241.2 103.7 241.8 103.6 242.5 103.5 243.2 103.4 243.8 103.4 244.4 103.4 244.9 103.5 245.4 103.7 245.9 103.9 246.2 104.2 246.5 104.7 246.8 105.2 247 105.8 247.1 106.6L247.7 110.3C247.7 110.5 247.8 110.6 247.9 110.7 248 110.8 248.1 110.8 248.3 110.8 248.4 110.8 248.5 110.8 248.6 110.7 248.7 110.7 248.8 110.6 248.9 110.6L249.4 112.6ZM243.8 109.3C243.7 109.3 243.6 109.3 243.5 109.3 243.4 109.3 243.2 109.3 243.1 109.4 242.5 109.5 242.1 109.6 241.9 109.8 241.7 110 241.6 110.3 241.6 110.6 241.6 110.9 241.7 111.1 241.8 111.2 241.9 111.3 242 111.4 242.1 111.5 242.2 111.6 242.3 111.6 242.5 111.6 242.7 111.6 242.8 111.6 242.9 111.6 243.3 111.5 243.6 111.4 243.8 111.1 244 110.9 244 110.5 243.9 109.9L243.8 109.3Z" fill="#FFFFFF"/><path d="M267.7 109.9C267.6 110 267.4 110 267.2 110.1 267 110.2 266.8 110.3 266.5 110.4 266.3 110.5 266 110.6 265.7 110.6 265.4 110.7 265.1 110.7 264.8 110.8 264.6 110.8 264.3 110.8 264.1 110.8 263.8 110.8 263.6 110.7 263.4 110.6 263.2 110.5 263 110.3 262.8 110 262.6 109.7 262.5 109.4 262.4 109L261.7 104.6C261.6 104.3 261.6 104 261.4 103.9 261.3 103.8 261 103.8 260.7 103.8 260.6 103.8 260.5 103.9 260.3 103.9 260.2 104 260 104.1 259.9 104.2 259.8 104.3 259.6 104.4 259.5 104.5 259.4 104.6 259.3 104.7 259.2 104.9L260.2 111.2 256.6 111.7 255.6 105.4C255.6 105.1 255.5 104.9 255.4 104.8 255.3 104.7 255 104.6 254.7 104.7 254.5 104.7 254.4 104.8 254.2 104.9 254 105 253.9 105.1 253.8 105.2 253.7 105.3 253.5 105.4 253.4 105.5 253.3 105.6 253.2 105.7 253.1 105.8L254.1 112.1 250.5 112.6 249 102.6 252.6 102.1 252.8 103.1C252.9 102.9 253.1 102.8 253.3 102.6 253.5 102.4 253.7 102.3 253.9 102.1 254.1 101.9 254.4 101.8 254.7 101.7 255 101.6 255.3 101.5 255.7 101.4 256.4 101.3 257 101.3 257.5 101.4 258 101.5 258.4 101.8 258.7 102.3 259.1 101.9 259.6 101.5 260.1 101.1 260.6 100.8 261.2 100.5 261.9 100.4 262.4 100.3 262.8 100.3 263.2 100.3 263.6 100.3 263.9 100.4 264.2 100.6 264.5 100.8 264.7 101.1 264.9 101.5 265.1 101.9 265.2 102.4 265.3 103L266 107.4C266.1 107.7 266.2 107.9 266.6 107.8 266.7 107.8 266.8 107.8 266.9 107.7 267 107.7 267.1 107.6 267.2 107.6L267.7 109.9Z" fill="#FFFFFF"/><path d="M277.8 108.3C277.6 108.4 277.3 108.5 277 108.6 276.7 108.7 276.4 108.8 276 108.9 275.7 109 275.3 109.1 275 109.1 274.7 109.2 274.3 109.2 274.1 109.3 273 109.5 272.1 109.5 271.4 109.3 270.7 109.1 270.1 108.9 269.6 108.5 269.1 108.1 268.8 107.7 268.5 107.1 268.2 106.5 268.1 105.9 268 105.2 267.9 104.5 267.9 103.8 267.9 103.2 267.9 102.6 268.2 101.9 268.5 101.3 268.8 100.7 269.3 100.2 269.9 99.8 270.5 99.4 271.3 99.1 272.2 99 273.1 98.9 273.9 98.9 274.5 99 275.2 99.1 275.7 99.4 276.2 99.7 276.7 100 277 100.5 277.3 101 277.6 101.5 277.7 102.1 277.8 102.7 277.8 102.9 277.9 103.2 277.9 103.5 277.9 103.8 278 104.1 278 104.4L271.7 105.4C271.8 106 272 106.3 272.5 106.6 272.9 106.8 273.6 106.9 274.6 106.7 275.3 106.6 275.9 106.4 276.5 106.2 277.1 106 277.7 105.8 278.1 105.5L277.8 108.3ZM274.2 103.1C274.1 102.3 274 101.8 273.6 101.6 273.3 101.3 272.9 101.2 272.4 101.3 272.1 101.3 271.9 101.4 271.7 101.6 271.5 101.7 271.4 101.9 271.3 102.1 271.2 102.3 271.2 102.5 271.2 102.8 271.2 103.1 271.2 103.3 271.3 103.6L274.2 103.1Z" fill="#FFFFFF"/></g></svg>