<svg viewBox="0 0 389.49 125.44" xmlns="http://www.w3.org/2000/svg" xmlns:xlink="http://www.w3.org/1999/xlink" id="Layer_1" overflow="hidden"><defs><linearGradient x1="22.78" y1="-43.11" x2="233.56" y2="115.17" gradientUnits="userSpaceOnUse" id="linear-gradient"><stop offset="0" stop-color="#FFFFFF"/><stop offset="0.09" stop-color="#EAEDD8"/><stop offset="0.38" stop-color="#ADBC67"/><stop offset="0.51" stop-color="#95A93B"/></linearGradient></defs><rect x="0" y="8.97" rx="54.66" ry="54.66" width="385.74" height="116.47" fill="#231F20" opacity="0.56"/><rect x="3.26" y="0.5" rx="54.66" ry="54.66" width="385.74" height="116.47" stroke="#294D24" stroke-miterlimit="10" fill="#95A93B"/><path d="M276.05 4.21C222.41 7.21 81.88 12.85 53.64 42.32 35.51 61.25 32.16 83.6 37.58 109.03 17.82 100.56 11.54 84.08 8.99 76.56 6.02 67.8 1.17 30.98 27.88 13.56 42.37 4.11 52.59 4.74 52.59 4.74 52.59 4.74 231.41 4.21 276.06 4.21Z" fill="url(#linear-gradient)" opacity="0.78"/><g><g><path d="M332.29 29.73 319.22 29.73 348.49 59.01 319.22 88.28 332.29 88.28 361.57 59.01 332.29 29.73Z" fill="#32492B"/><path d="M314.6 29.73 301.52 29.73 330.8 59.01 301.52 88.28 314.6 88.28 343.87 59.01 314.6 29.73Z" fill="#32492B"/></g><g><path d="M329.57 28.77 316.5 28.77 345.77 58.05 316.5 87.32 329.57 87.32 358.84 58.05 329.57 28.77Z" fill="#F7F8F9"/><path d="M311.87 28.77 298.8 28.77 328.07 58.05 298.8 87.32 311.87 87.32 341.15 58.05 311.87 28.77Z" fill="#F7F8F9"/></g></g><g><g><path d="M91.33 62.18 83.53 62.18 83.53 74.58 78.3 74.58 78.3 41.76 91.33 41.76C92.01 41.76 92.66 41.79 93.28 41.85 93.9 41.91 94.51 42 95.09 42.11 95.67 42.22 96.23 42.36 96.76 42.53 98.29 43.03 99.57 43.73 100.59 44.65 101.61 45.57 102.39 46.66 102.91 47.92 103 48.13 103.08 48.34 103.16 48.56 103.24 48.78 103.3 49 103.35 49.21 103.4 49.42 103.45 49.65 103.5 49.89 103.55 50.13 103.58 50.36 103.61 50.59 103.64 50.82 103.66 51.06 103.68 51.3 103.7 51.54 103.7 51.78 103.7 52.02 103.7 52.22 103.7 52.41 103.69 52.61 103.69 52.81 103.67 53 103.66 53.18 103.65 53.36 103.62 53.56 103.59 53.74 103.56 53.93 103.53 54.11 103.5 54.29 103.47 54.47 103.44 54.65 103.4 54.82 103.36 54.99 103.32 55.16 103.26 55.33 103.21 55.5 103.15 55.66 103.09 55.83 103.03 56 102.97 56.16 102.91 56.33 102.64 56.96 102.31 57.55 101.93 58.09 101.55 58.63 101.1 59.12 100.59 59.56 99.55 60.42 98.27 61.07 96.74 61.52 95.96 61.75 95.12 61.91 94.22 62.03 93.32 62.15 92.36 62.2 91.33 62.2ZM83.53 46.22 83.53 57.74 91.33 57.74C91.59 57.74 91.84 57.74 92.08 57.72 92.33 57.71 92.56 57.69 92.79 57.66 93.02 57.63 93.24 57.61 93.46 57.58 93.68 57.55 93.88 57.51 94.08 57.47 94.28 57.43 94.46 57.37 94.64 57.31 95.54 57.02 96.28 56.63 96.85 56.14 97.14 55.88 97.38 55.61 97.58 55.32 97.78 55.03 97.95 54.71 98.09 54.38 98.18 54.14 98.25 53.9 98.3 53.65 98.35 53.4 98.39 53.15 98.42 52.88 98.45 52.62 98.47 52.34 98.47 52.06 98.47 51.29 98.34 50.56 98.09 49.85 98.01 49.67 97.94 49.5 97.85 49.33 97.77 49.16 97.67 49.01 97.57 48.86 97.47 48.71 97.35 48.56 97.23 48.42 97.11 48.28 96.97 48.14 96.82 48 96.26 47.46 95.53 47.03 94.61 46.71 93.69 46.38 92.6 46.21 91.32 46.21L83.52 46.21Z" fill="#484646"/><path d="M112.85 74.58 107.78 74.58 107.78 39.96 112.85 39.96 112.85 74.58Z" fill="#484646"/><path d="M134.5 74.58 134.36 74.33C134.27 74.15 134.19 73.96 134.13 73.75 134.07 73.54 134.01 73.32 133.95 73.06 133.93 72.97 133.92 72.87 133.89 72.77 133.87 72.67 133.85 72.57 133.83 72.48 133.57 72.69 133.31 72.89 133.04 73.07 132.48 73.46 131.88 73.81 131.21 74.11 130.55 74.4 129.83 74.62 129.05 74.79 128.66 74.87 128.26 74.93 127.86 74.97 127.46 75.01 127.04 75.04 126.62 75.04 126.26 75.04 125.91 75.03 125.57 75.01 125.23 74.99 124.9 74.95 124.58 74.9 124.26 74.85 123.94 74.78 123.63 74.71 123.32 74.63 123.04 74.55 122.79 74.46 121.71 74.07 120.79 73.54 120.04 72.88 119.27 72.2 118.68 71.41 118.27 70.5 117.86 69.59 117.65 68.62 117.65 67.58 117.65 66.24 117.92 65.06 118.46 64.02 118.73 63.51 119.06 63.04 119.45 62.6 119.84 62.16 120.29 61.77 120.8 61.43 121.79 60.74 123.03 60.22 124.52 59.88 125.03 59.76 125.56 59.66 126.1 59.59 126.64 59.51 127.2 59.46 127.78 59.42 128.36 59.38 128.96 59.36 129.59 59.36L133.6 59.36 133.6 58.01C133.6 57.38 133.49 56.82 133.28 56.34 133.07 55.86 132.75 55.45 132.33 55.1 132.04 54.86 131.72 54.66 131.35 54.5 130.98 54.34 130.55 54.22 130.06 54.14 129.57 54.06 129.04 54.02 128.47 54.02 128.26 54.02 128.06 54.02 127.87 54.04 127.68 54.06 127.49 54.07 127.31 54.1 127.13 54.13 126.94 54.15 126.77 54.19 126.6 54.23 126.44 54.27 126.29 54.31 126.06 54.37 125.85 54.44 125.66 54.52 125.46 54.6 125.28 54.69 125.11 54.78 124.94 54.87 124.78 54.97 124.63 55.07 124.48 55.18 124.34 55.29 124.21 55.41 124.08 55.53 123.97 55.65 123.86 55.78 123.75 55.91 123.66 56.04 123.59 56.17 123.35 56.56 123.23 56.97 123.23 57.41L123.23 57.86 118.14 57.86 118.14 57.41C118.14 56.46 118.39 55.53 118.88 54.62 119.36 53.7 120.04 52.88 120.93 52.16 121.82 51.44 122.91 50.86 124.22 50.42 125.57 49.97 127.08 49.74 128.73 49.74 130.23 49.74 131.62 49.91 132.88 50.26 133.3 50.38 133.71 50.52 134.1 50.67 134.46 50.82 134.8 50.99 135.11 51.19 135.43 51.39 135.73 51.6 136.01 51.84 136.85 52.53 137.51 53.4 137.99 54.45 138.23 54.98 138.41 55.54 138.53 56.14 138.65 56.74 138.71 57.39 138.71 58.08L138.71 69.01C138.71 69.78 138.78 70.59 138.91 71.44 139.06 72.28 139.26 73 139.52 73.6L139.57 73.69 139.57 74.57 134.48 74.57ZM125.26 70.23C125.83 70.41 126.51 70.5 127.29 70.5 128.07 70.5 128.78 70.41 129.45 70.23 130.13 70.03 130.74 69.79 131.3 69.49 131.86 69.19 132.34 68.85 132.74 68.48 133.1 68.13 133.39 67.77 133.62 67.4L133.62 63.21 130.33 63.21C129.7 63.21 129.1 63.23 128.54 63.28 127.98 63.33 127.45 63.39 126.97 63.47 126.49 63.55 126.05 63.65 125.65 63.77 125.25 63.89 124.89 64.03 124.56 64.2 123.34 64.82 122.73 65.75 122.73 67.02 122.73 67.52 122.82 67.98 123 68.42 123.05 68.53 123.09 68.63 123.15 68.72 123.2 68.82 123.26 68.91 123.33 69 123.4 69.09 123.47 69.18 123.56 69.26 123.64 69.34 123.73 69.42 123.82 69.5 124.21 69.8 124.69 70.05 125.26 70.24Z" fill="#484646"/><path d="M147.1 50.51 153.21 67.46 158.89 50.51 159 50.19 164.43 50.19 164.2 50.78 154.03 78.05C153.77 78.67 153.45 79.34 153.06 80.06 152.64 80.81 152.1 81.5 151.44 82.13 150.78 82.78 149.99 83.32 149.07 83.75 148.11 84.2 147.03 84.43 145.82 84.43 145.64 84.43 145.43 84.41 145.19 84.38 144.96 84.35 144.74 84.32 144.5 84.28 144.27 84.24 144.05 84.2 143.86 84.16 143.65 84.11 143.48 84.08 143.36 84.05L143.02 83.96 143.02 79.66 143.58 79.82C143.58 79.82 143.69 79.82 143.76 79.84 143.87 79.84 143.97 79.84 144.08 79.86L144.25 79.86C144.3 79.86 144.36 79.86 144.42 79.88L144.6 79.88C145.28 79.88 145.87 79.82 146.38 79.7 146.86 79.58 147.3 79.38 147.71 79.1 148.12 78.82 148.47 78.46 148.77 78.01 149.09 77.53 149.38 76.92 149.65 76.18L150.57 73.93 141.67 50.78 141.44 50.19 146.96 50.19 147.07 50.51Z" fill="#484646"/><path d="M177.09 62.66 177.09 62.19C177.09 61.83 177.09 61.47 177.11 61.12 177.13 60.77 177.15 60.42 177.19 60.07 177.23 59.72 177.27 59.39 177.33 59.07 177.38 58.75 177.45 58.42 177.52 58.1 177.59 57.78 177.68 57.47 177.77 57.16 178.24 55.64 178.9 54.34 179.78 53.24 180.65 52.13 181.72 51.27 182.98 50.67 184.35 50.05 185.87 49.75 187.56 49.75 189.25 49.75 190.85 50.04 192.16 50.61 193.12 51.03 193.96 51.59 194.68 52.28L194.79 50.64 194.81 50.21 199.5 50.21 199.5 73.76C199.5 75.38 199.24 76.83 198.71 78.09 198.18 79.41 197.44 80.52 196.48 81.43 196.15 81.73 195.8 82.01 195.44 82.26 195.08 82.51 194.7 82.75 194.31 82.96 193.89 83.15 193.44 83.33 192.97 83.49 192.5 83.65 192 83.78 191.49 83.88 190.98 83.98 190.45 84.06 189.91 84.12 189.37 84.18 188.81 84.2 188.24 84.2 187.52 84.2 186.7 84.12 185.78 83.97 185.55 83.94 185.33 83.9 185.09 83.85 184.86 83.8 184.62 83.74 184.39 83.68 184.16 83.62 183.92 83.56 183.69 83.49 183.46 83.42 183.23 83.34 183 83.25 182.1 82.92 181.25 82.47 180.45 81.9 180.06 81.61 179.69 81.29 179.33 80.94 178.98 80.59 178.66 80.2 178.37 79.78L178.19 79.51 178.42 79.24 180.58 76.74 180.94 76.33 181.28 76.74C181.37 76.88 181.46 77 181.56 77.11 181.66 77.22 181.76 77.33 181.86 77.43 181.97 77.53 182.07 77.63 182.16 77.72 182.25 77.81 182.36 77.91 182.46 78 182.56 78.09 182.67 78.17 182.78 78.25 182.92 78.36 183.05 78.45 183.2 78.54 183.35 78.63 183.49 78.72 183.63 78.8 183.77 78.88 183.91 78.96 184.05 79.03 184.19 79.1 184.33 79.16 184.48 79.22 184.75 79.34 185.03 79.44 185.31 79.52 185.59 79.6 185.88 79.67 186.17 79.73 186.46 79.78 186.75 79.81 187.04 79.84 187.33 79.87 187.62 79.89 187.91 79.89 188.41 79.89 188.88 79.86 189.34 79.79 189.8 79.72 190.23 79.63 190.64 79.51 191.44 79.25 192.11 78.87 192.67 78.36 192.96 78.1 193.2 77.82 193.41 77.5 193.62 77.18 193.8 76.84 193.95 76.46 194.24 75.71 194.38 74.83 194.38 73.82L194.38 72.81C194.03 73.11 193.66 73.38 193.25 73.62 192.84 73.86 192.42 74.07 191.97 74.25 191.32 74.52 190.63 74.72 189.88 74.85 189.14 74.98 188.34 75.04 187.48 75.04 185.83 75.04 184.32 74.72 182.95 74.09 181.7 73.47 180.64 72.6 179.77 71.48 178.9 70.37 178.23 69.06 177.76 67.56 177.29 66.06 177.06 64.43 177.06 62.67ZM182.18 62.19 182.18 62.64C182.18 63.77 182.3 64.83 182.54 65.82 182.6 66.06 182.67 66.29 182.75 66.52 182.83 66.75 182.92 66.96 183.02 67.17 183.12 67.38 183.22 67.58 183.34 67.78 183.45 67.98 183.58 68.16 183.71 68.34 184.24 69.03 184.9 69.58 185.72 69.98 186.54 70.38 187.5 70.59 188.63 70.59 188.78 70.59 188.93 70.59 189.08 70.58 189.23 70.57 189.37 70.56 189.51 70.55L189.92 70.5C190.06 70.48 190.18 70.47 190.3 70.44 190.42 70.41 190.54 70.38 190.66 70.34 191.26 70.19 191.79 69.98 192.26 69.71 192.5 69.56 192.73 69.41 192.94 69.25 193.15 69.09 193.35 68.92 193.53 68.72 193.88 68.36 194.17 67.96 194.41 67.53L194.41 57.18C194.32 57.03 194.23 56.89 194.14 56.76 194.05 56.63 193.96 56.51 193.86 56.39 193.76 56.27 193.65 56.15 193.53 56.03 193.35 55.83 193.15 55.66 192.94 55.5 192.73 55.34 192.5 55.2 192.26 55.06 191.79 54.77 191.27 54.56 190.68 54.41 190.48 54.36 190.28 54.32 190.07 54.29 189.86 54.25 189.64 54.23 189.4 54.21 189.17 54.2 188.92 54.19 188.67 54.19 187.53 54.19 186.55 54.39 185.74 54.8 185.33 55.01 184.96 55.25 184.62 55.53 184.28 55.81 183.99 56.13 183.73 56.49 183.19 57.23 182.79 58.08 182.54 59.04 182.3 60.03 182.18 61.08 182.18 62.2Z" fill="#484646"/><path d="M220.77 74.58 220.63 74.33C220.54 74.15 220.46 73.96 220.4 73.75 220.34 73.54 220.28 73.32 220.22 73.06 220.2 72.97 220.19 72.87 220.16 72.77 220.14 72.67 220.12 72.57 220.1 72.48 219.84 72.69 219.58 72.89 219.31 73.07 218.75 73.46 218.15 73.81 217.48 74.11 216.82 74.4 216.1 74.62 215.32 74.79 214.93 74.87 214.53 74.93 214.13 74.97 213.73 75.01 213.31 75.04 212.89 75.04 212.53 75.04 212.18 75.03 211.84 75.01 211.5 74.99 211.17 74.95 210.85 74.9 210.53 74.85 210.21 74.78 209.9 74.71 209.59 74.63 209.31 74.55 209.06 74.46 207.98 74.07 207.06 73.54 206.31 72.88 205.54 72.2 204.95 71.41 204.54 70.5 204.13 69.59 203.92 68.62 203.92 67.58 203.92 66.24 204.19 65.06 204.73 64.02 205 63.51 205.33 63.04 205.72 62.6 206.11 62.16 206.56 61.77 207.07 61.43 208.06 60.74 209.3 60.22 210.79 59.88 211.3 59.76 211.83 59.66 212.37 59.59 212.91 59.51 213.47 59.46 214.05 59.42 214.63 59.38 215.23 59.36 215.86 59.36L219.87 59.36 219.87 58.01C219.87 57.38 219.76 56.82 219.55 56.34 219.34 55.86 219.02 55.45 218.6 55.1 218.31 54.86 217.99 54.66 217.62 54.5 217.25 54.34 216.82 54.22 216.33 54.14 215.84 54.06 215.31 54.02 214.74 54.02 214.53 54.02 214.33 54.02 214.14 54.04 213.95 54.06 213.76 54.07 213.58 54.1 213.4 54.13 213.21 54.15 213.04 54.19 212.87 54.23 212.71 54.27 212.56 54.31 212.33 54.37 212.12 54.44 211.93 54.52 211.73 54.6 211.55 54.69 211.38 54.78 211.21 54.87 211.05 54.97 210.9 55.07 210.75 55.18 210.61 55.29 210.48 55.41 210.35 55.53 210.24 55.65 210.13 55.78 210.02 55.91 209.93 56.04 209.86 56.17 209.62 56.56 209.5 56.97 209.5 57.41L209.5 57.86 204.41 57.86 204.41 57.41C204.41 56.46 204.66 55.53 205.15 54.62 205.63 53.7 206.31 52.88 207.2 52.16 208.09 51.44 209.18 50.86 210.49 50.42 211.84 49.97 213.35 49.74 215 49.74 216.5 49.74 217.89 49.91 219.15 50.26 219.57 50.38 219.98 50.52 220.37 50.67 220.73 50.82 221.07 50.99 221.38 51.19 221.7 51.39 222 51.6 222.28 51.84 223.12 52.53 223.78 53.4 224.26 54.45 224.5 54.98 224.68 55.54 224.8 56.14 224.92 56.74 224.98 57.39 224.98 58.08L224.98 69.01C224.98 69.78 225.05 70.59 225.18 71.44 225.33 72.28 225.53 73 225.79 73.6L225.84 73.69 225.84 74.57 220.75 74.57ZM211.53 70.23C212.1 70.41 212.78 70.5 213.56 70.5 214.34 70.5 215.05 70.41 215.72 70.23 216.4 70.03 217.01 69.79 217.57 69.49 218.13 69.19 218.61 68.85 219.01 68.48 219.37 68.13 219.66 67.77 219.89 67.4L219.89 63.21 216.6 63.21C215.97 63.21 215.37 63.23 214.81 63.28 214.25 63.33 213.72 63.39 213.24 63.47 212.76 63.55 212.32 63.65 211.92 63.77 211.52 63.89 211.16 64.03 210.83 64.2 209.61 64.82 209 65.75 209 67.02 209 67.52 209.09 67.98 209.27 68.42 209.32 68.53 209.36 68.63 209.42 68.72 209.47 68.82 209.53 68.91 209.6 69 209.67 69.09 209.74 69.18 209.83 69.26 209.91 69.34 210 69.42 210.09 69.5 210.48 69.8 210.96 70.05 211.53 70.24Z" fill="#484646"/><path d="M235.19 50.19 235.21 50.62 235.28 52.26C236.02 51.58 236.86 51.04 237.8 50.62 238.46 50.32 239.17 50.1 239.92 49.95 240.67 49.81 241.48 49.74 242.33 49.74 243.18 49.74 243.99 49.82 244.75 49.99 245.51 50.16 246.22 50.4 246.88 50.73 247.27 50.91 247.63 51.13 247.96 51.38 248.29 51.63 248.59 51.92 248.87 52.24 249.15 52.56 249.4 52.9 249.63 53.28 250.44 52.3 251.44 51.51 252.63 50.89 253.34 50.5 254.11 50.21 254.94 50.02 255.77 49.83 256.67 49.74 257.63 49.74 258.1 49.74 258.54 49.76 258.97 49.8 259.4 49.84 259.82 49.9 260.22 49.98 260.62 50.06 261 50.16 261.35 50.28 262.43 50.63 263.35 51.17 264.1 51.91 264.85 52.65 265.41 53.59 265.79 54.72 266.17 55.85 266.35 57.17 266.35 58.69L266.35 74.58 261.28 74.58 261.28 58.78C261.28 58.31 261.25 57.89 261.19 57.51 261.13 57.13 261.05 56.79 260.94 56.48 260.71 55.91 260.4 55.45 259.98 55.1 259.57 54.75 259.07 54.51 258.48 54.38 257.83 54.24 257.13 54.18 256.36 54.18 255.94 54.18 255.55 54.21 255.19 54.27 254.83 54.33 254.49 54.42 254.18 54.54 253.97 54.62 253.77 54.7 253.57 54.8 253.37 54.9 253.19 55 253.03 55.12 252.87 55.24 252.71 55.36 252.56 55.49 252.48 55.57 252.41 55.64 252.35 55.7 252.28 55.77 252.21 55.84 252.15 55.91 252.08 55.99 252.02 56.06 251.97 56.14 251.92 56.22 251.86 56.29 251.8 56.38 251.74 56.47 251.69 56.55 251.64 56.64L251.5 56.91C251.23 57.45 251.06 58.04 250.98 58.67L250.98 74.58 245.71 74.58 245.71 58.8C245.71 58.57 245.71 58.36 245.69 58.17 245.67 57.98 245.65 57.79 245.62 57.61 245.59 57.43 245.55 57.26 245.51 57.09 245.46 56.92 245.41 56.77 245.35 56.64 245.12 56.05 244.8 55.59 244.38 55.24 244.29 55.16 244.2 55.09 244.12 55.03 244.04 54.96 243.95 54.9 243.85 54.85 243.75 54.8 243.65 54.75 243.55 54.69 243.44 54.64 243.34 54.59 243.22 54.55 243.11 54.51 242.99 54.48 242.87 54.45 242.25 54.27 241.56 54.18 240.77 54.18 239.33 54.18 238.18 54.47 237.32 55.04 236.9 55.31 236.53 55.63 236.22 55.99 235.91 56.35 235.64 56.75 235.43 57.18L235.43 74.58 230.36 74.58 230.36 50.19 235.18 50.19Z" fill="#484646"/><path d="M284.52 74.93C283.9 75 283.26 75.03 282.58 75.03 280.67 75.03 278.94 74.74 277.4 74.15 275.88 73.56 274.61 72.74 273.59 71.69 273.26 71.33 272.95 70.95 272.65 70.56 272.36 70.17 272.09 69.75 271.86 69.31 271.63 68.87 271.42 68.4 271.24 67.92 270.7 66.49 270.43 64.92 270.43 63.21L270.43 62.31C270.43 60.34 270.74 58.58 271.35 57.01 271.97 55.46 272.79 54.15 273.81 53.07 274.16 52.72 274.52 52.4 274.9 52.1 275.28 51.8 275.68 51.52 276.08 51.27 276.53 51.03 277 50.81 277.48 50.62 278.94 50.03 280.45 49.74 282.01 49.74 282.99 49.74 283.9 49.82 284.76 49.99 285.62 50.14 286.41 50.37 287.13 50.67 287.58 50.88 288 51.12 288.39 51.38 288.78 51.64 289.15 51.93 289.48 52.24 289.82 52.55 290.13 52.88 290.42 53.24 291.28 54.32 291.91 55.6 292.31 57.07 292.52 57.79 292.67 58.55 292.77 59.33 292.87 60.11 292.92 60.93 292.92 61.78L292.92 64.03 275.52 64.03C275.58 64.89 275.75 65.68 276.04 66.42 276.15 66.72 276.27 67 276.42 67.27 276.57 67.53 276.74 67.78 276.92 68.01 277.1 68.24 277.3 68.46 277.51 68.67 277.83 68.99 278.17 69.27 278.56 69.52 278.94 69.77 279.36 69.99 279.81 70.19 280.7 70.55 281.7 70.73 282.83 70.73 283.34 70.73 283.82 70.7 284.27 70.64 284.72 70.58 285.15 70.49 285.54 70.36 285.94 70.23 286.3 70.08 286.63 69.9 287.65 69.33 288.52 68.57 289.24 67.62L289.51 67.26 289.87 67.53 292.42 69.51 292.76 69.78 292.53 70.12C292.39 70.33 292.25 70.54 292.09 70.74 291.93 70.94 291.77 71.15 291.59 71.35 291.41 71.55 291.23 71.75 291.04 71.95 290.45 72.54 289.78 73.06 289.01 73.53 288.62 73.76 288.2 73.96 287.75 74.14 287.28 74.34 286.78 74.5 286.24 74.64 285.7 74.78 285.12 74.88 284.5 74.94ZM283.51 54.19C283.06 54.11 282.56 54.07 282.02 54.07 281.73 54.07 281.46 54.09 281.2 54.12 280.94 54.15 280.68 54.2 280.43 54.26 280.18 54.32 279.94 54.39 279.7 54.46L279.29 54.64C279.15 54.7 279.02 54.77 278.88 54.84 278.74 54.92 278.62 54.99 278.5 55.07 278.38 55.15 278.26 55.23 278.14 55.33 278.02 55.43 277.91 55.52 277.8 55.61 277.51 55.87 277.26 56.15 277.02 56.47 276.79 56.79 276.57 57.14 276.38 57.53 276.23 57.85 276.09 58.19 275.97 58.57 275.86 58.93 275.77 59.31 275.7 59.72L287.85 59.72C287.79 59.04 287.66 58.38 287.47 57.71 287.41 57.48 287.33 57.27 287.22 57.06 287.11 56.85 287 56.64 286.87 56.44 286.74 56.24 286.6 56.05 286.45 55.87 286 55.34 285.41 54.92 284.69 54.58 284.34 54.41 283.95 54.29 283.5 54.21Z" fill="#484646"/></g><g><path d="M89.97 60.82 82.17 60.82 82.17 73.22 76.94 73.22 76.94 40.4 89.97 40.4C90.65 40.4 91.3 40.43 91.92 40.49 92.54 40.55 93.15 40.64 93.73 40.75 94.31 40.86 94.87 41 95.4 41.17 96.93 41.67 98.21 42.37 99.23 43.29 100.25 44.21 101.03 45.3 101.55 46.56 101.64 46.77 101.72 46.98 101.8 47.2 101.88 47.42 101.94 47.64 101.99 47.85 102.04 48.06 102.09 48.29 102.14 48.53 102.19 48.77 102.22 49 102.25 49.23 102.28 49.46 102.3 49.7 102.32 49.94 102.34 50.18 102.34 50.42 102.34 50.66 102.34 50.86 102.34 51.05 102.33 51.25 102.33 51.45 102.31 51.64 102.3 51.82 102.29 52 102.26 52.2 102.23 52.38 102.2 52.57 102.17 52.75 102.14 52.93 102.11 53.11 102.08 53.29 102.04 53.46 102 53.63 101.96 53.8 101.9 53.97 101.85 54.14 101.79 54.3 101.73 54.47 101.67 54.64 101.61 54.8 101.55 54.97 101.28 55.6 100.95 56.19 100.57 56.73 100.19 57.27 99.74 57.76 99.23 58.2 98.19 59.06 96.91 59.71 95.38 60.16 94.6 60.39 93.76 60.55 92.86 60.67 91.96 60.79 91 60.84 89.97 60.84ZM82.17 44.86 82.17 56.38 89.97 56.38C90.23 56.38 90.48 56.38 90.72 56.36 90.97 56.35 91.2 56.33 91.43 56.3 91.66 56.27 91.88 56.25 92.1 56.22 92.32 56.19 92.52 56.15 92.72 56.11 92.92 56.07 93.1 56.01 93.28 55.95 94.18 55.66 94.92 55.27 95.49 54.78 95.78 54.52 96.02 54.25 96.22 53.96 96.42 53.67 96.59 53.35 96.73 53.02 96.82 52.78 96.89 52.54 96.94 52.29 96.99 52.04 97.03 51.79 97.06 51.52 97.09 51.26 97.11 50.98 97.11 50.7 97.11 49.93 96.98 49.2 96.73 48.49 96.65 48.31 96.58 48.14 96.49 47.97 96.41 47.8 96.31 47.65 96.21 47.5 96.11 47.35 95.99 47.2 95.87 47.06 95.75 46.92 95.61 46.78 95.46 46.64 94.9 46.1 94.17 45.67 93.25 45.35 92.33 45.02 91.24 44.85 89.96 44.85L82.16 44.85Z" fill="#FFFFFF"/><path d="M111.49 73.22 106.42 73.22 106.42 38.6 111.49 38.6 111.49 73.22Z" fill="#FFFFFF"/><path d="M133.14 73.22 133 72.97C132.91 72.79 132.83 72.6 132.77 72.39 132.71 72.18 132.65 71.96 132.59 71.7 132.57 71.61 132.56 71.51 132.53 71.41 132.51 71.31 132.49 71.21 132.47 71.12 132.21 71.33 131.95 71.53 131.68 71.71 131.12 72.1 130.52 72.45 129.85 72.75 129.19 73.04 128.47 73.26 127.69 73.43 127.3 73.51 126.9 73.57 126.5 73.61 126.1 73.65 125.68 73.68 125.26 73.68 124.9 73.68 124.55 73.67 124.21 73.65 123.87 73.63 123.54 73.59 123.22 73.54 122.9 73.49 122.58 73.42 122.27 73.35 121.96 73.27 121.68 73.19 121.43 73.1 120.35 72.71 119.43 72.18 118.68 71.52 117.91 70.84 117.32 70.05 116.91 69.14 116.5 68.23 116.29 67.26 116.29 66.22 116.29 64.88 116.56 63.7 117.1 62.66 117.37 62.15 117.7 61.68 118.09 61.24 118.48 60.8 118.93 60.41 119.44 60.07 120.43 59.38 121.67 58.86 123.16 58.52 123.67 58.4 124.2 58.3 124.74 58.23 125.28 58.15 125.84 58.1 126.42 58.06 127 58.02 127.6 58 128.23 58L132.24 58 132.24 56.65C132.24 56.02 132.13 55.46 131.92 54.98 131.71 54.5 131.39 54.09 130.97 53.74 130.68 53.5 130.36 53.3 129.99 53.14 129.62 52.98 129.19 52.86 128.7 52.78 128.21 52.7 127.68 52.66 127.11 52.66 126.9 52.66 126.7 52.66 126.51 52.68 126.32 52.7 126.13 52.71 125.95 52.74 125.77 52.77 125.58 52.79 125.41 52.83 125.24 52.87 125.08 52.91 124.93 52.95 124.7 53.01 124.49 53.08 124.3 53.16 124.1 53.24 123.92 53.33 123.75 53.42 123.58 53.51 123.42 53.61 123.27 53.71 123.12 53.82 122.98 53.93 122.85 54.05 122.72 54.17 122.61 54.29 122.5 54.42 122.39 54.55 122.3 54.68 122.23 54.81 121.99 55.2 121.87 55.61 121.87 56.05L121.87 56.5 116.78 56.5 116.78 56.05C116.78 55.1 117.03 54.17 117.52 53.26 118 52.34 118.68 51.52 119.57 50.8 120.46 50.08 121.55 49.5 122.86 49.06 124.21 48.61 125.72 48.38 127.37 48.38 128.87 48.38 130.26 48.55 131.52 48.9 131.94 49.02 132.35 49.16 132.74 49.31 133.1 49.46 133.44 49.63 133.75 49.83 134.07 50.03 134.37 50.24 134.65 50.48 135.49 51.17 136.15 52.04 136.63 53.09 136.87 53.62 137.05 54.18 137.17 54.78 137.29 55.38 137.35 56.03 137.35 56.72L137.35 67.65C137.35 68.42 137.42 69.23 137.55 70.08 137.7 70.92 137.9 71.64 138.16 72.24L138.21 72.33 138.21 73.21 133.12 73.21ZM123.9 68.87C124.47 69.05 125.15 69.14 125.93 69.14 126.71 69.14 127.42 69.05 128.09 68.87 128.77 68.67 129.38 68.43 129.94 68.13 130.5 67.83 130.98 67.49 131.38 67.12 131.74 66.77 132.03 66.41 132.26 66.04L132.26 61.85 128.97 61.85C128.34 61.85 127.74 61.87 127.18 61.92 126.62 61.97 126.09 62.03 125.61 62.11 125.13 62.19 124.69 62.29 124.29 62.41 123.89 62.53 123.53 62.67 123.2 62.84 121.98 63.46 121.37 64.39 121.37 65.66 121.37 66.16 121.46 66.62 121.64 67.06 121.69 67.17 121.73 67.27 121.79 67.36 121.84 67.46 121.9 67.55 121.97 67.64 122.04 67.73 122.11 67.82 122.2 67.9 122.28 67.98 122.37 68.06 122.46 68.14 122.85 68.44 123.33 68.69 123.9 68.88Z" fill="#FFFFFF"/><path d="M145.74 49.15 151.85 66.1 157.53 49.15 157.64 48.83 163.07 48.83 162.84 49.42 152.67 76.69C152.41 77.31 152.09 77.98 151.7 78.7 151.28 79.45 150.74 80.14 150.08 80.77 149.42 81.42 148.63 81.96 147.71 82.39 146.75 82.84 145.67 83.07 144.46 83.07 144.28 83.07 144.07 83.05 143.83 83.02 143.6 82.99 143.38 82.96 143.14 82.92 142.91 82.88 142.69 82.84 142.5 82.8 142.29 82.75 142.12 82.72 142 82.69L141.66 82.6 141.66 78.3 142.22 78.46C142.22 78.46 142.33 78.46 142.4 78.48 142.51 78.48 142.61 78.48 142.72 78.5L142.89 78.5C142.94 78.5 143 78.5 143.06 78.52L143.24 78.52C143.92 78.52 144.51 78.46 145.02 78.34 145.5 78.22 145.94 78.02 146.35 77.74 146.76 77.46 147.11 77.1 147.41 76.65 147.73 76.17 148.02 75.56 148.29 74.82L149.21 72.57 140.31 49.42 140.08 48.83 145.6 48.83 145.71 49.15Z" fill="#FFFFFF"/><path d="M175.73 61.29 175.73 60.82C175.73 60.46 175.73 60.1 175.75 59.75 175.77 59.4 175.79 59.05 175.83 58.7 175.87 58.35 175.91 58.02 175.97 57.7 176.02 57.38 176.09 57.05 176.16 56.73 176.23 56.41 176.32 56.1 176.41 55.79 176.88 54.27 177.54 52.97 178.42 51.87 179.29 50.76 180.36 49.9 181.62 49.3 182.99 48.68 184.51 48.38 186.2 48.38 187.89 48.38 189.49 48.67 190.8 49.24 191.76 49.66 192.6 50.22 193.32 50.91L193.43 49.27 193.45 48.84 198.14 48.84 198.14 72.39C198.14 74.01 197.88 75.46 197.35 76.72 196.82 78.04 196.08 79.15 195.12 80.06 194.79 80.36 194.44 80.64 194.08 80.89 193.72 81.14 193.34 81.38 192.95 81.59 192.53 81.78 192.08 81.96 191.61 82.12 191.14 82.28 190.64 82.41 190.13 82.51 189.62 82.61 189.09 82.69 188.55 82.75 188.01 82.81 187.45 82.83 186.88 82.83 186.16 82.83 185.34 82.75 184.42 82.6 184.19 82.57 183.97 82.53 183.73 82.48 183.5 82.43 183.26 82.37 183.03 82.31 182.8 82.25 182.56 82.19 182.33 82.12 182.1 82.05 181.87 81.97 181.64 81.88 180.74 81.55 179.89 81.1 179.09 80.53 178.7 80.24 178.33 79.92 177.97 79.57 177.62 79.22 177.3 78.83 177.01 78.41L176.83 78.14 177.06 77.87 179.22 75.37 179.58 74.96 179.92 75.37C180.01 75.51 180.1 75.63 180.2 75.74 180.3 75.85 180.4 75.96 180.5 76.06 180.61 76.16 180.71 76.26 180.8 76.35 180.89 76.44 181 76.54 181.1 76.63 181.2 76.72 181.31 76.8 181.42 76.88 181.56 76.99 181.69 77.08 181.84 77.17 181.99 77.26 182.13 77.35 182.27 77.43 182.41 77.51 182.55 77.59 182.69 77.66 182.83 77.73 182.97 77.79 183.12 77.85 183.39 77.97 183.67 78.07 183.95 78.15 184.23 78.23 184.52 78.3 184.81 78.36 185.1 78.41 185.39 78.44 185.68 78.47 185.97 78.5 186.26 78.52 186.55 78.52 187.05 78.52 187.52 78.49 187.98 78.42 188.44 78.35 188.87 78.26 189.28 78.14 190.08 77.88 190.75 77.5 191.31 76.99 191.6 76.73 191.84 76.45 192.05 76.13 192.26 75.81 192.44 75.47 192.59 75.09 192.88 74.34 193.02 73.46 193.02 72.45L193.02 71.44C192.67 71.74 192.3 72.01 191.89 72.25 191.48 72.49 191.06 72.7 190.61 72.88 189.96 73.15 189.27 73.35 188.52 73.48 187.78 73.61 186.98 73.67 186.12 73.67 184.47 73.67 182.96 73.35 181.59 72.72 180.34 72.1 179.28 71.23 178.41 70.11 177.54 69 176.87 67.69 176.4 66.19 175.93 64.69 175.7 63.06 175.7 61.3ZM180.82 60.82 180.82 61.27C180.82 62.4 180.94 63.46 181.18 64.45 181.24 64.69 181.31 64.92 181.39 65.15 181.47 65.38 181.56 65.59 181.66 65.8 181.76 66.01 181.86 66.21 181.98 66.41 182.09 66.61 182.22 66.79 182.35 66.97 182.88 67.66 183.54 68.21 184.36 68.61 185.18 69.01 186.14 69.22 187.27 69.22 187.42 69.22 187.57 69.22 187.72 69.21 187.87 69.2 188.01 69.19 188.15 69.18L188.56 69.13C188.7 69.11 188.82 69.1 188.94 69.07 189.06 69.04 189.18 69.01 189.3 68.97 189.9 68.82 190.43 68.61 190.9 68.34 191.14 68.19 191.37 68.04 191.58 67.88 191.79 67.72 191.99 67.55 192.17 67.35 192.52 66.99 192.81 66.59 193.05 66.16L193.05 55.81C192.96 55.66 192.87 55.52 192.78 55.39 192.69 55.26 192.6 55.14 192.5 55.02 192.4 54.9 192.29 54.78 192.17 54.66 191.99 54.46 191.79 54.29 191.58 54.13 191.37 53.97 191.14 53.83 190.9 53.69 190.43 53.4 189.91 53.19 189.32 53.04 189.12 52.99 188.92 52.95 188.71 52.92 188.5 52.88 188.28 52.86 188.04 52.84 187.81 52.83 187.56 52.82 187.31 52.82 186.17 52.82 185.19 53.02 184.38 53.43 183.97 53.64 183.6 53.88 183.26 54.16 182.92 54.44 182.63 54.76 182.37 55.12 181.83 55.86 181.43 56.71 181.18 57.67 180.94 58.66 180.82 59.71 180.82 60.83Z" fill="#FFFFFF"/><path d="M219.41 73.22 219.27 72.97C219.18 72.79 219.1 72.6 219.04 72.39 218.98 72.18 218.92 71.96 218.86 71.7 218.84 71.61 218.83 71.51 218.8 71.41 218.78 71.31 218.76 71.21 218.74 71.12 218.48 71.33 218.22 71.53 217.95 71.71 217.39 72.1 216.79 72.45 216.12 72.75 215.46 73.04 214.74 73.26 213.96 73.43 213.57 73.51 213.17 73.57 212.77 73.61 212.37 73.65 211.95 73.68 211.53 73.68 211.17 73.68 210.82 73.67 210.48 73.65 210.14 73.63 209.81 73.59 209.49 73.54 209.17 73.49 208.85 73.42 208.54 73.35 208.23 73.27 207.95 73.19 207.7 73.1 206.62 72.71 205.7 72.18 204.95 71.52 204.18 70.84 203.59 70.05 203.18 69.14 202.77 68.23 202.56 67.26 202.56 66.22 202.56 64.88 202.83 63.7 203.37 62.66 203.64 62.15 203.97 61.68 204.36 61.24 204.75 60.8 205.2 60.41 205.71 60.07 206.7 59.38 207.94 58.86 209.43 58.52 209.94 58.4 210.47 58.3 211.01 58.23 211.55 58.15 212.11 58.1 212.69 58.06 213.27 58.02 213.87 58 214.5 58L218.51 58 218.51 56.65C218.51 56.02 218.4 55.46 218.19 54.98 217.98 54.5 217.66 54.09 217.24 53.74 216.95 53.5 216.63 53.3 216.26 53.14 215.89 52.98 215.46 52.86 214.97 52.78 214.48 52.7 213.95 52.66 213.38 52.66 213.17 52.66 212.97 52.66 212.78 52.68 212.59 52.7 212.4 52.71 212.22 52.74 212.04 52.77 211.85 52.79 211.68 52.83 211.51 52.87 211.35 52.91 211.2 52.95 210.97 53.01 210.76 53.08 210.57 53.16 210.37 53.24 210.19 53.33 210.02 53.42 209.85 53.51 209.69 53.61 209.54 53.71 209.39 53.82 209.25 53.93 209.12 54.05 208.99 54.17 208.88 54.29 208.77 54.42 208.66 54.55 208.57 54.68 208.5 54.81 208.26 55.2 208.14 55.61 208.14 56.05L208.14 56.5 203.05 56.5 203.05 56.05C203.05 55.1 203.3 54.17 203.79 53.26 204.27 52.34 204.95 51.52 205.84 50.8 206.73 50.08 207.82 49.5 209.13 49.06 210.48 48.61 211.99 48.38 213.64 48.38 215.14 48.38 216.53 48.55 217.79 48.9 218.21 49.02 218.62 49.16 219.01 49.31 219.37 49.46 219.71 49.63 220.02 49.83 220.34 50.03 220.64 50.24 220.92 50.48 221.76 51.17 222.42 52.04 222.9 53.09 223.14 53.62 223.32 54.18 223.44 54.78 223.56 55.38 223.62 56.03 223.62 56.72L223.62 67.65C223.62 68.42 223.69 69.23 223.82 70.08 223.97 70.92 224.17 71.64 224.43 72.24L224.48 72.33 224.48 73.21 219.39 73.21ZM210.17 68.87C210.74 69.05 211.42 69.14 212.2 69.14 212.98 69.14 213.69 69.05 214.36 68.87 215.04 68.67 215.65 68.43 216.21 68.13 216.77 67.83 217.25 67.49 217.65 67.12 218.01 66.77 218.3 66.41 218.53 66.04L218.53 61.85 215.24 61.85C214.61 61.85 214.01 61.87 213.45 61.92 212.89 61.97 212.36 62.03 211.88 62.11 211.4 62.19 210.96 62.29 210.56 62.41 210.16 62.53 209.8 62.67 209.47 62.84 208.25 63.46 207.64 64.39 207.64 65.66 207.64 66.16 207.73 66.62 207.91 67.06 207.96 67.17 208 67.27 208.06 67.36 208.11 67.46 208.17 67.55 208.24 67.64 208.31 67.73 208.38 67.82 208.47 67.9 208.55 67.98 208.64 68.06 208.73 68.14 209.12 68.44 209.6 68.69 210.17 68.88Z" fill="#FFFFFF"/><path d="M233.83 48.83 233.85 49.26 233.92 50.9C234.66 50.22 235.5 49.68 236.44 49.26 237.1 48.96 237.81 48.74 238.56 48.59 239.31 48.45 240.12 48.38 240.97 48.38 241.82 48.38 242.63 48.46 243.39 48.63 244.15 48.8 244.86 49.04 245.52 49.37 245.91 49.55 246.27 49.77 246.6 50.02 246.93 50.27 247.23 50.56 247.51 50.88 247.79 51.2 248.04 51.54 248.27 51.92 249.08 50.94 250.08 50.15 251.27 49.53 251.98 49.14 252.75 48.85 253.58 48.66 254.41 48.47 255.31 48.38 256.27 48.38 256.74 48.38 257.18 48.4 257.61 48.44 258.04 48.48 258.46 48.54 258.86 48.62 259.26 48.7 259.64 48.8 259.99 48.92 261.07 49.27 261.99 49.81 262.74 50.55 263.49 51.29 264.05 52.23 264.43 53.36 264.81 54.49 264.99 55.81 264.99 57.33L264.99 73.22 259.92 73.22 259.92 57.42C259.92 56.95 259.89 56.53 259.83 56.15 259.77 55.77 259.69 55.43 259.58 55.12 259.35 54.55 259.04 54.09 258.62 53.74 258.21 53.39 257.71 53.15 257.12 53.02 256.47 52.88 255.77 52.82 255 52.82 254.58 52.82 254.19 52.85 253.83 52.91 253.47 52.97 253.13 53.06 252.82 53.18 252.61 53.26 252.41 53.34 252.21 53.44 252.01 53.54 251.83 53.64 251.67 53.76 251.51 53.88 251.35 54 251.2 54.13 251.12 54.21 251.05 54.28 250.99 54.34 250.92 54.41 250.85 54.48 250.79 54.55 250.72 54.63 250.66 54.7 250.61 54.78 250.56 54.86 250.5 54.93 250.44 55.02 250.38 55.11 250.33 55.19 250.28 55.28L250.14 55.55C249.87 56.09 249.7 56.68 249.62 57.31L249.62 73.22 244.35 73.22 244.35 57.44C244.35 57.21 244.35 57 244.33 56.81 244.31 56.62 244.29 56.43 244.26 56.25 244.23 56.07 244.19 55.9 244.15 55.73 244.1 55.56 244.05 55.41 243.99 55.28 243.76 54.69 243.44 54.23 243.02 53.88 242.93 53.8 242.84 53.73 242.76 53.67 242.68 53.6 242.59 53.54 242.49 53.49 242.39 53.44 242.29 53.39 242.19 53.33 242.08 53.28 241.98 53.23 241.86 53.19 241.75 53.15 241.63 53.12 241.51 53.09 240.89 52.91 240.2 52.82 239.41 52.82 237.97 52.82 236.82 53.11 235.96 53.68 235.54 53.95 235.17 54.27 234.86 54.63 234.55 54.99 234.28 55.39 234.07 55.82L234.07 73.22 229 73.22 229 48.83 233.82 48.83Z" fill="#FFFFFF"/><path d="M283.16 73.57C282.54 73.64 281.9 73.67 281.22 73.67 279.31 73.67 277.58 73.38 276.04 72.79 274.52 72.2 273.25 71.38 272.23 70.33 271.9 69.97 271.59 69.59 271.29 69.2 271 68.81 270.73 68.39 270.5 67.95 270.27 67.51 270.06 67.04 269.88 66.56 269.34 65.13 269.07 63.56 269.07 61.85L269.07 60.95C269.07 58.98 269.38 57.22 269.99 55.65 270.61 54.1 271.43 52.79 272.45 51.71 272.8 51.36 273.16 51.04 273.54 50.74 273.92 50.44 274.32 50.16 274.72 49.91 275.17 49.67 275.64 49.45 276.12 49.26 277.58 48.67 279.09 48.38 280.65 48.38 281.63 48.38 282.54 48.46 283.4 48.63 284.26 48.78 285.05 49.01 285.77 49.31 286.22 49.52 286.64 49.76 287.03 50.02 287.42 50.28 287.79 50.57 288.12 50.88 288.46 51.19 288.77 51.52 289.06 51.88 289.92 52.96 290.55 54.24 290.95 55.71 291.16 56.43 291.31 57.19 291.41 57.97 291.51 58.75 291.56 59.57 291.56 60.42L291.56 62.67 274.16 62.67C274.22 63.53 274.39 64.32 274.68 65.06 274.79 65.36 274.91 65.64 275.06 65.91 275.21 66.17 275.38 66.42 275.56 66.65 275.74 66.88 275.94 67.1 276.15 67.31 276.47 67.63 276.81 67.91 277.2 68.16 277.58 68.41 278 68.63 278.45 68.83 279.34 69.19 280.34 69.37 281.47 69.37 281.98 69.37 282.46 69.34 282.91 69.28 283.36 69.22 283.79 69.13 284.18 69 284.58 68.87 284.94 68.72 285.27 68.54 286.29 67.97 287.16 67.21 287.88 66.26L288.15 65.9 288.51 66.17 291.06 68.15 291.4 68.42 291.17 68.76C291.03 68.97 290.89 69.18 290.73 69.38 290.57 69.58 290.41 69.79 290.23 69.99 290.05 70.19 289.87 70.39 289.68 70.59 289.09 71.18 288.42 71.7 287.65 72.17 287.26 72.4 286.84 72.6 286.39 72.78 285.92 72.98 285.42 73.14 284.88 73.28 284.34 73.42 283.76 73.52 283.14 73.58ZM282.15 52.83C281.7 52.75 281.2 52.71 280.66 52.71 280.37 52.71 280.1 52.73 279.84 52.76 279.58 52.79 279.32 52.84 279.07 52.9 278.82 52.96 278.58 53.03 278.34 53.1L277.93 53.28C277.79 53.34 277.66 53.41 277.52 53.48 277.38 53.56 277.26 53.63 277.14 53.71 277.02 53.79 276.9 53.87 276.78 53.97 276.66 54.07 276.55 54.16 276.44 54.25 276.15 54.51 275.9 54.79 275.66 55.11 275.43 55.43 275.21 55.78 275.02 56.17 274.87 56.49 274.73 56.83 274.61 57.21 274.5 57.57 274.41 57.95 274.34 58.36L286.49 58.36C286.43 57.68 286.3 57.02 286.11 56.35 286.05 56.12 285.97 55.91 285.86 55.7 285.75 55.49 285.64 55.28 285.51 55.08 285.38 54.88 285.24 54.69 285.09 54.51 284.64 53.98 284.05 53.56 283.33 53.22 282.98 53.05 282.59 52.93 282.14 52.85Z" fill="#FFFFFF"/></g></g></svg>