<svg viewBox="0 0 617.47 462.77" xmlns="http://www.w3.org/2000/svg" xmlns:xlink="http://www.w3.org/1999/xlink" id="Layer_1" overflow="hidden"><defs></defs><path d="M550.11 442.53C439.16 442.53 328.21 442.53 217.26 442.53 167.29 442.53 117.32 442.53 67.35 442.53 62.86 442.53 39 442.08 19.72 422.8 7.54 410.61 0 393.77 0 375.17L0 67.36C0 30.16 30.16 0 67.36 0L550.12 0C587.32 0 617.48 30.16 617.48 67.36L617.48 375.17C617.48 412.37 587.32 442.53 550.12 442.53Z" fill="#FFFFFF"/><path d="M32.91 378.59C34.68 388.19 47.06 398.8 61.2 398.8L551.94 398.8C551.94 398.8 574.23 399.22 582.57 381.31 585.05 375.99 586.94 368.63 586.62 361.16 585.53 335.4 585.1 330.55 585.41 330.72L32.16 344.46C32.16 344.46 31.14 368.99 32.9 378.59Z" fill="#92C73E"/><path d="M32.52 371.26C34.29 380.86 46.67 391.47 60.81 391.47L551.55 391.47C551.55 391.47 573.84 391.89 582.18 373.98 589.65 357.94 585.02 323.39 585.02 323.39L31.78 337.13C31.78 337.13 30.76 361.66 32.52 371.26Z" fill="#E4EDB9"/><path d="M550.11 442.7 67.36 442.7C30.16 442.7 0 412.54 0 375.34L0 385.44C0 422.64 30.16 452.8 67.36 452.8L550.12 452.8C587.32 452.8 617.48 422.64 617.48 385.44L617.48 375.34C617.48 412.54 587.32 442.7 550.12 442.7Z" fill="#BBBBBB"/><path d="M550.11 452.67 67.36 452.67C30.16 452.67 0 422.51 0 385.31L0 395.41C0 432.62 30.16 462.77 67.36 462.77L550.12 462.77C587.32 462.77 617.48 432.61 617.48 395.41L617.48 385.31C617.48 422.51 587.32 452.67 550.12 452.67Z" fill="#231F20" opacity="0.47"/><path d="M167.84-69.31 449.62-69.31C469.59-69.31 485.8-53.1 485.8-33.13L485.8 449.62C485.8 469.59 469.59 485.79 449.63 485.79L167.84 485.79C147.87 485.79 131.66 469.58 131.66 449.61L131.66-33.13C131.66-53.1 147.87-69.3 167.83-69.3Z" fill="#C2DA6D" transform="matrix(6.12323e-17 1 -1 6.12323e-17 516.98 -100.49)"/><path d="M571.2 95.21C571.2 137.5 453.69 230.53 308.73 230.53 163.77 230.53 46.27 137.5 46.27 95.21 46.27 74.07 51.31 51.77 83.14 51.77 133.72 51.77 231.92 51.77 304.4 51.77 376.88 51.77 489.95 51.71 539.21 54.06 568.32 55.45 571.2 74.77 571.2 95.21Z" fill="#FFFFFF" opacity="0.3"/><g><path d="M310.24 230.63C310.24 235.75 309.27 240.03 307.33 243.44 305.45 246.63 302.8 249.11 299.38 250.87 296.25 252.46 292.8 253.26 289.05 253.26 283.7 253.26 279.11 251.72 275.29 248.65 271.08 245.35 268.85 240.9 268.63 235.32L280.59 235.32C280.82 237.94 281.73 239.99 283.32 241.47 284.75 242.83 286.48 243.51 288.53 243.51 292.57 243.51 295.36 241.55 296.9 237.62 297.76 235.57 298.18 233.6 298.18 231.72 298.18 228.87 297.28 226.59 295.49 224.89 293.7 223.18 291.58 222.32 289.13 222.32 285.54 222.32 282.89 223.97 281.18 227.28L268.62 227.28 268.62 191.74 307.92 191.74 307.92 201.91 280.32 201.91 280.32 216.78C283.96 213.82 288.01 212.34 292.45 212.34 297.29 212.34 301.42 213.99 304.84 217.3 308.43 220.78 310.22 225.22 310.22 230.63Z"/><path d="M354.67 219.9C354.67 229.94 353.59 237.39 351.42 242.23 348.17 249.48 342.19 253.13 333.47 253.18 326.01 253.24 320.63 250.38 317.33 244.62 314.94 240.52 313.42 234.27 312.8 225.89 312.63 223.89 312.55 221.95 312.55 220.07 312.55 211.74 313.94 205.1 316.74 200.14 320.27 193.81 325.85 190.64 333.48 190.64 347.61 190.64 354.67 200.4 354.67 219.9ZM342.62 218.58C342.62 206.45 339.7 200.38 333.86 200.38 328.02 200.38 325.02 206.36 325.02 218.33L325.02 225.25C325.02 237.38 327.97 243.45 333.86 243.45 339.75 243.45 342.62 237.24 342.62 224.82L342.62 218.58Z"/><path d="M399.78 219.9C399.78 229.94 398.7 237.39 396.53 242.23 393.28 249.48 387.3 253.13 378.59 253.18 371.12 253.24 365.74 250.38 362.44 244.62 360.05 240.52 358.54 234.27 357.91 225.89 357.74 223.89 357.65 221.95 357.65 220.07 357.65 211.74 359.05 205.1 361.84 200.14 365.37 193.81 370.96 190.64 378.59 190.64 392.71 190.64 399.78 200.4 399.78 219.9ZM387.73 218.58C387.73 206.45 384.82 200.38 378.98 200.38 373.14 200.38 370.14 206.36 370.14 218.33L370.14 225.25C370.14 237.38 373.09 243.45 378.98 243.45 384.87 243.45 387.73 237.24 387.73 224.82L387.73 218.58Z"/><path d="M242.91 234.65C242.91 240.12 241.09 244.5 237.44 247.81 234.02 250.94 229.52 252.68 223.94 253.02L223.94 261.31 220.18 261.31 220.18 253.02C213.52 252.45 208.65 250.69 205.57 247.73 202.38 244.54 200.79 239.66 200.79 233.11L211.9 233.11C212.3 236.53 212.92 238.92 213.78 240.29 214.98 242.06 217.11 243.22 220.18 243.79L220.18 225.93C216.59 225.02 213.55 223.97 211.04 222.77 204.94 219.87 201.9 215.06 201.9 208.34 201.9 203.72 203.49 199.74 206.68 196.37 210.09 192.67 214.6 190.79 220.18 190.73L220.18 185.26 223.94 185.26 223.94 190.73C229.75 191.36 234.12 193.07 237.05 195.86 239.98 198.65 241.63 202.9 241.97 208.59L231.03 208.59C230.8 205.74 230.29 203.66 229.49 202.35 228.41 200.64 226.56 199.78 223.93 199.78L223.93 215.76C231.28 218.15 236.06 220.43 238.29 222.59 241.36 225.5 242.9 229.51 242.9 234.64ZM220.18 214.57 220.18 199.79C217.91 199.91 216.13 200.65 214.84 202.01 213.56 203.38 212.92 204.98 212.92 206.8 212.92 208.62 213.55 210.27 214.8 211.75 216.05 213.23 217.85 214.18 220.18 214.57ZM223.94 243.79C226.33 243.68 228.22 242.85 229.58 241.31 230.95 239.77 231.63 238.01 231.63 236.01 231.63 234.01 231.03 232.37 229.84 230.89 228.47 229.24 226.51 228.1 223.94 227.47L223.94 243.79Z"/></g><path d="M101.95 308.84 97.81 308.84 97.81 328.51 91.48 328.51 91.48 308.84 87.93 308.84 87.93 304.24 91.48 304.24C91.48 298.35 94.91 295.41 101.77 295.41L101.77 300.6C100.16 300.6 99.1 300.86 98.58 301.37 98.06 301.89 97.81 302.84 97.81 304.24L101.95 304.24 101.95 308.84Z"/><path d="M127.49 316.4C127.49 320.25 126.38 323.34 124.17 325.66 121.95 327.98 118.95 329.14 115.16 329.14 111.37 329.14 108.26 327.97 106.03 325.61 103.8 323.26 102.68 320.19 102.68 316.39 102.68 312.59 103.79 309.48 106 307.12 108.21 304.76 111.26 303.59 115.15 303.59 119.04 303.59 122.09 304.79 124.3 307.18 126.42 309.52 127.49 312.59 127.49 316.38ZM120.98 316.4C120.98 311.48 119.03 309.02 115.15 309.02 111.27 309.02 109.28 311.48 109.28 316.4 109.28 321.32 111.24 323.77 115.15 323.77 119.06 323.77 120.98 321.31 120.98 316.4Z"/><path d="M143.56 310.2C142.95 310.11 142.36 310.07 141.79 310.07 137.87 310.07 135.92 312.01 135.92 315.89L135.92 328.5 129.5 328.5 129.5 304.24 135.56 304.24 135.56 306.11C135.56 306.81 135.57 307.15 135.6 307.15 135.63 307.12 135.67 307.09 135.74 307.06 136.95 305.79 137.89 304.96 138.56 304.6 139.62 303.99 141 303.69 142.7 303.69L143.56 303.69 143.56 310.2Z"/><path d="M179.62 329.87C179.62 333.09 178.47 335.66 176.16 337.61 174.04 339.34 171.49 340.2 168.51 340.2 165.53 340.2 163.14 339.34 161.13 337.63 158.91 335.7 157.81 333.08 157.81 329.77L163.76 329.77C163.76 331.32 164.22 332.53 165.12 333.41 165.91 334.2 166.91 334.6 168.11 334.6 169.44 334.6 170.61 334.15 171.61 333.24 172.67 332.22 173.2 330.88 173.2 329.22L173.2 325.49C172.74 326.58 171.92 327.44 170.72 328.04 169.52 328.65 168.19 328.95 166.7 328.95 164.34 328.95 162.32 328.25 160.66 326.86 158.76 325.25 157.8 323.04 157.8 320.21L157.8 304.23 164.22 304.23 164.22 319.25C164.22 322.25 165.58 323.76 168.3 323.76 169.75 323.76 170.93 323.34 171.83 322.49 172.73 321.64 173.19 320.56 173.19 319.26L173.19 304.24 179.61 304.24 179.61 329.87Z"/><path d="M206.03 316.4C206.03 320.25 204.92 323.34 202.71 325.66 200.49 327.98 197.49 329.14 193.7 329.14 189.91 329.14 186.8 327.97 184.57 325.61 182.34 323.26 181.22 320.19 181.22 316.39 181.22 312.59 182.33 309.48 184.54 307.12 186.76 304.77 189.81 303.59 193.69 303.59 197.57 303.59 200.63 304.79 202.84 307.18 204.96 309.52 206.03 312.59 206.03 316.38ZM199.52 316.4C199.52 311.48 197.58 309.02 193.69 309.02 189.8 309.02 187.82 311.48 187.82 316.4 187.82 321.32 189.78 323.77 193.69 323.77 197.6 323.77 199.52 321.31 199.52 316.4Z"/><path d="M229.89 328.5 223.84 328.5 223.84 326.36C223.84 325.51 223.83 325.09 223.8 325.09 223.8 325.12 223.78 325.13 223.75 325.13 222.14 327.86 219.68 329.23 216.38 329.23 214.1 329.23 212.2 328.49 210.69 327 208.96 325.36 208.09 323.1 208.09 320.22L208.09 304.24 214.51 304.24 214.51 319.26C214.51 322.26 215.88 323.77 218.61 323.77 220.22 323.77 221.45 323.25 222.3 322.22 223.15 321.19 223.57 319.87 223.57 318.26L223.57 304.24 229.9 304.24 229.9 328.5Z"/><path d="M246.5 310.2C245.89 310.11 245.3 310.07 244.73 310.07 240.81 310.07 238.86 312.01 238.86 315.89L238.86 328.5 232.44 328.5 232.44 304.24 238.5 304.24 238.5 306.11C238.5 306.81 238.51 307.15 238.54 307.15 238.57 307.12 238.61 307.09 238.68 307.06 239.89 305.79 240.83 304.96 241.5 304.6 242.56 303.99 243.94 303.69 245.64 303.69L246.5 303.69 246.5 310.2Z"/><path d="M282.34 312.93 275.92 312.93C275.71 311.69 275.21 310.71 274.42 309.99 273.63 309.28 272.72 308.92 271.69 308.92 269.99 308.92 268.67 309.71 267.73 311.29 266.97 312.63 266.59 314.19 266.59 315.98 266.59 321.2 268.18 323.84 271.37 323.9 272.49 323.9 273.49 323.53 274.35 322.78 275.22 322.04 275.71 321.01 275.83 319.71L282.29 319.71C281.93 322.56 280.7 324.86 278.63 326.61 276.56 328.36 274.05 329.24 271.14 329.27 267.5 329.27 264.7 328.09 262.76 325.72 260.94 323.5 260.03 320.54 260.03 316.84 260.03 312.89 260.91 309.77 262.67 307.46 264.64 304.88 267.54 303.59 271.37 303.59 274.4 303.59 276.91 304.38 278.88 305.96 281 307.66 282.16 309.98 282.34 312.93Z"/><path d="M307.87 316.4C307.87 320.25 306.76 323.34 304.55 325.66 302.33 327.98 299.33 329.14 295.54 329.14 291.75 329.14 288.64 327.97 286.41 325.61 284.18 323.26 283.06 320.19 283.06 316.39 283.06 312.59 284.17 309.48 286.38 307.12 288.59 304.76 291.65 303.59 295.53 303.59 299.41 303.59 302.47 304.79 304.68 307.18 306.8 309.52 307.87 312.59 307.87 316.38ZM301.36 316.4C301.36 311.48 299.42 309.02 295.53 309.02 291.64 309.02 289.66 311.48 289.66 316.4 289.66 321.32 291.62 323.77 295.53 323.77 299.44 323.77 301.36 321.31 301.36 316.4Z"/><path d="M323.95 310.2C323.34 310.11 322.75 310.07 322.18 310.07 318.26 310.07 316.31 312.01 316.31 315.89L316.31 328.5 309.89 328.5 309.89 304.24 315.94 304.24 315.94 306.11C315.94 306.81 315.95 307.15 315.99 307.15 316.02 307.12 316.06 307.09 316.12 307.06 317.34 305.79 318.28 304.96 318.94 304.6 320 303.99 321.39 303.69 323.08 303.69L323.95 303.69 323.95 310.2Z"/><path d="M340.02 310.2C339.41 310.11 338.82 310.07 338.25 310.07 334.33 310.07 332.38 312.01 332.38 315.89L332.38 328.5 325.96 328.5 325.96 304.24 332.01 304.24 332.01 306.11C332.01 306.81 332.02 307.15 332.06 307.15 332.09 307.12 332.13 307.09 332.19 307.06 333.41 305.79 334.35 304.96 335.01 304.6 336.07 303.99 337.46 303.69 339.15 303.69L340.02 303.69 340.02 310.2Z"/><path d="M363.65 318.08 346.94 318.08C347.09 320.08 347.73 321.63 348.85 322.73 349.82 323.64 351 324.09 352.4 324.09 353.43 324.09 354.36 323.85 355.18 323.36 356 322.87 356.53 322.22 356.77 321.4L363.32 321.4C362.59 323.86 361.29 325.76 359.41 327.11 357.53 328.46 355.3 329.14 352.71 329.14 344.61 329.14 340.55 324.72 340.55 315.89 340.55 312.16 341.58 309.18 343.63 306.95 345.68 304.72 348.55 303.6 352.26 303.6 359.85 303.6 363.64 308.42 363.64 318.08ZM357.1 314.03C356.95 312.4 356.39 311.13 355.44 310.19 354.49 309.25 353.38 308.79 352.14 308.79 350.9 308.79 349.88 309.22 349 310.1 348.03 311.03 347.42 312.34 347.18 314.03L357.11 314.03Z"/><path d="M387.01 312.93 380.59 312.93C380.38 311.69 379.87 310.71 379.09 309.99 378.3 309.28 377.39 308.92 376.36 308.92 374.66 308.92 373.34 309.71 372.4 311.29 371.64 312.63 371.26 314.19 371.26 315.98 371.26 321.2 372.85 323.84 376.04 323.9 377.16 323.9 378.16 323.53 379.02 322.78 379.88 322.04 380.38 321.01 380.5 319.71L386.97 319.71C386.61 322.56 385.38 324.86 383.31 326.61 381.24 328.36 378.73 329.24 375.82 329.27 372.18 329.27 369.39 328.09 367.44 325.72 365.62 323.5 364.71 320.54 364.71 316.84 364.71 312.89 365.59 309.77 367.35 307.46 369.32 304.88 372.22 303.59 376.05 303.59 379.08 303.59 381.59 304.38 383.56 305.96 385.69 307.66 386.84 309.98 387.02 312.93Z"/><path d="M407.86 316.17C407.86 318.57 407.74 320.4 407.5 321.68 407.14 323.77 406.42 325.41 405.36 326.6 403.63 328.48 401.2 329.42 398.08 329.42 396.14 329.42 394.38 329.01 392.8 328.19 391.07 327.28 389.84 326.02 389.11 324.41 388.47 322.92 388.15 321.27 388.15 319.45L388.15 297.73 394.57 297.73 394.57 304.24 407.86 304.24 407.86 308.84 394.57 308.84 394.57 318.81C394.57 320.05 394.66 321 394.84 321.63 395.26 323.09 396.38 323.82 398.19 323.82 399.25 323.82 400.06 323.5 400.63 322.86 401.47 321.95 401.9 319.99 401.9 316.98L401.9 312.56 407.87 312.56 407.87 316.16Z"/><path d="M445.1 329.87C445.1 333.09 443.84 335.66 441.32 337.61 439.02 339.34 436.24 340.2 432.99 340.2 429.74 340.2 427.12 339.34 424.93 337.63 422.5 335.7 421.29 333.08 421.29 329.77L427.24 329.77C427.24 331.32 427.78 332.53 428.87 333.41 429.84 334.2 431.07 334.6 432.55 334.6 434.15 334.6 435.55 334.15 436.73 333.24 438.03 332.22 438.68 330.88 438.68 329.22L438.68 325.49C438.22 326.58 437.39 327.44 436.18 328.04 434.97 328.65 433.59 328.95 432.05 328.95 429.57 328.95 427.39 328.25 425.51 326.86 423.36 325.25 422.1 323.04 421.74 320.21 421.47 318.09 421.33 316.5 421.33 315.47 421.33 313.38 421.78 311.36 422.69 309.42 423.53 307.6 424.82 306.16 426.52 305.09 428.23 304.03 430.01 303.5 431.86 303.5 434.83 303.5 437.05 304.74 438.54 307.23 438.57 307.23 438.6 307.24 438.63 307.27L438.63 304.22 445.1 304.22 445.1 329.85ZM438.82 316.94C438.82 311.72 437.02 309.11 433.42 309.11 429.82 309.11 427.98 311.6 427.98 316.58 427.98 318.92 428.55 320.77 429.7 322.13 430.7 323.35 431.94 323.95 433.42 323.95 434.9 323.95 436.11 323.36 437.14 322.18 438.26 320.88 438.82 319.13 438.82 316.94Z"/><path d="M469.23 328.5 463.18 328.5 463.18 326.36C463.18 325.51 463.17 325.09 463.14 325.09 463.14 325.12 463.12 325.13 463.09 325.13 461.48 327.86 459.02 329.23 455.72 329.23 453.44 329.23 451.54 328.49 450.03 327 448.3 325.36 447.43 323.1 447.43 320.22L447.43 304.24 453.85 304.24 453.85 319.26C453.85 322.26 455.22 323.77 457.95 323.77 459.56 323.77 460.79 323.25 461.64 322.22 462.49 321.19 462.91 319.87 462.91 318.26L462.91 304.24 469.24 304.24 469.24 328.5Z"/><path d="M493.91 318.08 477.2 318.08C477.35 320.08 477.99 321.63 479.11 322.73 480.08 323.64 481.27 324.09 482.66 324.09 483.69 324.09 484.62 323.85 485.44 323.36 486.26 322.87 486.79 322.22 487.03 321.4L493.59 321.4C492.86 323.86 491.56 325.76 489.67 327.11 487.79 328.46 485.56 329.14 482.98 329.14 474.88 329.14 470.82 324.72 470.82 315.89 470.82 312.16 471.84 309.18 473.89 306.95 475.94 304.72 478.81 303.6 482.52 303.6 490.11 303.6 493.9 308.42 493.9 318.08ZM487.35 314.03C487.2 312.4 486.65 311.13 485.69 310.19 484.73 309.25 483.63 308.79 482.39 308.79 481.15 308.79 480.13 309.22 479.25 310.1 478.28 311.03 477.67 312.34 477.43 314.03L487.35 314.03Z"/><path d="M517.17 320.76C517.17 322.49 516.74 323.99 515.9 325.27 514.08 327.91 510.92 329.23 506.43 329.23 503.37 329.23 500.74 328.53 498.55 327.14 496.12 325.56 494.89 323.43 494.86 320.76L501.46 320.76C501.46 321.95 501.98 322.87 503.01 323.54 503.92 324.12 505.04 324.4 506.38 324.4 507.56 324.4 508.59 324.17 509.45 323.7 510.32 323.23 510.75 322.61 510.75 321.85 510.75 320.85 509.46 320.06 506.88 319.48 503.06 318.6 500.64 317.92 499.64 317.43 497.06 316.19 495.77 314.27 495.77 311.69 495.77 310.17 496.13 308.79 496.86 307.55 497.59 306.31 498.82 305.31 500.55 304.57 502.28 303.83 504.15 303.45 506.15 303.45 508.88 303.45 511.17 304.1 513.03 305.41 515.15 306.87 516.29 308.93 516.45 311.6L510.12 311.6C509.78 309.45 508.36 308.37 505.84 308.37 504.81 308.37 503.91 308.6 503.15 309.05 502.39 309.51 502.01 310.08 502.01 310.78 502.01 311.69 503.31 312.44 505.93 313.01 509.72 313.86 512.17 314.54 513.26 315.06 515.87 316.33 517.18 318.23 517.18 320.75Z"/><path d="M540.39 320.76C540.39 322.49 539.96 323.99 539.12 325.27 537.3 327.91 534.14 329.23 529.65 329.23 526.59 329.23 523.96 328.53 521.77 327.14 519.34 325.56 518.11 323.43 518.08 320.76L524.68 320.76C524.68 321.95 525.2 322.87 526.23 323.54 527.14 324.12 528.26 324.4 529.6 324.4 530.78 324.4 531.81 324.17 532.67 323.7 533.54 323.23 533.97 322.61 533.97 321.85 533.97 320.85 532.68 320.06 530.1 319.48 526.28 318.6 523.86 317.92 522.86 317.43 520.28 316.19 518.99 314.27 518.99 311.69 518.99 310.17 519.35 308.79 520.08 307.55 520.81 306.31 522.04 305.31 523.77 304.57 525.5 303.83 527.37 303.45 529.37 303.45 532.1 303.45 534.39 304.1 536.25 305.41 538.37 306.87 539.51 308.93 539.67 311.6L533.34 311.6C533 309.45 531.58 308.37 529.06 308.37 528.03 308.37 527.13 308.6 526.37 309.05 525.61 309.51 525.23 310.08 525.23 310.78 525.23 311.69 526.53 312.44 529.15 313.01 532.94 313.86 535.39 314.54 536.48 315.06 539.09 316.33 540.4 318.23 540.4 320.75Z"/><g><path d="M85.85 127.5C84.92 127.5 82.53 127.26 78.68 126.77L78.68 105.09 84.05 105.09 84.05 121.99C84.43 122.05 85.21 122.08 86.41 122.09 88.26 122.03 89.78 121.25 90.97 119.73 91.49 119.02 92.48 117.51 93.96 115.21 95.21 113.62 96.71 112.83 98.43 112.83 99.91 112.83 101.04 113.37 101.82 114.44 102.02 114.7 102.21 115.2 102.42 115.91 102.63 116.62 103.02 118.08 103.62 120.27 103.94 121.48 104.92 122.09 106.55 122.09L108.39 122.09 108.39 127.51 106.65 127.51C106.19 127.47 105.84 127.42 105.6 127.36 104.93 127.15 104.33 126.68 103.8 125.96 103.4 126.96 102.73 127.71 101.79 128.19 100.85 128.67 99.84 128.93 98.74 128.95L98.59 128.95C97.71 128.95 96.62 128.5 95.33 127.59 94.91 127.3 93.91 126.57 92.32 125.39 91.62 126.2 90.7 126.81 89.56 127.23 89.03 127.37 88.28 127.46 87.32 127.5L85.84 127.5ZM99.88 123.34 99.88 123.21C99.88 122.67 99.71 121.7 99.38 120.3 99.02 118.79 98.59 118 98.08 117.92 97.54 118.13 96.51 119.36 95.01 121.62 97.45 123.25 98.82 124.07 99.11 124.07 99.6 124.07 99.86 123.83 99.88 123.34Z"/><path d="M134.99 121.62C134.99 123.46 134.12 124.94 132.38 126.05 130.87 127.01 129.16 127.49 127.24 127.49 124.9 127.49 123.38 126.88 122.68 125.65 121.65 126.88 120.32 127.49 118.71 127.49 116.95 127.49 115.45 126.74 114.19 125.23 113.76 126.16 112.8 126.84 111.33 127.26 110.47 127.41 109.23 127.49 107.63 127.49L106.69 127.49 106.69 122.07 107.63 122.07C109.8 122.07 110.89 121.48 110.89 120.31 110.89 119.79 110.72 119.03 110.39 118.03L115.6 117.05C115.71 117.72 115.94 118.72 116.29 120.06 116.64 121.4 117.23 122.07 118.07 122.07 118.98 122.07 119.62 121.42 120.01 120.13 120.08 119.67 120.25 118.62 120.51 116.97L125.61 117.91 125.11 121.17C125.26 121.77 125.93 122.07 127.1 122.07 127.74 122.07 128.27 121.98 128.69 121.8 129.29 121.52 129.61 121.11 129.65 120.57L128.56 116.39 133.7 115.24C134.56 118.63 135 120.75 135 121.62ZM120.33 111.85 115.52 111.85 115.52 107.06 120.33 107.06 120.33 111.85ZM123.65 105.37 118.82 105.37 118.82 100.62 123.65 100.62 123.65 105.37ZM127.08 111.85 122.21 111.85 122.21 107.06 127.08 107.06 127.08 111.85Z"/><path d="M181.23 127.5C178.61 127.5 176.94 126.94 176.21 125.83 175.09 126.95 173.17 127.5 170.44 127.5L153 127.5C151.03 127.5 149.32 127.02 147.86 126.06 146.23 124.97 145.41 123.47 145.41 121.54 145.41 120.72 145.51 119.89 145.72 119.05 146.03 117.82 146.19 116.99 146.22 116.56L151.74 117.5C151.52 118.62 151.34 119.51 151.2 120.18 151.2 121.45 152.59 122.08 155.38 122.08L168.07 122.08C170.76 122.08 172.11 121.4 172.11 120.05 172.11 119.62 171.93 118.77 171.57 117.5L177.03 116.52C177.1 117.18 177.22 118.17 177.39 119.51 177.49 120.4 177.8 121.05 178.33 121.47 178.86 121.89 179.83 122.09 181.24 122.09L181.24 127.51ZM160.36 112.13 155.53 112.13 155.53 107.36 160.36 107.36 160.36 112.13ZM167.05 112.13 162.26 112.13 162.26 107.36 167.05 107.36 167.05 112.13Z"/><path d="M207.83 121.62C207.83 123.4 206.96 124.85 205.22 125.97 203.69 126.99 201.97 127.5 200.08 127.5 197.74 127.5 196.22 126.89 195.52 125.66 194.53 126.89 193.21 127.5 191.55 127.5 189.79 127.5 188.29 126.75 187.03 125.24 186.25 126.75 184.2 127.5 180.88 127.5L179.52 127.5 179.52 122.08 180.46 122.08C182.63 122.08 183.72 121.49 183.72 120.32 183.72 119.78 183.55 119.02 183.22 118.04L188.43 117.06C188.67 118.62 188.86 119.63 189.02 120.09 189.47 121.41 190.09 122.08 190.9 122.08 191.78 122.08 192.43 121.43 192.84 120.14 192.88 119.72 193.05 118.67 193.34 116.98L198.44 117.92 197.94 121.18C198.09 121.78 198.76 122.08 199.93 122.08 201.62 122.08 202.46 121.55 202.46 120.49 202.46 120.2 202.1 118.83 201.39 116.39L206.53 115.24C207.39 118.63 207.83 120.75 207.83 121.62Z"/><path d="M224.75 126.53 224.75 126.66C224.75 128.74 224.06 130.58 222.68 132.18 221.54 133.53 219.97 134.74 217.97 135.8 217.61 135.98 215.77 136.87 212.47 138.48L210.07 133.77C211.97 132.86 213.88 131.96 215.8 131.05 218.27 129.61 219.5 128.09 219.5 126.49 219.5 125.26 218.82 123.07 217.47 119.9L222.53 118.16C223.98 121.94 224.72 124.73 224.75 126.52Z"/><path d="M242.88 121.7C242.88 123.57 242.11 125.07 240.56 126.22 239.07 127.07 237.38 127.5 235.5 127.5L227.74 127.5 227.74 122.08 236.04 122.08C236.95 122.08 237.4 121.75 237.4 121.08 237.4 120.75 235.75 117.9 232.44 112.55L237.12 109.66C237.91 110.94 239.12 112.88 240.74 115.47 242.16 117.88 242.87 119.96 242.87 121.7Z"/><path d="M298.39 121.7C298.39 123.72 297.62 125.23 296.07 126.24 294.77 127.08 293.06 127.49 290.93 127.49 288.39 127.49 286.81 126.93 286.18 125.82 284.86 126.91 283.57 127.45 282.33 127.45 281.23 127.45 280.52 127.22 280.22 126.76L282.04 133.72C280.05 134.44 277.01 135.53 272.94 136.98 269.09 138.3 266.02 138.97 263.72 138.97 260.93 138.97 258.67 138.11 256.93 136.39 255.19 134.67 254.31 132.41 254.28 129.63 254.28 127.51 255.14 123.48 256.85 117.52L262.37 118.92 260.86 123.98C260.36 125.65 260.09 127.38 260.07 129.17L260.07 129.23C260.07 130.44 260.53 131.46 261.45 132.28 262.27 133.03 263.37 133.41 264.75 133.41 266.83 133.41 270.56 132.37 275.96 130.29L272.89 118.04 278.22 116.51C278.48 117.6 278.77 118.75 279.08 119.98 279.62 121.35 280.43 122.03 281.48 122.03 282.68 122.03 283.45 120.37 283.78 117.05L289.32 117.95C289.03 119.19 288.88 120.14 288.88 120.79 288.88 121.64 289.48 122.07 290.68 122.07 292.05 122.07 292.74 121.59 292.77 120.63L292.77 120.5C292.77 119.64 292.5 118.55 291.95 117.24L296.97 115.65C297.9 118.58 298.37 120.59 298.37 121.69Z"/><path d="M320.04 127.5 319.73 127.5C318.38 127.5 317.48 127.41 317.03 127.23 316.28 126.94 315.55 126.41 314.86 125.64 313.3 126.88 311.22 127.5 308.63 127.5L301.35 127.5 301.35 122.08C304.78 122.26 306.56 122.35 306.68 122.35 309.59 122.35 311.05 121.94 311.05 121.12 311.05 120.52 310.35 119.12 308.94 116.92 308.31 115.96 307.38 114.5 306.14 112.55L310.74 109.62 316.34 119.68C317.01 120.92 317.46 121.62 317.7 121.77 318.12 121.98 318.9 122.08 320.04 122.08L320.04 127.5Z"/><path d="M339.34 121.03C337.47 121.73 335.49 122.75 333.4 124.1 330.93 125.7 328.51 126.73 326.14 127.17 325.11 127.38 322.5 127.48 318.32 127.48L318.32 122.06C323.9 122.06 328.58 121.15 332.37 119.34L325.55 117.77 325.22 118.9 320.18 117.54 321.85 111.71 339.33 115.95 339.33 121.01Z"/><path d="M376.87 129.04C374.1 130.6 371.64 131.88 369.51 132.87 366.44 134.22 363.82 134.9 361.65 134.9 358.56 134.9 356.04 134.04 354.09 132.31 352.15 130.58 351.17 128.16 351.17 125.05 351.17 122.74 352.17 119.23 354.16 114.53L359.26 116.01C358.83 117.07 358.22 118.69 357.44 120.86 356.99 122.21 356.77 123.52 356.77 124.77 356.77 126.09 357.24 127.22 358.19 128.16 359.14 129.1 360.29 129.56 361.64 129.56 362.85 129.56 364.55 129.13 366.74 128.26 368.76 127.47 370.39 126.68 371.63 125.9 369.72 125.9 368.07 125.29 366.67 124.07 365.27 122.85 364.56 121.33 364.54 119.5L364.54 119.48C364.54 115.76 367.96 113.17 374.79 111.72L376.19 116.24C374.92 116.45 373.67 116.81 372.45 117.33 370.72 118.05 369.86 118.84 369.86 119.67 369.86 120.99 371.69 121.84 375.34 122.2L376.87 129.04Z"/><path d="M387.27 127.5 381.94 127.5 381.94 105.1 387.27 105.1 387.27 127.5Z"/><path d="M405.52 127.5 404.62 127.5C403.32 127.5 402.47 127.1 402.07 126.29 402.17 126.74 402.22 127.22 402.22 127.73 402.22 130.14 400.76 132.37 397.83 134.42 397.08 134.98 394.55 136.33 390.26 138.48L387.86 133.84 393.63 131.02C395.96 129.49 397.14 127.9 397.16 126.25 397.16 125.5 396.94 124.41 396.49 122.99 396.36 122.66 396.16 122.16 395.87 121.49 395.58 120.82 395.36 120.32 395.21 119.95L400.23 118.15C401.01 120.05 401.57 121.15 401.9 121.45 402.37 121.87 403.58 122.08 405.52 122.08L405.52 127.5Z"/><path d="M406.05 122.08C407.97 122.08 408.94 121.38 408.94 119.97L408.94 119.76C408.94 119.33 408.71 118.21 408.25 116.39L413.25 115.34C414.1 118.04 414.53 120.16 414.53 121.7 414.53 123.61 413.81 125.09 412.36 126.13 411.06 127.04 409.41 127.49 407.4 127.49L403.82 127.49 403.82 122.07 406.06 122.07ZM412.72 137.26 407.47 137.26 407.47 132.09 412.72 132.09 412.72 137.26Z"/><path d="M441.3 122.44C441.3 123.92 440.81 125.13 439.84 126.08 438.87 127.03 437.65 127.5 436.2 127.5L429.8 127.5C428.28 127.5 427.04 127.02 426.08 126.06 425.12 125.1 424.64 123.86 424.64 122.36L424.64 122.3C424.64 120.86 425.46 119.27 427.09 117.51 427.63 117.01 429.1 115.75 431.5 113.73L430.25 111.93 433.91 109.53 440.25 119.02C440.96 120.07 441.32 121.21 441.32 122.45ZM436.16 121.58C436.16 121.32 435.37 120.05 433.78 117.8 431.24 120.2 429.97 121.6 429.97 122 429.97 122.47 430.4 122.71 431.25 122.71L434.95 122.71C435.76 122.71 436.16 122.33 436.16 121.58Z"/><path d="M458.47 127.5 457.78 127.5C456.34 127.5 455.42 127.1 455.02 126.29 455.12 126.74 455.17 127.19 455.17 127.65 455.17 130.15 453.71 132.4 450.78 134.43 450 135 447.48 136.35 443.21 138.49L440.81 133.85C444.39 132.12 446.32 131.18 446.58 131.03 448.94 129.5 450.11 127.91 450.11 126.26 450.11 125.49 449.89 124.41 449.44 123 449.31 122.67 449.11 122.17 448.82 121.5 448.53 120.83 448.31 120.33 448.16 119.96L453.18 118.16C453.96 120.03 454.52 121.13 454.85 121.46 455.37 121.88 456.57 122.09 458.47 122.09L458.47 127.51ZM450.46 113.68 445.63 113.68 445.63 108.81 450.46 108.81 450.46 113.68Z"/><path d="M460.67 122.08C462.59 122.08 463.56 121.38 463.56 119.97L463.56 119.76C463.56 119.33 463.33 118.21 462.87 116.39L467.87 115.34C468.72 118.04 469.15 120.16 469.15 121.7 469.15 123.61 468.43 125.09 466.98 126.13 465.68 127.04 464.03 127.49 462.02 127.49L456.77 127.49 456.77 122.07 460.68 122.07ZM462.8 132.51 462.76 137.19 458.08 137.19 458.21 132.51 462.81 132.51ZM469.05 132.51 468.99 137.19 464.35 137.19 464.39 132.51 469.05 132.51Z"/><path d="M481.35 127.5 479.93 127.5C479 127.5 476.61 127.26 472.76 126.77L472.76 105.09 478.13 105.09 478.13 121.99C478.59 122.06 479.66 122.09 481.35 122.09L481.35 127.51Z"/><path d="M500.65 121.03C498.78 121.73 496.8 122.75 494.71 124.1 492.24 125.7 489.82 126.73 487.45 127.17 486.42 127.38 483.81 127.48 479.63 127.48L479.63 122.06C485.21 122.06 489.89 121.15 493.68 119.34L486.86 117.77 486.53 118.9 481.49 117.54 483.16 111.71 500.64 115.95 500.64 121.01ZM493.02 137.15 488.23 137.15 488.23 132.32 493.02 132.32 493.02 137.15Z"/></g></svg>