<svg viewBox="0 0 122 118" xmlns="http://www.w3.org/2000/svg" xmlns:xlink="http://www.w3.org/1999/xlink" id="Layer_1" xml:space="preserve" overflow="hidden"><g><g><linearGradient x1="35.5717" y1="25.2585" x2="94.4282" y2="95.7411" gradientUnits="userSpaceOnUse" id="SVGID_1_"><stop offset="0" stop-color="#B3B3B3"/><stop offset="0.0468888" stop-color="#B8B8B8"/><stop offset="0.4621" stop-color="#DEDEDE"/><stop offset="0.7944" stop-color="#F6F6F6"/><stop offset="1" stop-color="#FFFFFF"/></linearGradient><radialGradient cx="1082.68" cy="777.165" r="15.5606" gradientUnits="userSpaceOnUse" id="SVGID_00000047046339708615570070000008581141795354398601_" gradientTransform="matrix(2.6443 0 0 2.6443 -2797.86 -1994.47)"><stop offset="0.8108" stop-color="#545454"/><stop offset="0.842" stop-color="#565656"/><stop offset="0.8594" stop-color="#5E5E5E"/><stop offset="0.8733" stop-color="#6C6C6C"/><stop offset="0.8855" stop-color="#808080"/><stop offset="0.8965" stop-color="#999999"/><stop offset="0.9066" stop-color="#B9B9B9"/><stop offset="0.9159" stop-color="#DDDDDD"/><stop offset="0.9195" stop-color="#EDEDED"/><stop offset="0.9345" stop-color="#EAEAEA"/><stop offset="0.9475" stop-color="#DFDFDF"/><stop offset="0.9597" stop-color="#CDCDCD"/><stop offset="0.9715" stop-color="#B4B4B4"/><stop offset="0.9829" stop-color="#949494"/><stop offset="0.9939" stop-color="#6D6D6D"/><stop offset="1" stop-color="#545454"/></radialGradient><defs><filter id="Adobe_OpacityMaskFilter" x="23.9" y="19.4" width="82.3" height="82.3" filterUnits="userSpaceOnUse" primitiveUnits="userSpaceOnUse"><feColorMatrix type="matrix" values="1 0 0 0 0 0 1 0 0 0 0 0 1 0 0 0 0 0 1 0 "/></filter></defs><mask maskUnits="userSpaceOnUse" x="23.9" y="19.4" width="82.3" height="82.3" id="SVGID_00000005947217415815501930000001594096185094195852_"><g filter="url(#Adobe_OpacityMaskFilter)"><rect x="-33.2" y="-6.8" width="163.5" height="151.9" fill="#FFFFFF"/></g></mask><radialGradient cx="1330.5" cy="974.091" r="21.0169" gradientUnits="userSpaceOnUse" id="SVGID_00000062185681116609238880000002774684665673531020_" gradientTransform="matrix(1.9578 0 0 1.9578 -2539.78 -1846.49)"><stop offset="0.8108" stop-color="#781818"/><stop offset="0.8427" stop-color="#7A1A18"/><stop offset="0.8605" stop-color="#822216"/><stop offset="0.8747" stop-color="#8F3014"/><stop offset="0.8872" stop-color="#A24411"/><stop offset="0.8984" stop-color="#BA5D0C"/><stop offset="0.9088" stop-color="#D87D07"/><stop offset="0.9183" stop-color="#FAA101"/><stop offset="0.9195" stop-color="#FFA600"/><stop offset="0.9419" stop-color="#FDA400"/><stop offset="0.9551" stop-color="#F59B02"/><stop offset="0.966" stop-color="#E78D04"/><stop offset="0.9755" stop-color="#D47908"/><stop offset="0.9842" stop-color="#BB5F0C"/><stop offset="0.9921" stop-color="#9E3F11"/><stop offset="0.9996" stop-color="#7A1A18"/><stop offset="1" stop-color="#781818"/></radialGradient><defs><filter id="Adobe_OpacityMaskFilter_00000147178039606762626520000003751032372725584773_" x="23.9" y="19.4" width="82.3" height="82.3" filterUnits="userSpaceOnUse" primitiveUnits="userSpaceOnUse"><feColorMatrix type="matrix" values="1 0 0 0 0 0 1 0 0 0 0 0 1 0 0 0 0 0 1 0 "/></filter></defs><mask maskUnits="userSpaceOnUse" x="23.9" y="19.4" width="82.3" height="82.3" id="SVGID_00000165938798414508450380000016397400870713096637_"><g filter="url(#Adobe_OpacityMaskFilter_00000147178039606762626520000003751032372725584773_)"><rect x="-33.2" y="-6.8" width="163.5" height="151.9" fill="#FFFFFF"/></g></mask><radialGradient cx="1330.5" cy="974.091" r="21.0169" gradientUnits="userSpaceOnUse" id="SVGID_00000088107792300686161940000010106602959538522024_" gradientTransform="matrix(1.9578 0 0 1.9578 -2539.78 -1846.49)"><stop offset="0.8108" stop-color="#53005E"/><stop offset="0.8279" stop-color="#570261"/><stop offset="0.8445" stop-color="#630A6B"/><stop offset="0.8609" stop-color="#76167C"/><stop offset="0.8772" stop-color="#922894"/><stop offset="0.8934" stop-color="#B53FB3"/><stop offset="0.9093" stop-color="#E05AD8"/><stop offset="0.9195" stop-color="#FF6EF3"/><stop offset="0.9406" stop-color="#FD6CF1"/><stop offset="0.953" stop-color="#F467EA"/><stop offset="0.9632" stop-color="#E65EDD"/><stop offset="0.9722" stop-color="#D251CC"/><stop offset="0.9804" stop-color="#B841B5"/><stop offset="0.988" stop-color="#982C9A"/><stop offset="0.995" stop-color="#731479"/><stop offset="1" stop-color="#53005E"/></radialGradient><defs><filter id="Adobe_OpacityMaskFilter_00000126323779386581894240000008891506492031058565_" x="23.9" y="19.4" width="82.3" height="82.3" filterUnits="userSpaceOnUse" primitiveUnits="userSpaceOnUse"><feColorMatrix type="matrix" values="1 0 0 0 0 0 1 0 0 0 0 0 1 0 0 0 0 0 1 0 "/></filter></defs><mask maskUnits="userSpaceOnUse" x="23.9" y="19.4" width="82.3" height="82.3" id="SVGID_00000012435985772646059580000014389260112646640286_"><g filter="url(#Adobe_OpacityMaskFilter_00000126323779386581894240000008891506492031058565_)"><rect x="-33.2" y="-6.9" width="163.5" height="151.9" fill="#FFFFFF"/></g></mask><radialGradient cx="1330.5" cy="974.048" r="21.0166" gradientUnits="userSpaceOnUse" id="SVGID_00000136402264038625307740000007064906928714772141_" gradientTransform="matrix(1.9578 0 0 1.9578 -2539.78 -1846.49)"><stop offset="0.8108" stop-color="#184078"/><stop offset="0.8404" stop-color="#18427A"/><stop offset="0.8568" stop-color="#174A80"/><stop offset="0.87" stop-color="#15588A"/><stop offset="0.8816" stop-color="#136C98"/><stop offset="0.892" stop-color="#1085AB"/><stop offset="0.9016" stop-color="#0DA5C2"/><stop offset="0.9105" stop-color="#09CADD"/><stop offset="0.9188" stop-color="#04F3FC"/><stop offset="0.9195" stop-color="#04F7FF"/><stop offset="0.9402" stop-color="#04F5FD"/><stop offset="0.9524" stop-color="#05ECF7"/><stop offset="0.9624" stop-color="#07DEED"/><stop offset="0.9712" stop-color="#09CADE"/><stop offset="0.9792" stop-color="#0CB0CB"/><stop offset="0.9867" stop-color="#0F90B3"/><stop offset="0.9935" stop-color="#136B97"/><stop offset="1" stop-color="#184078"/></radialGradient><defs><filter id="Adobe_OpacityMaskFilter_00000000224056941405501140000013222330377057926841_" x="23.9" y="19.4" width="82.3" height="82.3" filterUnits="userSpaceOnUse" primitiveUnits="userSpaceOnUse"><feColorMatrix type="matrix" values="1 0 0 0 0 0 1 0 0 0 0 0 1 0 0 0 0 0 1 0 "/></filter></defs><mask maskUnits="userSpaceOnUse" x="23.9" y="19.4" width="82.3" height="82.3" id="SVGID_00000067957972580029499800000007679040970570642614_"><g filter="url(#Adobe_OpacityMaskFilter_00000000224056941405501140000013222330377057926841_)"><rect x="10.7" y="-15.4" width="98.2" height="151.9" fill="#FFFFFF"/></g></mask><radialGradient cx="1082.68" cy="777.165" r="15.5606" gradientUnits="userSpaceOnUse" id="SVGID_00000127743992331159832590000016400273974164882851_" gradientTransform="matrix(2.6443 0 0 2.6443 -2797.86 -1994.47)"><stop offset="0.8108" stop-color="#209E37"/><stop offset="0.8407" stop-color="#229F36"/><stop offset="0.8573" stop-color="#2AA434"/><stop offset="0.8706" stop-color="#38AB30"/><stop offset="0.8823" stop-color="#4CB62A"/><stop offset="0.8928" stop-color="#65C423"/><stop offset="0.9025" stop-color="#85D51A"/><stop offset="0.9114" stop-color="#A9E910"/><stop offset="0.9195" stop-color="#D1FF04"/><stop offset="0.9404" stop-color="#CFFE05"/><stop offset="0.9527" stop-color="#C6F907"/><stop offset="0.9628" stop-color="#B8F10B"/><stop offset="0.9717" stop-color="#A4E611"/><stop offset="0.9798" stop-color="#8AD818"/><stop offset="0.9874" stop-color="#6AC622"/><stop offset="0.9943" stop-color="#45B22C"/><stop offset="1" stop-color="#209E37"/></radialGradient><linearGradient x1="41.9777" y1="32.2875" x2="88.1866" y2="87.6242" gradientUnits="userSpaceOnUse" id="SVGID_00000046315528063763349490000004185095293926505888_"><stop offset="0" stop-color="#FFFFFF"/><stop offset="0.2056" stop-color="#F6F6F6"/><stop offset="0.5378" stop-color="#DEDEDE"/><stop offset="0.953" stop-color="#B8B8B8"/><stop offset="1" stop-color="#B3B3B3"/></linearGradient><path d="M65 19.4C87.7 19.4 106.1 37.8 106.1 60.5 106.1 83.2 87.7 101.6 65 101.6 42.4 101.6 23.9 83.2 23.9 60.5 23.9 37.9 42.3 19.4 65 19.4M65 14.6C39.6 14.6 19.1 35.2 19.1 60.5 19.1 85.9 39.7 106.4 65 106.4 90.4 106.4 110.9 85.8 110.9 60.5 110.9 35.1 90.4 14.6 65 14.6L65 14.6Z" fill="url(#SVGID_1_)"/><path d="M65.1 24.7C84.9 24.7 100.9 40.8 100.9 60.5 100.9 80.3 84.8 96.3 65.1 96.3 45.3 96.3 29.2 80.2 29.2 60.5 29.2 40.8 45.3 24.7 65.1 24.7M65.1 19.4C42.4 19.4 24 37.8 24 60.5 24 83.2 42.4 101.6 65.1 101.6 87.8 101.6 106.2 83.2 106.2 60.5 106.2 37.9 87.8 19.4 65.1 19.4L65.1 19.4Z" fill="url(#SVGID_00000047046339708615570070000008581141795354398601_)"/><path d="M65.1 24.7C84.9 24.7 100.9 40.8 100.9 60.5 100.9 80.3 84.8 96.3 65.1 96.3 45.3 96.3 29.2 80.2 29.2 60.5 29.2 40.8 45.3 24.7 65.1 24.7M65.1 19.4C42.4 19.4 24 37.8 24 60.5 24 83.2 42.4 101.6 65.1 101.6 87.8 101.6 106.2 83.2 106.2 60.5 106.2 37.9 87.8 19.4 65.1 19.4L65.1 19.4Z" fill="url(#SVGID_00000062185681116609238880000002774684665673531020_)" mask="url(#SVGID_00000005947217415815501930000001594096185094195852_)"/><path d="M65.1 24.7C84.9 24.7 100.9 40.8 100.9 60.5 100.9 80.3 84.8 96.3 65.1 96.3 45.3 96.3 29.2 80.2 29.2 60.5 29.2 40.8 45.3 24.7 65.1 24.7M65.1 19.4C42.4 19.4 24 37.8 24 60.5 24 83.2 42.4 101.6 65.1 101.6 87.8 101.6 106.2 83.2 106.2 60.5 106.2 37.9 87.8 19.4 65.1 19.4L65.1 19.4Z" fill="url(#SVGID_00000088107792300686161940000010106602959538522024_)" mask="url(#SVGID_00000165938798414508450380000016397400870713096637_)"/><path d="M65.1 24.7C84.9 24.7 100.9 40.8 100.9 60.5 100.9 80.3 84.8 96.3 65.1 96.3 45.3 96.3 29.2 80.2 29.2 60.5 29.2 40.7 45.3 24.7 65.1 24.7M65.1 19.4C42.4 19.4 24 37.8 24 60.5 24 83.2 42.4 101.6 65.1 101.6 87.8 101.6 106.2 83.2 106.2 60.5 106.2 37.8 87.8 19.4 65.1 19.4L65.1 19.4Z" fill="url(#SVGID_00000136402264038625307740000007064906928714772141_)" mask="url(#SVGID_00000012435985772646059580000014389260112646640286_)"/><path d="M65.1 24.7C84.9 24.7 100.9 40.8 100.9 60.5 100.9 80.3 84.8 96.3 65.1 96.3 45.3 96.3 29.2 80.2 29.2 60.5 29.2 40.8 45.3 24.7 65.1 24.7M65.1 19.4C42.4 19.4 24 37.8 24 60.5 24 83.2 42.4 101.6 65.1 101.6 87.8 101.6 106.2 83.2 106.2 60.5 106.2 37.9 87.8 19.4 65.1 19.4L65.1 19.4Z" fill="url(#SVGID_00000127743992331159832590000016400273974164882851_)" mask="url(#SVGID_00000067957972580029499800000007679040970570642614_)"/><g><linearGradient x1="43.4158" y1="34.6541" x2="86.5822" y2="86.3472" gradientUnits="userSpaceOnUse" id="SVGID_00000027584047641224741530000002297254634396002224_"><stop offset="0" stop-color="#B3B3B3"/><stop offset="0.2587" stop-color="#C2C2C2"/><stop offset="0.7545" stop-color="#E9E9E9"/><stop offset="1" stop-color="#FFFFFF"/></linearGradient><path d="M98.7 60.5C98.7 79.1 83.6 94.2 65 94.2 46.4 94.2 31.3 79.1 31.3 60.5 31.3 41.9 46.4 26.8 65 26.8 83.6 26.8 98.7 41.9 98.7 60.5Z" fill="url(#SVGID_00000027584047641224741530000002297254634396002224_)"/></g><path d="M65.1 27.7C82.9 27.7 97.3 42.2 97.3 59.9 97.3 77.7 82.8 92.1 65.1 92.1 47.4 92.1 32.8 77.7 32.8 60 32.8 42.2 47.3 27.7 65.1 27.7M65.1 23.9C45.2 23.9 29.1 40 29.1 59.9 29.1 79.8 45.2 95.9 65.1 95.9 85 95.9 101.1 79.8 101.1 59.9 101.1 40 85 23.9 65.1 23.9L65.1 23.9Z" fill="url(#SVGID_00000046315528063763349490000004185095293926505888_)"/></g><g><linearGradient x1="44.0739" y1="35.9714" x2="85.0218" y2="85.0078" gradientUnits="userSpaceOnUse" id="SVGID_00000036240460385311780930000012402720440747497910_"><stop offset="0" stop-color="#B3B3B3"/><stop offset="0.0468888" stop-color="#B8B8B8"/><stop offset="0.4621" stop-color="#DEDEDE"/><stop offset="0.7944" stop-color="#F6F6F6"/><stop offset="1" stop-color="#FFFFFF"/></linearGradient><radialGradient cx="1082.5" cy="777.152" r="10.8259" gradientUnits="userSpaceOnUse" id="SVGID_00000109006981882368317300000006052756695836385448_" gradientTransform="matrix(2.6443 0 0 2.6443 -2797.86 -1994.47)"><stop offset="0.8108" stop-color="#545454"/><stop offset="0.842" stop-color="#565656"/><stop offset="0.8594" stop-color="#5E5E5E"/><stop offset="0.8733" stop-color="#6C6C6C"/><stop offset="0.8855" stop-color="#808080"/><stop offset="0.8965" stop-color="#999999"/><stop offset="0.9066" stop-color="#B9B9B9"/><stop offset="0.9159" stop-color="#DDDDDD"/><stop offset="0.9195" stop-color="#EDEDED"/><stop offset="0.9345" stop-color="#EAEAEA"/><stop offset="0.9475" stop-color="#DFDFDF"/><stop offset="0.9597" stop-color="#CDCDCD"/><stop offset="0.9715" stop-color="#B4B4B4"/><stop offset="0.9829" stop-color="#949494"/><stop offset="0.9939" stop-color="#6D6D6D"/><stop offset="1" stop-color="#545454"/></radialGradient><defs><filter id="Adobe_OpacityMaskFilter_00000170958021199321787280000010906546951931477660_" x="36" y="31.9" width="57.3" height="57.3" filterUnits="userSpaceOnUse" primitiveUnits="userSpaceOnUse"><feColorMatrix type="matrix" values="1 0 0 0 0 0 1 0 0 0 0 0 1 0 0 0 0 0 1 0 "/></filter></defs><mask maskUnits="userSpaceOnUse" x="36" y="31.9" width="57.3" height="57.3" id="SVGID_00000020395728709511096820000013580137011872567683_"><g filter="url(#Adobe_OpacityMaskFilter_00000170958021199321787280000010906546951931477660_)"><rect x="-3.8" y="13.6" width="113.7" height="105.7" fill="#FFFFFF"/></g></mask><radialGradient cx="1330.26" cy="974.073" r="14.622" gradientUnits="userSpaceOnUse" id="SVGID_00000129168062837001294170000007199587839965866666_" gradientTransform="matrix(1.9578 0 0 1.9578 -2539.78 -1846.49)"><stop offset="0.8108" stop-color="#781818"/><stop offset="0.8427" stop-color="#7A1A18"/><stop offset="0.8605" stop-color="#822216"/><stop offset="0.8747" stop-color="#8F3014"/><stop offset="0.8872" stop-color="#A24411"/><stop offset="0.8984" stop-color="#BA5D0C"/><stop offset="0.9088" stop-color="#D87D07"/><stop offset="0.9183" stop-color="#FAA101"/><stop offset="0.9195" stop-color="#FFA600"/><stop offset="0.9419" stop-color="#FDA400"/><stop offset="0.9551" stop-color="#F59B02"/><stop offset="0.966" stop-color="#E78D04"/><stop offset="0.9755" stop-color="#D47908"/><stop offset="0.9842" stop-color="#BB5F0C"/><stop offset="0.9921" stop-color="#9E3F11"/><stop offset="0.9996" stop-color="#7A1A18"/><stop offset="1" stop-color="#781818"/></radialGradient><defs><filter id="Adobe_OpacityMaskFilter_00000102536960174577722990000012084131016174547073_" x="36" y="31.9" width="57.3" height="57.3" filterUnits="userSpaceOnUse" primitiveUnits="userSpaceOnUse"><feColorMatrix type="matrix" values="1 0 0 0 0 0 1 0 0 0 0 0 1 0 0 0 0 0 1 0 "/></filter></defs><mask maskUnits="userSpaceOnUse" x="36" y="31.9" width="57.3" height="57.3" id="SVGID_00000096041029458479265960000001695005212942284219_"><g filter="url(#Adobe_OpacityMaskFilter_00000102536960174577722990000012084131016174547073_)"><rect x="-3.8" y="13.6" width="113.7" height="105.7" fill="#FFFFFF"/></g></mask><radialGradient cx="1330.26" cy="974.073" r="14.622" gradientUnits="userSpaceOnUse" id="SVGID_00000166662888901458249120000015421999406740948614_" gradientTransform="matrix(1.9578 0 0 1.9578 -2539.78 -1846.49)"><stop offset="0.8108" stop-color="#53005E"/><stop offset="0.8279" stop-color="#570261"/><stop offset="0.8445" stop-color="#630A6B"/><stop offset="0.8609" stop-color="#76167C"/><stop offset="0.8772" stop-color="#922894"/><stop offset="0.8934" stop-color="#B53FB3"/><stop offset="0.9093" stop-color="#E05AD8"/><stop offset="0.9195" stop-color="#FF6EF3"/><stop offset="0.9406" stop-color="#FD6CF1"/><stop offset="0.953" stop-color="#F467EA"/><stop offset="0.9632" stop-color="#E65EDD"/><stop offset="0.9722" stop-color="#D251CC"/><stop offset="0.9804" stop-color="#B841B5"/><stop offset="0.988" stop-color="#982C9A"/><stop offset="0.995" stop-color="#731479"/><stop offset="1" stop-color="#53005E"/></radialGradient><defs><filter id="Adobe_OpacityMaskFilter_00000098925001159813757990000014039336232881843376_" x="36" y="31.9" width="57.3" height="57.2" filterUnits="userSpaceOnUse" primitiveUnits="userSpaceOnUse"><feColorMatrix type="matrix" values="1 0 0 0 0 0 1 0 0 0 0 0 1 0 0 0 0 0 1 0 "/></filter></defs><mask maskUnits="userSpaceOnUse" x="36" y="31.9" width="57.3" height="57.2" id="SVGID_00000087401539093542105440000003814680459881949573_"><g filter="url(#Adobe_OpacityMaskFilter_00000098925001159813757990000014039336232881843376_)"><rect x="-3.8" y="13.6" width="113.7" height="105.7" fill="#FFFFFF"/></g></mask><radialGradient cx="1330.26" cy="974.043" r="14.6218" gradientUnits="userSpaceOnUse" id="SVGID_00000166645992959557193150000010472521844699646135_" gradientTransform="matrix(1.9578 0 0 1.9578 -2539.78 -1846.49)"><stop offset="0.8108" stop-color="#184078"/><stop offset="0.8404" stop-color="#18427A"/><stop offset="0.8568" stop-color="#174A80"/><stop offset="0.87" stop-color="#15588A"/><stop offset="0.8816" stop-color="#136C98"/><stop offset="0.892" stop-color="#1085AB"/><stop offset="0.9016" stop-color="#0DA5C2"/><stop offset="0.9105" stop-color="#09CADD"/><stop offset="0.9188" stop-color="#04F3FC"/><stop offset="0.9195" stop-color="#04F7FF"/><stop offset="0.9402" stop-color="#04F5FD"/><stop offset="0.9524" stop-color="#05ECF7"/><stop offset="0.9624" stop-color="#07DEED"/><stop offset="0.9712" stop-color="#09CADE"/><stop offset="0.9792" stop-color="#0CB0CB"/><stop offset="0.9867" stop-color="#0F90B3"/><stop offset="0.9935" stop-color="#136B97"/><stop offset="1" stop-color="#184078"/></radialGradient><defs><filter id="Adobe_OpacityMaskFilter_00000050633267843799235490000014632936013220525744_" x="36" y="31.9" width="57.3" height="57.3" filterUnits="userSpaceOnUse" primitiveUnits="userSpaceOnUse"><feColorMatrix type="matrix" values="1 0 0 0 0 0 1 0 0 0 0 0 1 0 0 0 0 0 1 0 "/></filter></defs><mask maskUnits="userSpaceOnUse" x="36" y="31.9" width="57.3" height="57.3" id="SVGID_00000036965348264270311930000018315374109057518269_"><g filter="url(#Adobe_OpacityMaskFilter_00000050633267843799235490000014632936013220525744_)"><rect x="26.8" y="7.7" width="68.3" height="105.7" fill="#FFFFFF"/></g></mask><radialGradient cx="1082.5" cy="777.152" r="10.8259" gradientUnits="userSpaceOnUse" id="SVGID_00000148645155727225498630000008881418780553643911_" gradientTransform="matrix(2.6443 0 0 2.6443 -2797.86 -1994.47)"><stop offset="0.8108" stop-color="#209E37"/><stop offset="0.8407" stop-color="#229F36"/><stop offset="0.8573" stop-color="#2AA434"/><stop offset="0.8706" stop-color="#38AB30"/><stop offset="0.8823" stop-color="#4CB62A"/><stop offset="0.8928" stop-color="#65C423"/><stop offset="0.9025" stop-color="#85D51A"/><stop offset="0.9114" stop-color="#A9E910"/><stop offset="0.9195" stop-color="#D1FF04"/><stop offset="0.9404" stop-color="#CFFE05"/><stop offset="0.9527" stop-color="#C6F907"/><stop offset="0.9628" stop-color="#B8F10B"/><stop offset="0.9717" stop-color="#A4E611"/><stop offset="0.9798" stop-color="#8AD818"/><stop offset="0.9874" stop-color="#6AC622"/><stop offset="0.9943" stop-color="#45B22C"/><stop offset="1" stop-color="#209E37"/></radialGradient><linearGradient x1="48.53" y1="40.8618" x2="80.679" y2="79.3613" gradientUnits="userSpaceOnUse" id="SVGID_00000119085641030747685170000005619593665376295836_"><stop offset="0" stop-color="#FFFFFF"/><stop offset="0.2056" stop-color="#F6F6F6"/><stop offset="0.5378" stop-color="#DEDEDE"/><stop offset="0.953" stop-color="#B8B8B8"/><stop offset="1" stop-color="#B3B3B3"/></linearGradient><path d="M64.5 31.9C80.3 31.9 93.1 44.7 93.1 60.5 93.1 76.3 80.3 89.1 64.5 89.1 48.8 89.1 36 76.2 36 60.5 36 44.7 48.8 31.9 64.5 31.9M64.5 28.5C46.9 28.5 32.6 42.8 32.6 60.4 32.6 78 46.9 92.3 64.5 92.3 82.1 92.3 96.4 78 96.4 60.4 96.5 42.8 82.2 28.5 64.5 28.5L64.5 28.5Z" fill="url(#SVGID_00000036240460385311780930000012402720440747497910_)"/><path d="M64.6 35.6C78.4 35.6 89.5 46.8 89.5 60.5 89.5 74.3 78.3 85.4 64.6 85.4 50.8 85.4 39.7 74.2 39.7 60.5 39.7 46.8 50.9 35.6 64.6 35.6M64.6 31.9C48.8 31.9 36 44.7 36 60.5 36 76.3 48.8 89.1 64.6 89.1 80.4 89.1 93.2 76.3 93.2 60.5 93.2 44.7 80.4 31.9 64.6 31.9L64.6 31.9Z" fill="url(#SVGID_00000109006981882368317300000006052756695836385448_)"/><path d="M64.6 35.6C78.4 35.6 89.5 46.8 89.5 60.5 89.5 74.3 78.3 85.4 64.6 85.4 50.8 85.4 39.7 74.2 39.7 60.5 39.7 46.8 50.9 35.6 64.6 35.6M64.6 31.9C48.8 31.9 36 44.7 36 60.5 36 76.3 48.8 89.1 64.6 89.1 80.4 89.1 93.2 76.3 93.2 60.5 93.2 44.7 80.4 31.9 64.6 31.9L64.6 31.9Z" fill="url(#SVGID_00000129168062837001294170000007199587839965866666_)" mask="url(#SVGID_00000020395728709511096820000013580137011872567683_)"/><path d="M64.6 35.6C78.4 35.6 89.5 46.8 89.5 60.5 89.5 74.3 78.3 85.4 64.6 85.4 50.8 85.4 39.7 74.2 39.7 60.5 39.7 46.8 50.9 35.6 64.6 35.6M64.6 31.9C48.8 31.9 36 44.7 36 60.5 36 76.3 48.8 89.1 64.6 89.1 80.4 89.1 93.2 76.3 93.2 60.5 93.2 44.7 80.4 31.9 64.6 31.9L64.6 31.9Z" fill="url(#SVGID_00000166662888901458249120000015421999406740948614_)" mask="url(#SVGID_00000096041029458479265960000001695005212942284219_)"/><path d="M64.6 35.5C78.4 35.5 89.5 46.7 89.5 60.4 89.5 74.2 78.3 85.3 64.6 85.3 50.8 85.3 39.7 74.1 39.7 60.4 39.7 46.7 50.9 35.5 64.6 35.5M64.6 31.9C48.8 31.9 36 44.7 36 60.5 36 76.3 48.8 89.1 64.6 89.1 80.4 89.1 93.2 76.3 93.2 60.5 93.2 44.7 80.4 31.9 64.6 31.9L64.6 31.9Z" fill="url(#SVGID_00000166645992959557193150000010472521844699646135_)" mask="url(#SVGID_00000087401539093542105440000003814680459881949573_)"/><path d="M64.6 35.6C78.4 35.6 89.5 46.8 89.5 60.5 89.5 74.3 78.3 85.4 64.6 85.4 50.8 85.4 39.7 74.2 39.7 60.5 39.7 46.8 50.9 35.6 64.6 35.6M64.6 31.9C48.8 31.9 36 44.7 36 60.5 36 76.3 48.8 89.1 64.6 89.1 80.4 89.1 93.2 76.3 93.2 60.5 93.2 44.7 80.4 31.9 64.6 31.9L64.6 31.9Z" fill="url(#SVGID_00000148645155727225498630000008881418780553643911_)" mask="url(#SVGID_00000036965348264270311930000018315374109057518269_)"/><g><linearGradient x1="49.5313" y1="42.5081" x2="79.5644" y2="78.4737" gradientUnits="userSpaceOnUse" id="SVGID_00000080893775314590533710000003901448353597322391_"><stop offset="0" stop-color="#B3B3B3"/><stop offset="0.2587" stop-color="#C2C2C2"/><stop offset="0.7545" stop-color="#E9E9E9"/><stop offset="1" stop-color="#FFFFFF"/></linearGradient><path d="M88 60.5C88 73.4 77.5 83.9 64.6 83.9 51.7 83.9 41.2 73.4 41.2 60.5 41.2 47.6 51.7 37.1 64.6 37.1 77.5 37.1 88 47.6 88 60.5Z" fill="url(#SVGID_00000080893775314590533710000003901448353597322391_)"/></g><path d="M64.6 37.7C77 37.7 87 47.7 87 60.1 87 72.5 77 82.5 64.6 82.5 52.2 82.5 42.2 72.4 42.2 60.1 42.2 47.7 52.2 37.7 64.6 37.7M64.6 35C50.7 35 39.5 46.2 39.5 60.1 39.5 74 50.7 85.2 64.6 85.2 78.4 85.2 89.7 74 89.7 60.1 89.7 46.3 78.5 35 64.6 35L64.6 35Z" fill="url(#SVGID_00000119085641030747685170000005619593665376295836_)"/></g></g></svg>